ISO-10303-21;
HEADER;
/* Generated by software containing ST-Developer
 * from STEP Tools, Inc. (www.steptools.com) 
 */
/* OPTION: using custom renumber hook */

FILE_DESCRIPTION(
/* description */ ('STEP AP242 Edition 2',
'CAx-IF Rec.Pracs.---Representation and Presentation of Product Manufa
cturing Information (PMI)---4.0---2014-10-13',
'CAx-IF Rec.Pracs.---3D Tessellated Geometry---0.4---2014-09-14','2;1',
'CAx-IF Rec.Pracs.---User Defined Attributes---1.5---2016-08-15'),
/* implementation_level */ '2;1');

FILE_NAME(
/* name */ 'Modular_vacuum - Pokrov LEDring',
/* time_stamp */ '2026-06-09T07:04:37Z',
/* author */ (''),
/* organization */ (''),
/* preprocessor_version */ 'ST-DEVELOPER v20',
/* originating_system */ 'ONSHAPE BY PTC INC, 1.216',
/* authorisation */ '  ');

FILE_SCHEMA (('AP242_MANAGED_MODEL_BASED_3D_ENGINEERING_MIM_LF { 1 0 10303 442 3 1 4 }'));
ENDSEC;

DATA;
#10=SHAPE_REPRESENTATION_RELATIONSHIP('','',#318,#11);
#11=ADVANCED_BREP_SHAPE_REPRESENTATION('',(#316),#798);
#12=(
BOUNDED_SURFACE()
B_SPLINE_SURFACE(3,2,((#582,#583,#584),(#585,#586,#587),(#588,#589,#590),
(#591,#592,#593),(#594,#595,#596),(#597,#598,#599),(#600,#601,#602),(#603,
#604,#605),(#606,#607,#608),(#609,#610,#611),(#612,#613,#614),(#615,#616,
#617),(#618,#619,#620),(#621,#622,#623),(#624,#625,#626),(#627,#628,#629)),
 .UNSPECIFIED.,.F.,.F.,.F.)
B_SPLINE_SURFACE_WITH_KNOTS((4,1,1,1,1,1,1,1,1,1,1,1,1,4),(3,3),(0.0585237346387876,
0.0599963491159089,0.0614689635930302,0.0644141925472728,0.0673594215015154,
0.070304650455758,0.0732498794100005,0.0761951083642431,0.0820855662727283,
0.0879760241812134,0.0938664820896986,0.0997569399981838,0.102702168952426,
0.105647397906669),(0.,1.),.UNSPECIFIED.)
GEOMETRIC_REPRESENTATION_ITEM()
RATIONAL_B_SPLINE_SURFACE(((1.,0.707106781186543,1.),(1.,0.707106781186543,
1.),(1.,0.707106781186542,1.),(1.,0.707106781186543,1.),(1.,0.707106781186543,
1.),(1.,0.707106781186543,1.),(1.,0.707106781186543,1.),(1.,0.707106781186543,
1.),(1.,0.707106781186543,1.),(1.,0.707106781186543,1.),(1.,0.707106781186543,
1.),(1.,0.707106781186543,1.),(1.,0.707106781186543,1.),(1.,0.707106781186542,
1.),(1.,0.707106781186543,1.),(1.,0.707106781186543,1.)))
REPRESENTATION_ITEM('')
SURFACE()
);
#13=(
BOUNDED_SURFACE()
B_SPLINE_SURFACE(3,2,((#652,#653,#654),(#655,#656,#657),(#658,#659,#660),
(#661,#662,#663),(#664,#665,#666),(#667,#668,#669),(#670,#671,#672),(#673,
#674,#675),(#676,#677,#678),(#679,#680,#681),(#682,#683,#684),(#685,#686,
#687),(#688,#689,#690),(#691,#692,#693),(#694,#695,#696)),.UNSPECIFIED.,
 .F.,.F.,.F.)
B_SPLINE_SURFACE_WITH_KNOTS((4,1,1,1,1,1,1,1,1,1,1,1,4),(3,3),(0.0896762983268829,
0.0925995074808499,0.095522716634817,0.101369134942751,0.107215553250685,
0.113061971558619,0.118908389866553,0.124754808174487,0.127678017328454,
0.130601226482422,0.133524435636389,0.134986040213372,0.136447644790356),
(0.,1.),.UNSPECIFIED.)
GEOMETRIC_REPRESENTATION_ITEM()
RATIONAL_B_SPLINE_SURFACE(((1.,0.707106781186543,1.),(1.,0.707106781186543,
1.),(1.,0.707106781186543,1.),(1.,0.70710678118654,1.),(1.,0.707106781186544,
1.),(1.,0.70710678118654,1.),(1.,0.707106781186543,1.),(1.,0.707106781186542,
1.),(1.,0.707106781186543,1.),(1.,0.707106781186544,1.),(1.,0.707106781186542,
1.),(1.,0.707106781186543,1.),(1.,0.707106781186542,1.),(1.,0.707106781186543,
1.),(1.,0.707106781186543,1.)))
REPRESENTATION_ITEM('')
SURFACE()
);
#14=(
BOUNDED_SURFACE()
B_SPLINE_SURFACE(3,2,((#702,#703,#704),(#705,#706,#707),(#708,#709,#710),
(#711,#712,#713),(#714,#715,#716),(#717,#718,#719),(#720,#721,#722),(#723,
#724,#725),(#726,#727,#728),(#729,#730,#731),(#732,#733,#734),(#735,#736,
#737),(#738,#739,#740)),.UNSPECIFIED.,.F.,.F.,.F.)
B_SPLINE_SURFACE_WITH_KNOTS((4,1,1,1,1,1,1,1,1,1,4),(3,3),(0.0512298739126997,
0.0574914907497745,0.0606222991683119,0.0637531075868493,0.0668839160053867,
0.0700147244239241,0.0715801286331928,0.0731455328424615,0.0747109370517302,
0.0754936391563645,0.0762763412609989),(0.,1.),.UNSPECIFIED.)
GEOMETRIC_REPRESENTATION_ITEM()
RATIONAL_B_SPLINE_SURFACE(((1.,0.707106781186543,1.),(1.,0.707106781186543,
1.),(1.,0.707106781186543,1.),(1.,0.707106781186542,1.),(1.,0.707106781186544,
1.),(1.,0.707106781186542,1.),(1.,0.707106781186542,1.),(1.,0.707106781186543,
1.),(1.,0.707106781186541,1.),(1.,0.707106781186543,1.),(1.,0.707106781186542,
1.),(1.,0.707106781186543,1.),(1.,0.707106781186543,1.)))
REPRESENTATION_ITEM('')
SURFACE()
);
#15=(
BOUNDED_SURFACE()
B_SPLINE_SURFACE(3,2,((#758,#759,#760),(#761,#762,#763),(#764,#765,#766),
(#767,#768,#769),(#770,#771,#772),(#773,#774,#775),(#776,#777,#778),(#779,
#780,#781),(#782,#783,#784),(#785,#786,#787),(#788,#789,#790),(#791,#792,
#793),(#794,#795,#796)),.UNSPECIFIED.,.F.,.F.,.F.)
B_SPLINE_SURFACE_WITH_KNOTS((4,1,1,1,1,1,1,1,1,1,4),(3,3),(0.0512298739127008,
0.0574914907497753,0.0606222991683126,0.0637531075868498,0.0668839160053871,
0.0700147244239243,0.071580128633193,0.0731455328424616,0.0747109370517302,
0.0754936391563645,0.0762763412609989),(0.,1.),.UNSPECIFIED.)
GEOMETRIC_REPRESENTATION_ITEM()
RATIONAL_B_SPLINE_SURFACE(((1.,0.707106781186544,1.),(1.,0.707106781186544,
1.),(1.,0.707106781186541,1.),(1.,0.707106781186545,1.),(1.,0.707106781186541,
1.),(1.,0.707106781186543,1.),(1.,0.707106781186541,1.),(1.,0.707106781186542,
1.),(1.,0.707106781186541,1.),(1.,0.707106781186543,1.),(1.,0.707106781186542,
1.),(1.,0.707106781186543,1.),(1.,0.707106781186543,1.)))
REPRESENTATION_ITEM('')
SURFACE()
);
#16=TOROIDAL_SURFACE('',#343,0.001,0.001);
#17=CONICAL_SURFACE('',#336,0.0015,0.785398163397452);
#18=CONICAL_SURFACE('',#337,0.0015,0.785398163397452);
#19=CONICAL_SURFACE('',#338,0.0015,0.785398163397452);
#20=CYLINDRICAL_SURFACE('',#330,0.0015);
#21=CYLINDRICAL_SURFACE('',#332,0.0015);
#22=CYLINDRICAL_SURFACE('',#334,0.0015);
#23=CYLINDRICAL_SURFACE('',#339,0.001);
#24=CYLINDRICAL_SURFACE('',#341,0.002);
#25=CYLINDRICAL_SURFACE('',#344,0.001);
#26=CYLINDRICAL_SURFACE('',#345,0.001);
#27=CYLINDRICAL_SURFACE('',#346,0.001);
#28=CYLINDRICAL_SURFACE('',#347,0.001);
#29=CIRCLE('',#321,0.002);
#30=CIRCLE('',#322,0.0023);
#31=CIRCLE('',#323,0.0023);
#32=CIRCLE('',#324,0.0023);
#33=CIRCLE('',#326,0.001);
#34=CIRCLE('',#327,0.0015);
#35=CIRCLE('',#328,0.0015);
#36=CIRCLE('',#329,0.0015);
#37=CIRCLE('',#331,0.0015);
#38=CIRCLE('',#333,0.0015);
#39=CIRCLE('',#335,0.0015);
#40=CIRCLE('',#340,0.001);
#41=CIRCLE('',#342,0.002);
#42=B_SPLINE_CURVE_WITH_KNOTS('',3,(#419,#420,#421,#422,#423,#424,#425,
#426,#427),.UNSPECIFIED.,.F.,.F.,(4,1,1,1,1,1,4),(0.,0.00310390720207352,
0.00620781440414703,0.00931172160622055,0.0124156288082941,0.0186234432124411,
0.0248312576165881),.UNSPECIFIED.);
#43=B_SPLINE_CURVE_WITH_KNOTS('',3,(#431,#432,#433,#434,#435,#436,#437,
#438,#439),.UNSPECIFIED.,.F.,.F.,(4,1,1,1,1,1,4),(0.,0.00613120709302486,
0.0122624141860497,0.0153280177325622,0.0183936212790746,0.021459224825587,
0.0245248283720994),.UNSPECIFIED.);
#44=B_SPLINE_CURVE_WITH_KNOTS('',3,(#443,#444,#445,#446,#447,#448,#449,
#450,#451,#452,#453),.UNSPECIFIED.,.F.,.F.,(4,1,1,1,1,1,1,1,4),(0.,0.0057223407589233,
0.0114446815178466,0.0171670222767699,0.0228893630356932,0.0286117037946165,
0.0343340445535398,0.0400563853124631,0.0457787260713864),.UNSPECIFIED.);
#45=B_SPLINE_CURVE_WITH_KNOTS('',3,(#457,#458,#459,#460,#461,#462,#463,
#464,#465),.UNSPECIFIED.,.F.,.F.,(4,1,1,1,1,1,4),(0.,0.0056946796384641,
0.0113893592769282,0.0227787185538564,0.0284733981923205,0.0341680778307846,
0.0455574371077128),.UNSPECIFIED.);
#46=B_SPLINE_CURVE_WITH_KNOTS('',3,(#486,#487,#488,#489,#490,#491,#492,
#493,#494,#495,#496,#497,#498,#499,#500,#501,#502,#503,#504),
 .UNSPECIFIED.,.F.,.F.,(4,3,1,1,1,1,1,1,1,1,1,3,4),(-0.00184233957873226,
0.,0.125,0.25,0.375,0.4375,0.5,0.5625,0.625,0.75,0.875,1.,1.00128443280019),
 .UNSPECIFIED.);
#47=B_SPLINE_CURVE_WITH_KNOTS('',3,(#508,#509,#510,#511,#512,#513,#514,
#515,#516,#517,#518,#519,#520,#521,#522,#523,#524,#525,#526),
 .UNSPECIFIED.,.F.,.F.,(4,3,1,1,1,1,1,1,1,1,1,3,4),(-0.0020613340599753,
0.,0.125,0.25,0.375,0.4375,0.5,0.5625,0.625,0.75,0.875,1.,1.00128443280019),
 .UNSPECIFIED.);
#48=B_SPLINE_CURVE_WITH_KNOTS('',3,(#530,#531,#532,#533,#534,#535,#536,
#537,#538,#539,#540,#541,#542,#543,#544),.UNSPECIFIED.,.F.,.F.,(4,3,1,1,
1,1,1,3,4),(-0.0022219215118135,0.,0.25,0.375,0.5,0.625,0.75,1.,1.00213873063383),
 .UNSPECIFIED.);
#49=B_SPLINE_CURVE_WITH_KNOTS('',3,(#548,#549,#550,#551,#552,#553,#554,
#555,#556,#557,#558,#559,#560,#561,#562),.UNSPECIFIED.,.F.,.F.,(4,3,1,1,
1,1,1,3,4),(-0.00222192151178722,0.,0.25,0.375,0.5,0.625,0.75,1.,1.00213873063383),
 .UNSPECIFIED.);
#50=B_SPLINE_CURVE_WITH_KNOTS('',3,(#630,#631,#632,#633,#634),
 .UNSPECIFIED.,.F.,.F.,(4,1,4),(0.,0.000783763405591228,0.00156752681118246),
 .UNSPECIFIED.);
#51=B_SPLINE_CURVE_WITH_KNOTS('',3,(#635,#636,#637,#638,#639),
 .UNSPECIFIED.,.F.,.F.,(4,1,4),(0.,0.000788003378723899,0.0015760067574478),
 .UNSPECIFIED.);
#52=B_SPLINE_CURVE_WITH_KNOTS('',3,(#641,#642,#643,#644,#645),
 .UNSPECIFIED.,.F.,.F.,(4,1,4),(0.,0.000787988064844003,0.00157597612968801),
 .UNSPECIFIED.);
#53=B_SPLINE_CURVE_WITH_KNOTS('',3,(#647,#648,#649,#650,#651),
 .UNSPECIFIED.,.F.,.F.,(4,1,4),(0.,0.000783384156492754,0.00156676831298551),
 .UNSPECIFIED.);
#54=B_SPLINE_CURVE_WITH_KNOTS('',3,(#697,#698,#699,#700,#701),
 .UNSPECIFIED.,.F.,.F.,(4,1,4),(0.,0.000783763405591253,0.00156752681118251),
 .UNSPECIFIED.);
#55=B_SPLINE_CURVE_WITH_KNOTS('',3,(#741,#742,#743,#744,#745),
 .UNSPECIFIED.,.F.,.F.,(4,1,4),(0.,0.000783945775013448,0.0015678915500269),
 .UNSPECIFIED.);
#56=B_SPLINE_CURVE_WITH_KNOTS('',3,(#747,#748,#749,#750,#751),
 .UNSPECIFIED.,.F.,.F.,(4,1,4),(1.38777878078145E-17,0.000783384156492456,
0.0015667683129849),.UNSPECIFIED.);
#57=B_SPLINE_CURVE_WITH_KNOTS('',3,(#753,#754,#755,#756,#757),
 .UNSPECIFIED.,.F.,.F.,(4,1,4),(0.,0.000783945775013415,0.00156789155002683),
 .UNSPECIFIED.);
#58=ORIENTED_EDGE('',*,*,#132,.T.);
#59=ORIENTED_EDGE('',*,*,#133,.T.);
#60=ORIENTED_EDGE('',*,*,#134,.T.);
#61=ORIENTED_EDGE('',*,*,#135,.T.);
#62=ORIENTED_EDGE('',*,*,#136,.T.);
#63=ORIENTED_EDGE('',*,*,#137,.T.);
#64=ORIENTED_EDGE('',*,*,#138,.T.);
#65=ORIENTED_EDGE('',*,*,#139,.T.);
#66=ORIENTED_EDGE('',*,*,#140,.F.);
#67=ORIENTED_EDGE('',*,*,#141,.T.);
#68=ORIENTED_EDGE('',*,*,#142,.T.);
#69=ORIENTED_EDGE('',*,*,#143,.T.);
#70=ORIENTED_EDGE('',*,*,#144,.T.);
#71=ORIENTED_EDGE('',*,*,#145,.T.);
#72=ORIENTED_EDGE('',*,*,#146,.T.);
#73=ORIENTED_EDGE('',*,*,#147,.T.);
#74=ORIENTED_EDGE('',*,*,#148,.T.);
#75=ORIENTED_EDGE('',*,*,#149,.F.);
#76=ORIENTED_EDGE('',*,*,#150,.T.);
#77=ORIENTED_EDGE('',*,*,#151,.T.);
#78=ORIENTED_EDGE('',*,*,#152,.F.);
#79=ORIENTED_EDGE('',*,*,#153,.T.);
#80=ORIENTED_EDGE('',*,*,#154,.F.);
#81=ORIENTED_EDGE('',*,*,#155,.F.);
#82=ORIENTED_EDGE('',*,*,#156,.T.);
#83=ORIENTED_EDGE('',*,*,#147,.F.);
#84=ORIENTED_EDGE('',*,*,#157,.T.);
#85=ORIENTED_EDGE('',*,*,#146,.F.);
#86=ORIENTED_EDGE('',*,*,#158,.T.);
#87=ORIENTED_EDGE('',*,*,#145,.F.);
#88=ORIENTED_EDGE('',*,*,#141,.F.);
#89=ORIENTED_EDGE('',*,*,#156,.F.);
#90=ORIENTED_EDGE('',*,*,#142,.F.);
#91=ORIENTED_EDGE('',*,*,#157,.F.);
#92=ORIENTED_EDGE('',*,*,#143,.F.);
#93=ORIENTED_EDGE('',*,*,#158,.F.);
#94=ORIENTED_EDGE('',*,*,#144,.F.);
#95=ORIENTED_EDGE('',*,*,#159,.T.);
#96=ORIENTED_EDGE('',*,*,#160,.T.);
#97=ORIENTED_EDGE('',*,*,#140,.T.);
#98=ORIENTED_EDGE('',*,*,#160,.F.);
#99=ORIENTED_EDGE('',*,*,#159,.F.);
#100=ORIENTED_EDGE('',*,*,#161,.F.);
#101=ORIENTED_EDGE('',*,*,#151,.F.);
#102=ORIENTED_EDGE('',*,*,#162,.F.);
#103=ORIENTED_EDGE('',*,*,#137,.F.);
#104=ORIENTED_EDGE('',*,*,#162,.T.);
#105=ORIENTED_EDGE('',*,*,#150,.F.);
#106=ORIENTED_EDGE('',*,*,#163,.F.);
#107=ORIENTED_EDGE('',*,*,#138,.F.);
#108=ORIENTED_EDGE('',*,*,#161,.T.);
#109=ORIENTED_EDGE('',*,*,#136,.F.);
#110=ORIENTED_EDGE('',*,*,#164,.F.);
#111=ORIENTED_EDGE('',*,*,#152,.T.);
#112=ORIENTED_EDGE('',*,*,#163,.T.);
#113=ORIENTED_EDGE('',*,*,#149,.T.);
#114=ORIENTED_EDGE('',*,*,#165,.F.);
#115=ORIENTED_EDGE('',*,*,#139,.F.);
#116=ORIENTED_EDGE('',*,*,#164,.T.);
#117=ORIENTED_EDGE('',*,*,#135,.F.);
#118=ORIENTED_EDGE('',*,*,#166,.F.);
#119=ORIENTED_EDGE('',*,*,#153,.F.);
#120=ORIENTED_EDGE('',*,*,#165,.T.);
#121=ORIENTED_EDGE('',*,*,#148,.F.);
#122=ORIENTED_EDGE('',*,*,#167,.F.);
#123=ORIENTED_EDGE('',*,*,#132,.F.);
#124=ORIENTED_EDGE('',*,*,#166,.T.);
#125=ORIENTED_EDGE('',*,*,#134,.F.);
#126=ORIENTED_EDGE('',*,*,#168,.F.);
#127=ORIENTED_EDGE('',*,*,#154,.T.);
#128=ORIENTED_EDGE('',*,*,#167,.T.);
#129=ORIENTED_EDGE('',*,*,#155,.T.);
#130=ORIENTED_EDGE('',*,*,#168,.T.);
#131=ORIENTED_EDGE('',*,*,#133,.F.);
#132=EDGE_CURVE('',#169,#170,#198,.F.);
#133=EDGE_CURVE('',#170,#171,#42,.T.);
#134=EDGE_CURVE('',#171,#172,#199,.T.);
#135=EDGE_CURVE('',#172,#173,#43,.T.);
#136=EDGE_CURVE('',#173,#174,#200,.T.);
#137=EDGE_CURVE('',#174,#175,#44,.T.);
#138=EDGE_CURVE('',#175,#176,#201,.F.);
#139=EDGE_CURVE('',#176,#169,#45,.T.);
#140=EDGE_CURVE('',#177,#177,#29,.T.);
#141=EDGE_CURVE('',#178,#178,#30,.F.);
#142=EDGE_CURVE('',#179,#179,#31,.F.);
#143=EDGE_CURVE('',#180,#180,#32,.F.);
#144=EDGE_CURVE('',#181,#181,#33,.T.);
#145=EDGE_CURVE('',#182,#182,#34,.T.);
#146=EDGE_CURVE('',#183,#183,#35,.T.);
#147=EDGE_CURVE('',#184,#184,#36,.T.);
#148=EDGE_CURVE('',#185,#186,#202,.T.);
#149=EDGE_CURVE('',#187,#186,#46,.T.);
#150=EDGE_CURVE('',#187,#188,#203,.T.);
#151=EDGE_CURVE('',#188,#189,#47,.T.);
#152=EDGE_CURVE('',#190,#189,#204,.T.);
#153=EDGE_CURVE('',#190,#191,#48,.T.);
#154=EDGE_CURVE('',#192,#191,#205,.T.);
#155=EDGE_CURVE('',#185,#192,#49,.T.);
#156=EDGE_CURVE('',#193,#193,#37,.T.);
#157=EDGE_CURVE('',#194,#194,#38,.T.);
#158=EDGE_CURVE('',#195,#195,#39,.T.);
#159=EDGE_CURVE('',#196,#196,#40,.T.);
#160=EDGE_CURVE('',#197,#197,#41,.F.);
#161=EDGE_CURVE('',#189,#174,#50,.T.);
#162=EDGE_CURVE('',#175,#188,#51,.F.);
#163=EDGE_CURVE('',#176,#187,#52,.F.);
#164=EDGE_CURVE('',#190,#173,#53,.T.);
#165=EDGE_CURVE('',#169,#186,#54,.F.);
#166=EDGE_CURVE('',#191,#172,#55,.T.);
#167=EDGE_CURVE('',#170,#185,#56,.F.);
#168=EDGE_CURVE('',#192,#171,#57,.T.);
#169=VERTEX_POINT('',#417);
#170=VERTEX_POINT('',#418);
#171=VERTEX_POINT('',#428);
#172=VERTEX_POINT('',#430);
#173=VERTEX_POINT('',#440);
#174=VERTEX_POINT('',#442);
#175=VERTEX_POINT('',#454);
#176=VERTEX_POINT('',#456);
#177=VERTEX_POINT('',#467);
#178=VERTEX_POINT('',#469);
#179=VERTEX_POINT('',#471);
#180=VERTEX_POINT('',#473);
#181=VERTEX_POINT('',#476);
#182=VERTEX_POINT('',#478);
#183=VERTEX_POINT('',#480);
#184=VERTEX_POINT('',#482);
#185=VERTEX_POINT('',#484);
#186=VERTEX_POINT('',#485);
#187=VERTEX_POINT('',#505);
#188=VERTEX_POINT('',#507);
#189=VERTEX_POINT('',#527);
#190=VERTEX_POINT('',#529);
#191=VERTEX_POINT('',#545);
#192=VERTEX_POINT('',#547);
#193=VERTEX_POINT('',#565);
#194=VERTEX_POINT('',#568);
#195=VERTEX_POINT('',#571);
#196=VERTEX_POINT('',#577);
#197=VERTEX_POINT('',#580);
#198=LINE('',#416,#206);
#199=LINE('',#429,#207);
#200=LINE('',#441,#208);
#201=LINE('',#455,#209);
#202=LINE('',#483,#210);
#203=LINE('',#506,#211);
#204=LINE('',#528,#212);
#205=LINE('',#546,#213);
#206=VECTOR('',#352,1.);
#207=VECTOR('',#353,1.);
#208=VECTOR('',#354,1.);
#209=VECTOR('',#355,1.);
#210=VECTOR('',#374,1.);
#211=VECTOR('',#375,1.);
#212=VECTOR('',#376,1.);
#213=VECTOR('',#377,1.);
#214=EDGE_LOOP('',(#58,#59,#60,#61,#62,#63,#64,#65));
#215=EDGE_LOOP('',(#66));
#216=EDGE_LOOP('',(#67));
#217=EDGE_LOOP('',(#68));
#218=EDGE_LOOP('',(#69));
#219=EDGE_LOOP('',(#70));
#220=EDGE_LOOP('',(#71));
#221=EDGE_LOOP('',(#72));
#222=EDGE_LOOP('',(#73));
#223=EDGE_LOOP('',(#74,#75,#76,#77,#78,#79,#80,#81));
#224=EDGE_LOOP('',(#82));
#225=EDGE_LOOP('',(#83));
#226=EDGE_LOOP('',(#84));
#227=EDGE_LOOP('',(#85));
#228=EDGE_LOOP('',(#86));
#229=EDGE_LOOP('',(#87));
#230=EDGE_LOOP('',(#88));
#231=EDGE_LOOP('',(#89));
#232=EDGE_LOOP('',(#90));
#233=EDGE_LOOP('',(#91));
#234=EDGE_LOOP('',(#92));
#235=EDGE_LOOP('',(#93));
#236=EDGE_LOOP('',(#94));
#237=EDGE_LOOP('',(#95));
#238=EDGE_LOOP('',(#96));
#239=EDGE_LOOP('',(#97));
#240=EDGE_LOOP('',(#98));
#241=EDGE_LOOP('',(#99));
#242=EDGE_LOOP('',(#100,#101,#102,#103));
#243=EDGE_LOOP('',(#104,#105,#106,#107));
#244=EDGE_LOOP('',(#108,#109,#110,#111));
#245=EDGE_LOOP('',(#112,#113,#114,#115));
#246=EDGE_LOOP('',(#116,#117,#118,#119));
#247=EDGE_LOOP('',(#120,#121,#122,#123));
#248=EDGE_LOOP('',(#124,#125,#126,#127));
#249=EDGE_LOOP('',(#128,#129,#130,#131));
#250=FACE_BOUND('',#214,.T.);
#251=FACE_BOUND('',#215,.T.);
#252=FACE_BOUND('',#216,.T.);
#253=FACE_BOUND('',#217,.T.);
#254=FACE_BOUND('',#218,.T.);
#255=FACE_BOUND('',#219,.T.);
#256=FACE_BOUND('',#220,.T.);
#257=FACE_BOUND('',#221,.T.);
#258=FACE_BOUND('',#222,.T.);
#259=FACE_BOUND('',#223,.T.);
#260=FACE_BOUND('',#224,.T.);
#261=FACE_BOUND('',#225,.T.);
#262=FACE_BOUND('',#226,.T.);
#263=FACE_BOUND('',#227,.T.);
#264=FACE_BOUND('',#228,.T.);
#265=FACE_BOUND('',#229,.T.);
#266=FACE_BOUND('',#230,.T.);
#267=FACE_BOUND('',#231,.T.);
#268=FACE_BOUND('',#232,.T.);
#269=FACE_BOUND('',#233,.T.);
#270=FACE_BOUND('',#234,.T.);
#271=FACE_BOUND('',#235,.T.);
#272=FACE_BOUND('',#236,.T.);
#273=FACE_BOUND('',#237,.T.);
#274=FACE_BOUND('',#238,.T.);
#275=FACE_BOUND('',#239,.T.);
#276=FACE_BOUND('',#240,.T.);
#277=FACE_BOUND('',#241,.T.);
#278=FACE_BOUND('',#242,.T.);
#279=FACE_BOUND('',#243,.T.);
#280=FACE_BOUND('',#244,.T.);
#281=FACE_BOUND('',#245,.T.);
#282=FACE_BOUND('',#246,.T.);
#283=FACE_BOUND('',#247,.T.);
#284=FACE_BOUND('',#248,.T.);
#285=FACE_BOUND('',#249,.T.);
#286=PLANE('',#320);
#287=PLANE('',#325);
#288=ADVANCED_FACE('',(#250,#251,#252,#253,#254),#286,.T.);
#289=ADVANCED_FACE('',(#255,#256,#257,#258,#259),#287,.F.);
#290=ADVANCED_FACE('',(#260,#261),#20,.F.);
#291=ADVANCED_FACE('',(#262,#263),#21,.F.);
#292=ADVANCED_FACE('',(#264,#265),#22,.F.);
#293=ADVANCED_FACE('',(#266,#267),#17,.F.);
#294=ADVANCED_FACE('',(#268,#269),#18,.F.);
#295=ADVANCED_FACE('',(#270,#271),#19,.F.);
#296=ADVANCED_FACE('',(#272,#273),#23,.F.);
#297=ADVANCED_FACE('',(#274,#275),#24,.T.);
#298=ADVANCED_FACE('',(#276,#277),#16,.T.);
#299=ADVANCED_FACE('',(#278),#12,.T.);
#300=ADVANCED_FACE('',(#279),#25,.T.);
#301=ADVANCED_FACE('',(#280),#26,.T.);
#302=ADVANCED_FACE('',(#281),#13,.T.);
#303=ADVANCED_FACE('',(#282),#14,.T.);
#304=ADVANCED_FACE('',(#283),#27,.T.);
#305=ADVANCED_FACE('',(#284),#28,.T.);
#306=ADVANCED_FACE('',(#285),#15,.T.);
#307=CLOSED_SHELL('',(#288,#289,#290,#291,#292,#293,#294,#295,#296,#297,
#298,#299,#300,#301,#302,#303,#304,#305,#306));
#308=STYLED_ITEM('',(#309),#316);
#309=PRESENTATION_STYLE_ASSIGNMENT((#310));
#310=SURFACE_STYLE_USAGE(.BOTH.,#311);
#311=SURFACE_SIDE_STYLE('',(#312));
#312=SURFACE_STYLE_FILL_AREA(#313);
#313=FILL_AREA_STYLE('',(#314));
#314=FILL_AREA_STYLE_COLOUR('',#315);
#315=COLOUR_RGB('',0.972549019607843,0.529411764705882,0.00392156862745098);
#316=MANIFOLD_SOLID_BREP('Pokrov LEDring',#307);
#317=SHAPE_DEFINITION_REPRESENTATION(#803,#318);
#318=SHAPE_REPRESENTATION('Pokrov LEDring',(#319),#798);
#319=AXIS2_PLACEMENT_3D('',#414,#348,#349);
#320=AXIS2_PLACEMENT_3D('',#415,#350,#351);
#321=AXIS2_PLACEMENT_3D('',#466,#356,#357);
#322=AXIS2_PLACEMENT_3D('',#468,#358,#359);
#323=AXIS2_PLACEMENT_3D('',#470,#360,#361);
#324=AXIS2_PLACEMENT_3D('',#472,#362,#363);
#325=AXIS2_PLACEMENT_3D('',#474,#364,#365);
#326=AXIS2_PLACEMENT_3D('',#475,#366,#367);
#327=AXIS2_PLACEMENT_3D('',#477,#368,#369);
#328=AXIS2_PLACEMENT_3D('',#479,#370,#371);
#329=AXIS2_PLACEMENT_3D('',#481,#372,#373);
#330=AXIS2_PLACEMENT_3D('',#563,#378,#379);
#331=AXIS2_PLACEMENT_3D('',#564,#380,#381);
#332=AXIS2_PLACEMENT_3D('',#566,#382,#383);
#333=AXIS2_PLACEMENT_3D('',#567,#384,#385);
#334=AXIS2_PLACEMENT_3D('',#569,#386,#387);
#335=AXIS2_PLACEMENT_3D('',#570,#388,#389);
#336=AXIS2_PLACEMENT_3D('',#572,#390,#391);
#337=AXIS2_PLACEMENT_3D('',#573,#392,#393);
#338=AXIS2_PLACEMENT_3D('',#574,#394,#395);
#339=AXIS2_PLACEMENT_3D('',#575,#396,#397);
#340=AXIS2_PLACEMENT_3D('',#576,#398,#399);
#341=AXIS2_PLACEMENT_3D('',#578,#400,#401);
#342=AXIS2_PLACEMENT_3D('',#579,#402,#403);
#343=AXIS2_PLACEMENT_3D('',#581,#404,#405);
#344=AXIS2_PLACEMENT_3D('',#640,#406,#407);
#345=AXIS2_PLACEMENT_3D('',#646,#408,#409);
#346=AXIS2_PLACEMENT_3D('',#746,#410,#411);
#347=AXIS2_PLACEMENT_3D('',#752,#412,#413);
#348=DIRECTION('',(0.,0.,1.));
#349=DIRECTION('',(1.,0.,0.));
#350=DIRECTION('',(0.,0.,1.));
#351=DIRECTION('',(1.,0.,0.));
#352=DIRECTION('',(-0.000171057130579608,0.999999985369729,0.));
#353=DIRECTION('',(1.,0.,0.));
#354=DIRECTION('',(0.000171057130579623,0.999999985369729,0.));
#355=DIRECTION('',(0.999999940031114,0.000346320325552585,0.));
#356=DIRECTION('',(0.,0.,1.));
#357=DIRECTION('',(1.,0.,0.));
#358=DIRECTION('',(0.,0.,1.));
#359=DIRECTION('',(1.,0.,0.));
#360=DIRECTION('',(0.,0.,1.));
#361=DIRECTION('',(1.,0.,0.));
#362=DIRECTION('',(0.,0.,1.));
#363=DIRECTION('',(1.,0.,0.));
#364=DIRECTION('',(0.,0.,1.));
#365=DIRECTION('',(1.,0.,0.));
#366=DIRECTION('',(0.,0.,1.));
#367=DIRECTION('',(1.,0.,0.));
#368=DIRECTION('',(0.,0.,1.));
#369=DIRECTION('',(1.,0.,0.));
#370=DIRECTION('',(0.,0.,1.));
#371=DIRECTION('',(1.,0.,0.));
#372=DIRECTION('',(0.,0.,1.));
#373=DIRECTION('',(1.,0.,0.));
#374=DIRECTION('',(-0.000171057130579608,0.999999985369729,0.));
#375=DIRECTION('',(0.999999940031114,0.000346320325552585,0.));
#376=DIRECTION('',(0.000171057130579623,0.999999985369729,0.));
#377=DIRECTION('',(1.,0.,0.));
#378=DIRECTION('',(0.,0.,1.));
#379=DIRECTION('',(1.,0.,0.));
#380=DIRECTION('',(0.,0.,1.));
#381=DIRECTION('',(1.,0.,0.));
#382=DIRECTION('',(0.,0.,1.));
#383=DIRECTION('',(1.,0.,0.));
#384=DIRECTION('',(0.,0.,1.));
#385=DIRECTION('',(1.,0.,0.));
#386=DIRECTION('',(0.,0.,1.));
#387=DIRECTION('',(1.,0.,0.));
#388=DIRECTION('',(0.,0.,1.));
#389=DIRECTION('',(1.,0.,0.));
#390=DIRECTION('',(0.,0.,1.));
#391=DIRECTION('',(1.,0.,0.));
#392=DIRECTION('',(0.,0.,1.));
#393=DIRECTION('',(1.,0.,0.));
#394=DIRECTION('',(0.,0.,1.));
#395=DIRECTION('',(1.,0.,0.));
#396=DIRECTION('',(0.,0.,1.));
#397=DIRECTION('',(1.,0.,0.));
#398=DIRECTION('',(0.,0.,1.));
#399=DIRECTION('',(1.,0.,0.));
#400=DIRECTION('',(0.,0.,-1.));
#401=DIRECTION('',(-1.,0.,0.));
#402=DIRECTION('',(0.,0.,1.));
#403=DIRECTION('',(1.,0.,0.));
#404=DIRECTION('',(0.,0.,1.));
#405=DIRECTION('',(1.,0.,0.));
#406=DIRECTION('',(0.999999940031114,0.000346320325552585,0.));
#407=DIRECTION('',(-0.000346320325552585,0.999999940031114,0.));
#408=DIRECTION('',(-0.000171057130579623,-0.999999985369729,0.));
#409=DIRECTION('',(0.999999985369729,-0.000171057130579623,0.));
#410=DIRECTION('',(-0.000171057130579608,0.999999985369729,0.));
#411=DIRECTION('',(-0.999999985369729,-0.000171057130579608,0.));
#412=DIRECTION('',(-1.,0.,0.));
#413=DIRECTION('',(0.,0.,1.));
#414=CARTESIAN_POINT('',(0.,0.,0.));
#415=CARTESIAN_POINT('',(1.04083408558608E-16,0.0031479336447151,0.089));
#416=CARTESIAN_POINT('',(-0.0315004670856747,0.00314254526512466,0.089));
#417=CARTESIAN_POINT('',(-0.0314994899814366,-0.00256960611098665,0.089));
#418=CARTESIAN_POINT('',(-0.031497509321527,-0.0141485439423686,0.089));
#419=CARTESIAN_POINT('',(-0.0314975093215271,-0.0141485439423686,0.089));
#420=CARTESIAN_POINT('',(-0.0312718495436778,-0.0151591242947957,0.089));
#421=CARTESIAN_POINT('',(-0.0305297846154746,-0.0170783716741534,0.089));
#422=CARTESIAN_POINT('',(-0.0287343527654204,-0.0196086031948653,0.089));
#423=CARTESIAN_POINT('',(-0.0265186191318646,-0.0216951825851185,0.089));
#424=CARTESIAN_POINT('',(-0.0230880004786629,-0.0239716979859018,0.089));
#425=CARTESIAN_POINT('',(-0.0183452884534175,-0.0258370301213924,0.089));
#426=CARTESIAN_POINT('',(-0.0143789361403001,-0.0268639177139043,0.089));
#427=CARTESIAN_POINT('',(-0.012393952194913,-0.0273520803537415,0.089));
#428=CARTESIAN_POINT('',(-0.012393952194913,-0.0273520803537415,0.089));
#429=CARTESIAN_POINT('',(0.0125150165768341,-0.0273520803537415,0.089));
#430=CARTESIAN_POINT('',(0.012393952194913,-0.0273520803537415,0.089));
#431=CARTESIAN_POINT('',(0.012393952194913,-0.0273520803537415,0.089));
#432=CARTESIAN_POINT('',(0.0143789361403001,-0.0268639177139043,0.089));
#433=CARTESIAN_POINT('',(0.0183452884534175,-0.0258370301213924,0.089));
#434=CARTESIAN_POINT('',(0.023088000478663,-0.0239716979859017,0.089));
#435=CARTESIAN_POINT('',(0.0265186191318646,-0.0216951825851185,0.089));
#436=CARTESIAN_POINT('',(0.0287343527654204,-0.0196086031948652,0.089));
#437=CARTESIAN_POINT('',(0.0305297846154746,-0.0170783716741533,0.089));
#438=CARTESIAN_POINT('',(0.0312718495436778,-0.0151591242947957,0.089));
#439=CARTESIAN_POINT('',(0.031497509321527,-0.0141485439423685,0.089));
#440=CARTESIAN_POINT('',(0.031497509321527,-0.0141485439423685,0.089));
#441=CARTESIAN_POINT('',(0.0314995100089192,-0.00245252544771099,0.089));
#442=CARTESIAN_POINT('',(0.0314994899814366,-0.00256960611098665,0.089));
#443=CARTESIAN_POINT('',(0.0314994899814366,-0.00256960611098665,0.089));
#444=CARTESIAN_POINT('',(0.0310557014719423,-0.000705930708331514,0.089));
#445=CARTESIAN_POINT('',(0.0299657569083018,0.00294965935987683,0.089));
#446=CARTESIAN_POINT('',(0.0277344038475738,0.00824926581067213,0.089));
#447=CARTESIAN_POINT('',(0.0250439068081256,0.0133024348524215,0.089));
#448=CARTESIAN_POINT('',(0.0220604456305939,0.0182076142881388,0.089));
#449=CARTESIAN_POINT('',(0.0188416307097814,0.0229306628233712,0.089));
#450=CARTESIAN_POINT('',(0.0151241150670619,0.0273293354188622,0.089));
#451=CARTESIAN_POINT('',(0.0108223711240481,0.0310780092455857,0.089));
#452=CARTESIAN_POINT('',(0.00746414990815698,0.0329398916386154,0.089));
#453=CARTESIAN_POINT('',(0.00566884594775363,0.0336478823334855,0.089));
#454=CARTESIAN_POINT('',(0.00566884594775362,0.0336478823334855,0.089));
#455=CARTESIAN_POINT('',(-1.0562071616962E-5,0.0336459154389333,0.089));
#456=CARTESIAN_POINT('',(-0.00567880443052689,0.0336439524112765,0.089));
#457=CARTESIAN_POINT('',(-0.00567880443052689,0.0336439524112765,0.089));
#458=CARTESIAN_POINT('',(-0.00747694785380719,0.0329338579018024,0.089));
#459=CARTESIAN_POINT('',(-0.0107987482698502,0.031096802511687,0.089));
#460=CARTESIAN_POINT('',(-0.0166216520457793,0.0260181304421201,0.089));
#461=CARTESIAN_POINT('',(-0.0210678572598115,0.0198395006024608,0.089));
#462=CARTESIAN_POINT('',(-0.0250431346600103,0.0133024524076348,0.089));
#463=CARTESIAN_POINT('',(-0.0286275615196724,0.0065791618508406,0.089));
#464=CARTESIAN_POINT('',(-0.03061155536703,0.0011592464046435,0.089));
#465=CARTESIAN_POINT('',(-0.0314994899814366,-0.00256960611098666,0.089));
#466=CARTESIAN_POINT('',(0.,1.22464679914735E-19,0.089));
#467=CARTESIAN_POINT('',(0.002,1.22464679914735E-19,0.089));
#468=CARTESIAN_POINT('',(0.006,-0.006,0.089));
#469=CARTESIAN_POINT('',(0.0083,-0.006,0.089));
#470=CARTESIAN_POINT('',(-0.006,-0.006,0.089));
#471=CARTESIAN_POINT('',(-0.0037,-0.006,0.089));
#472=CARTESIAN_POINT('',(-2.16840434497101E-19,0.006,0.089));
#473=CARTESIAN_POINT('',(0.0023,0.006,0.089));
#474=CARTESIAN_POINT('',(1.04083408558608E-16,0.0031479336447151,0.088));
#475=CARTESIAN_POINT('',(0.,6.12323399573677E-20,0.088));
#476=CARTESIAN_POINT('',(0.001,6.12323399573677E-20,0.088));
#477=CARTESIAN_POINT('',(-2.16840434497101E-19,0.006,0.088));
#478=CARTESIAN_POINT('',(0.0015,0.006,0.088));
#479=CARTESIAN_POINT('',(-0.006,-0.006,0.088));
#480=CARTESIAN_POINT('',(-0.0045,-0.006,0.088));
#481=CARTESIAN_POINT('',(0.006,-0.006,0.088));
#482=CARTESIAN_POINT('',(0.0075,-0.006,0.088));
#483=CARTESIAN_POINT('',(-0.0324985003907981,-0.0083548385125051,0.088));
#484=CARTESIAN_POINT('',(-0.032497490787307,-0.0142569805201686,0.088));
#485=CARTESIAN_POINT('',(-0.032499509994289,-0.0024526965048416,0.088));
#486=CARTESIAN_POINT('',(-0.00586766279710314,0.0346438870657505,0.088));
#487=CARTESIAN_POINT('',(-0.00589685014725042,0.0346325002301051,0.088));
#488=CARTESIAN_POINT('',(-0.00592603749739771,0.0346211133944597,0.088));
#489=CARTESIAN_POINT('',(-0.00595522484754499,0.0346097265588143,0.088));
#490=CARTESIAN_POINT('',(-0.00793554313985519,0.0338371466978026,0.088));
#491=CARTESIAN_POINT('',(-0.0115769445407112,0.0317994762058759,0.088));
#492=CARTESIAN_POINT('',(-0.0162002241229718,0.0276791460666737,0.088));
#493=CARTESIAN_POINT('',(-0.0194682451831973,0.0236933787415456,0.088));
#494=CARTESIAN_POINT('',(-0.0218004952610958,0.0203693190707361,0.088));
#495=CARTESIAN_POINT('',(-0.0234245893030633,0.0178554139041286,0.088));
#496=CARTESIAN_POINT('',(-0.0249423940604984,0.0153758749102519,0.088));
#497=CARTESIAN_POINT('',(-0.026833796206853,0.0121048724391589,0.088));
#498=CARTESIAN_POINT('',(-0.0289340728269392,0.00802605195403586,0.088));
#499=CARTESIAN_POINT('',(-0.0309992331848152,0.00299546104139023,0.088));
#500=CARTESIAN_POINT('',(-0.0320487266834351,-0.000550170627596122,0.088));
#501=CARTESIAN_POINT('',(-0.0324860295274923,-0.00239580234682743,0.088));
#502=CARTESIAN_POINT('',(-0.0324905230164245,-0.00241476706616548,0.088));
#503=CARTESIAN_POINT('',(-0.0324950165053568,-0.00243373178550355,0.088));
#504=CARTESIAN_POINT('',(-0.032499509994289,-0.0024526965048416,0.088));
#505=CARTESIAN_POINT('',(-0.00586766279710314,0.0346438870657505,0.088));
#506=CARTESIAN_POINT('',(-5.20414532545347E-6,0.034645917354461,0.088));
#507=CARTESIAN_POINT('',(0.00585725450645223,0.0346479476431716,0.088));
#508=CARTESIAN_POINT('',(0.00585725450645224,0.0346479476431716,0.088));
#509=CARTESIAN_POINT('',(0.00588991128681649,0.0346352072817192,0.088));
#510=CARTESIAN_POINT('',(0.00592256806718073,0.0346224669202667,0.088));
#511=CARTESIAN_POINT('',(0.00595522484754498,0.0346097265588143,0.088));
#512=CARTESIAN_POINT('',(0.00793554313985518,0.0338371466978026,0.088));
#513=CARTESIAN_POINT('',(0.0115769445407112,0.0317994762058759,0.088));
#514=CARTESIAN_POINT('',(0.0162002241229718,0.0276791460666737,0.088));
#515=CARTESIAN_POINT('',(0.0194682451831973,0.0236933787415456,0.088));
#516=CARTESIAN_POINT('',(0.0218004952610958,0.0203693190707361,0.088));
#517=CARTESIAN_POINT('',(0.0234245893030633,0.0178554139041286,0.088));
#518=CARTESIAN_POINT('',(0.0249423940604984,0.0153758749102519,0.088));
#519=CARTESIAN_POINT('',(0.026833796206853,0.0121048724391589,0.088));
#520=CARTESIAN_POINT('',(0.0289340728269392,0.00802605195403587,0.088));
#521=CARTESIAN_POINT('',(0.0309992331848152,0.00299546104139023,0.088));
#522=CARTESIAN_POINT('',(0.0320487266834351,-0.000550170627596113,0.088));
#523=CARTESIAN_POINT('',(0.0324860295274923,-0.00239580234682743,0.088));
#524=CARTESIAN_POINT('',(0.0324905230164245,-0.00241476706616547,0.088));
#525=CARTESIAN_POINT('',(0.0324950165053568,-0.00243373178550353,0.088));
#526=CARTESIAN_POINT('',(0.032499509994289,-0.00245269650484157,0.088));
#527=CARTESIAN_POINT('',(0.032499509994289,-0.00245269650484157,0.088));
#528=CARTESIAN_POINT('',(0.0324985003907981,-0.00835483851250459,0.088));
#529=CARTESIAN_POINT('',(0.0324974907873072,-0.0142569805201676,0.088));
#530=CARTESIAN_POINT('',(0.0324974907873071,-0.014256980520168,0.088));
#531=CARTESIAN_POINT('',(0.0324936706533387,-0.0142745072442739,0.088));
#532=CARTESIAN_POINT('',(0.0324898505193702,-0.0142920339683798,0.088));
#533=CARTESIAN_POINT('',(0.0324860303854019,-0.0143095606924858,0.088));
#534=CARTESIAN_POINT('',(0.0320562071504104,-0.0162815840079748,0.088));
#535=CARTESIAN_POINT('',(0.0306423022514676,-0.0190075282083496,0.088));
#536=CARTESIAN_POINT('',(0.0277358548955702,-0.0219886466904775,0.088));
#537=CARTESIAN_POINT('',(0.0251645381337399,-0.023854076419606,0.088));
#538=CARTESIAN_POINT('',(0.0223155129734639,-0.0253264728926527,0.088));
#539=CARTESIAN_POINT('',(0.0182115050637562,-0.0269009842421663,0.088));
#540=CARTESIAN_POINT('',(0.0148636625847258,-0.0277751000894664,0.088));
#541=CARTESIAN_POINT('',(0.012573785734053,-0.0283376428251614,0.088));
#542=CARTESIAN_POINT('',(0.01255419601498,-0.0283424553346881,0.088));
#543=CARTESIAN_POINT('',(0.0125346062959071,-0.0283472678442147,0.088));
#544=CARTESIAN_POINT('',(0.0125150165768341,-0.0283520803537414,0.088));
#545=CARTESIAN_POINT('',(0.0125150165768341,-0.0283520803537414,0.088));
#546=CARTESIAN_POINT('',(6.93889390390723E-18,-0.0283520803537414,0.088));
#547=CARTESIAN_POINT('',(-0.0125150165768341,-0.0283520803537414,0.088));
#548=CARTESIAN_POINT('',(-0.032497490787307,-0.0142569805201686,0.088));
#549=CARTESIAN_POINT('',(-0.0324936706533386,-0.0142745072442743,0.088));
#550=CARTESIAN_POINT('',(-0.0324898505193702,-0.0142920339683801,0.088));
#551=CARTESIAN_POINT('',(-0.0324860303854019,-0.0143095606924858,0.088));
#552=CARTESIAN_POINT('',(-0.0320562071504104,-0.0162815840079748,0.088));
#553=CARTESIAN_POINT('',(-0.0306423022514676,-0.0190075282083496,0.088));
#554=CARTESIAN_POINT('',(-0.0277358548955702,-0.0219886466904775,0.088));
#555=CARTESIAN_POINT('',(-0.0251645381337399,-0.023854076419606,0.088));
#556=CARTESIAN_POINT('',(-0.0223155129734639,-0.0253264728926527,0.088));
#557=CARTESIAN_POINT('',(-0.0182115050637561,-0.0269009842421663,0.088));
#558=CARTESIAN_POINT('',(-0.0148636625847258,-0.0277751000894664,0.088));
#559=CARTESIAN_POINT('',(-0.012573785734053,-0.0283376428251614,0.088));
#560=CARTESIAN_POINT('',(-0.01255419601498,-0.0283424553346881,0.088));
#561=CARTESIAN_POINT('',(-0.0125346062959071,-0.0283472678442147,0.088));
#562=CARTESIAN_POINT('',(-0.0125150165768341,-0.0283520803537414,0.088));
#563=CARTESIAN_POINT('',(0.006,-0.006,0.064));
#564=CARTESIAN_POINT('',(0.006,-0.006,0.0882));
#565=CARTESIAN_POINT('',(0.0075,-0.006,0.0882));
#566=CARTESIAN_POINT('',(-0.006,-0.006,0.064));
#567=CARTESIAN_POINT('',(-0.006,-0.006,0.0882));
#568=CARTESIAN_POINT('',(-0.0045,-0.006,0.0882));
#569=CARTESIAN_POINT('',(-2.16840434497101E-19,0.006,0.064));
#570=CARTESIAN_POINT('',(-2.16840434497101E-19,0.006,0.0882));
#571=CARTESIAN_POINT('',(0.0015,0.006,0.0882));
#572=CARTESIAN_POINT('',(0.006,-0.006,0.0882));
#573=CARTESIAN_POINT('',(-0.006,-0.006,0.0882));
#574=CARTESIAN_POINT('',(-2.16840434497101E-19,0.006,0.0882));
#575=CARTESIAN_POINT('',(0.,6.12323399573677E-20,0.0862));
#576=CARTESIAN_POINT('',(0.,6.12323399573677E-20,0.094));
#577=CARTESIAN_POINT('',(0.001,6.12323399573677E-20,0.094));
#578=CARTESIAN_POINT('',(0.,1.22464679914735E-19,0.094));
#579=CARTESIAN_POINT('',(0.,1.22464679914735E-19,0.093));
#580=CARTESIAN_POINT('',(0.002,1.22464679914735E-19,0.093));
#581=CARTESIAN_POINT('',(0.,1.22464679914735E-19,0.093));
#582=CARTESIAN_POINT('',(0.00523352186952248,0.0338178777768324,0.089));
#583=CARTESIAN_POINT('',(0.00559697156461279,0.0347494916019439,0.089));
#584=CARTESIAN_POINT('',(0.00559697156461279,0.0347494916019439,0.088));
#585=CARTESIAN_POINT('',(0.00569082453816603,0.033639470682601,0.089));
#586=CARTESIAN_POINT('',(0.00605427423325799,0.034571084507715,0.089));
#587=CARTESIAN_POINT('',(0.00605427423325686,0.0345710845077138,0.088));
#588=CARTESIAN_POINT('',(0.00660277279865265,0.0332751494470358,0.089));
#589=CARTESIAN_POINT('',(0.00701291342393196,0.0341881555407625,0.089));
#590=CARTESIAN_POINT('',(0.00701291342393246,0.0341881555407629,0.088));
#591=CARTESIAN_POINT('',(0.00837157205908577,0.0324124221782571,0.089));
#592=CARTESIAN_POINT('',(0.00885417784180279,0.0332897127619367,0.089));
#593=CARTESIAN_POINT('',(0.00885417784180249,0.0332897127619364,0.088));
#594=CARTESIAN_POINT('',(0.0104434166889024,0.0311600300060545,0.089));
#595=CARTESIAN_POINT('',(0.0110102182542444,0.0319864110893076,0.089));
#596=CARTESIAN_POINT('',(0.0110102182542445,0.0319864110893077,0.088));
#597=CARTESIAN_POINT('',(0.012743403604761,0.0294013068099035,0.089));
#598=CARTESIAN_POINT('',(0.013390197278292,0.0301658474859277,0.089));
#599=CARTESIAN_POINT('',(0.013390197278292,0.0301658474859277,0.088));
#600=CARTESIAN_POINT('',(0.0148825503352728,0.0274219669017209,0.089));
#601=CARTESIAN_POINT('',(0.0155930666590966,0.0281271613502292,0.089));
#602=CARTESIAN_POINT('',(0.0155930666590966,0.0281271613502292,0.088));
#603=CARTESIAN_POINT('',(0.0168725690671567,0.0252604887811622,0.089));
#604=CARTESIAN_POINT('',(0.0176320202438652,0.0259121339535435,0.089));
#605=CARTESIAN_POINT('',(0.0176320202438652,0.0259121339535434,0.088));
#606=CARTESIAN_POINT('',(0.0193120559067997,0.0222373567012513,0.089));
#607=CARTESIAN_POINT('',(0.020120282423705,0.0228281224667778,0.089));
#608=CARTESIAN_POINT('',(0.020120282423705,0.0228281224667777,0.088));
#609=CARTESIAN_POINT('',(0.0220560854998007,0.0182185757796729,0.089));
#610=CARTESIAN_POINT('',(0.0229015679665137,0.0187533661436468,0.089));
#611=CARTESIAN_POINT('',(0.0229015679665137,0.0187533661436468,0.088));
#612=CARTESIAN_POINT('',(0.025094535460043,0.0132185186650516,0.089));
#613=CARTESIAN_POINT('',(0.0259603608307959,0.0137196701239414,0.089));
#614=CARTESIAN_POINT('',(0.0259603608307958,0.0137196701239413,0.088));
#615=CARTESIAN_POINT('',(0.0278301426310412,0.00805892329759537,0.089));
#616=CARTESIAN_POINT('',(0.0287342112087421,0.00849041392312216,0.089));
#617=CARTESIAN_POINT('',(0.0287342112087425,0.00849041392312224,0.088));
#618=CARTESIAN_POINT('',(0.0297016694904212,0.00354798530367493,0.089));
#619=CARTESIAN_POINT('',(0.0306402882151084,0.00389522916388429,0.089));
#620=CARTESIAN_POINT('',(0.0306402882151071,0.00389522916388404,0.088));
#621=CARTESIAN_POINT('',(0.030887247555093,-0.000134303253761353,0.089));
#622=CARTESIAN_POINT('',(0.0318469115393206,0.000149924161942126,0.089));
#623=CARTESIAN_POINT('',(0.0318469115393228,0.000149924161942542,0.088));
#624=CARTESIAN_POINT('',(0.0313667650667987,-0.00200930009549565,0.089));
#625=CARTESIAN_POINT('',(0.0323398241217859,-0.00177874408166635,0.089));
#626=CARTESIAN_POINT('',(0.032339824121781,-0.00177874408166728,0.088));
#627=CARTESIAN_POINT('',(0.0315899723913538,-0.00295134409032848,0.089));
#628=CARTESIAN_POINT('',(0.0325630314463385,-0.00272078807650018,0.089));
#629=CARTESIAN_POINT('',(0.0325630314463385,-0.00272078807650018,0.088));
#630=CARTESIAN_POINT('',(0.032499509994289,-0.00245269650484157,0.088));
#631=CARTESIAN_POINT('',(0.032499509994289,-0.00245269650484157,0.0882650264853093));
#632=CARTESIAN_POINT('',(0.0322820505526425,-0.00247809014009725,0.0887836288963847));
#633=CARTESIAN_POINT('',(0.0317589700864908,-0.00253916210773473,0.0890000000000001));
#634=CARTESIAN_POINT('',(0.0314994899814364,-0.0025696061109866,0.089));
#635=CARTESIAN_POINT('',(0.00585725450645223,0.0346479476431717,0.088));
#636=CARTESIAN_POINT('',(0.00585725450645223,0.0346479476431717,0.088266477148278));
#637=CARTESIAN_POINT('',(0.00581575991127577,0.0344273853281092,0.0887866910643613));
#638=CARTESIAN_POINT('',(0.00571784004400728,0.0339059437566839,0.089));
#639=CARTESIAN_POINT('',(0.00566884594775365,0.0336478823334854,0.089));
#640=CARTESIAN_POINT('',(-4.85782499990088E-6,0.03364591741443,0.088));
#641=CARTESIAN_POINT('',(-0.00586766279710314,0.0346438870657505,0.088));
#642=CARTESIAN_POINT('',(-0.00586766279710314,0.0346438870657505,0.0882664718644331));
#643=CARTESIAN_POINT('',(-0.00582612226885136,0.034423361411484,0.088786685686033));
#644=CARTESIAN_POINT('',(-0.00572794803682798,0.0339019802101756,0.089));
#645=CARTESIAN_POINT('',(-0.0056788044305269,0.0336439524112766,0.089));
#646=CARTESIAN_POINT('',(0.0315004670856747,0.00314254526512466,0.088));
#647=CARTESIAN_POINT('',(0.0324974907873071,-0.0142569805201678,0.088));
#648=CARTESIAN_POINT('',(0.0324974907873071,-0.0142569805201678,0.088264896635401));
#649=CARTESIAN_POINT('',(0.0322803232957421,-0.0142335579953994,0.0887833667390166));
#650=CARTESIAN_POINT('',(0.0317570679209939,-0.0141771839490919,0.0890000000000001));
#651=CARTESIAN_POINT('',(0.0314975093215267,-0.0141485439423685,0.089));
#652=CARTESIAN_POINT('',(-0.0315903842310157,-0.00295308225497476,0.089));
#653=CARTESIAN_POINT('',(-0.0325634432860004,-0.00272252624114658,0.089));
#654=CARTESIAN_POINT('',(-0.0325634432860004,-0.00272252624114659,0.088));
#655=CARTESIAN_POINT('',(-0.0313657297476401,-0.00200493054268264,0.089));
#656=CARTESIAN_POINT('',(-0.0323387888026303,-0.00177437452885515,0.089));
#657=CARTESIAN_POINT('',(-0.0323387888026259,-0.00177437452885422,0.088));
#658=CARTESIAN_POINT('',(-0.0308829791369354,-0.000118041809595079,0.089));
#659=CARTESIAN_POINT('',(-0.0318425508140691,0.000166541817958644,0.089));
#660=CARTESIAN_POINT('',(-0.0318425508140711,0.000166541817958216,0.088));
#661=CARTESIAN_POINT('',(-0.0296862087395186,0.00359181623842971,0.089));
#662=CARTESIAN_POINT('',(-0.0306245339445471,0.00393987939089678,0.089));
#663=CARTESIAN_POINT('',(-0.0306245339445459,0.00393987939089702,0.088));
#664=CARTESIAN_POINT('',(-0.0278026903507796,0.00811677103745617,0.089));
#665=CARTESIAN_POINT('',(-0.0287063082120646,0.0085491978740365,0.089));
#666=CARTESIAN_POINT('',(-0.0287063082120649,0.00854919787403642,0.088));
#667=CARTESIAN_POINT('',(-0.0250649136702689,0.0132693362902581,0.089));
#668=CARTESIAN_POINT('',(-0.0259304220946738,0.0137709958338316,0.089));
#669=CARTESIAN_POINT('',(-0.0259304220946736,0.0137709958338316,0.088));
#670=CARTESIAN_POINT('',(-0.0220185550239997,0.0182791351444682,0.089));
#671=CARTESIAN_POINT('',(-0.0228637943303983,0.0188143963413091,0.089));
#672=CARTESIAN_POINT('',(-0.0228637943303983,0.018814396341309,0.088));
#673=CARTESIAN_POINT('',(-0.0187169186562507,0.023099810969119,0.089));
#674=CARTESIAN_POINT('',(-0.01951673844148,0.0237028736209151,0.089));
#675=CARTESIAN_POINT('',(-0.01951673844148,0.0237028736209151,0.088));
#676=CARTESIAN_POINT('',(-0.0155716725683289,0.0267890819805059,0.089));
#677=CARTESIAN_POINT('',(-0.01630286283502,0.0274751156559784,0.089));
#678=CARTESIAN_POINT('',(-0.0163028628350201,0.0274751156559784,0.088));
#679=CARTESIAN_POINT('',(-0.0126726534211318,0.0294626925483629,0.089));
#680=CARTESIAN_POINT('',(-0.0133172055028322,0.0302292013640658,0.089));
#681=CARTESIAN_POINT('',(-0.0133172055028322,0.0302292013640658,0.088));
#682=CARTESIAN_POINT('',(-0.0103614036423855,0.0312153385147339,0.089));
#683=CARTESIAN_POINT('',(-0.0109251219076662,0.0320438329766549,0.089));
#684=CARTESIAN_POINT('',(-0.0109251219076663,0.0320438329766549,0.088));
#685=CARTESIAN_POINT('',(-0.00831047870502423,0.0324440638204393,0.089));
#686=CARTESIAN_POINT('',(-0.00879043480623132,0.0333227221334941,0.089));
#687=CARTESIAN_POINT('',(-0.00879043480623088,0.0333227221334941,0.088));
#688=CARTESIAN_POINT('',(-0.00659022684179945,0.0332797164398224,0.089));
#689=CARTESIAN_POINT('',(-0.00699993540714357,0.0341928779129649,0.089));
#690=CARTESIAN_POINT('',(-0.00699993540714431,0.034192877912965,0.088));
#691=CARTESIAN_POINT('',(-0.00569739442037164,0.0336369075801499,0.089));
#692=CARTESIAN_POINT('',(-0.00606084411546222,0.0345685214052575,0.089));
#693=CARTESIAN_POINT('',(-0.00606084411546055,0.0345685214052572,0.088));
#694=CARTESIAN_POINT('',(-0.00524900108510365,0.0338118388838582,0.089));
#695=CARTESIAN_POINT('',(-0.00561245078019413,0.0347434527089696,0.089));
#696=CARTESIAN_POINT('',(-0.00561245078019412,0.0347434527089696,0.088));
#697=CARTESIAN_POINT('',(-0.032499509994289,-0.0024526965048416,0.088));
#698=CARTESIAN_POINT('',(-0.032499509994289,-0.0024526965048416,0.0882650264853093));
#699=CARTESIAN_POINT('',(-0.0322820505526425,-0.00247809014009753,0.0887836288963847));
#700=CARTESIAN_POINT('',(-0.0317589700864907,-0.00253916210773421,0.0890000000000001));
#701=CARTESIAN_POINT('',(-0.0314994899814363,-0.0025696061109866,0.089));
#702=CARTESIAN_POINT('',(0.0123708075896486,-0.0283875074633433,0.088));
#703=CARTESIAN_POINT('',(0.0123708075896486,-0.0283875074633433,0.089));
#704=CARTESIAN_POINT('',(0.0121322361215418,-0.0274163825205036,0.089));
#705=CARTESIAN_POINT('',(0.0143977450206513,-0.0278895597561606,0.088));
#706=CARTESIAN_POINT('',(0.0143977450205778,-0.0278895597559917,0.088999999999447));
#707=CARTESIAN_POINT('',(0.0141591735525468,-0.0269184348133302,0.089));
#708=CARTESIAN_POINT('',(0.0174813724014021,-0.027106953476165,0.088));
#709=CARTESIAN_POINT('',(0.0174813724014186,-0.0271069534762031,0.0890000000001247));
#710=CARTESIAN_POINT('',(0.0172028732611611,-0.0261447563185761,0.089));
#711=CARTESIAN_POINT('',(0.0214960495338927,-0.0256709428234615,0.088));
#712=CARTESIAN_POINT('',(0.0214960495338896,-0.0256709428234543,0.0889999999999765));
#713=CARTESIAN_POINT('',(0.0211193527155192,-0.024742986493533,0.089));
#714=CARTESIAN_POINT('',(0.0244284107990575,-0.0242881186831981,0.088));
#715=CARTESIAN_POINT('',(0.0244284107990584,-0.0242881186832,0.0890000000000063));
#716=CARTESIAN_POINT('',(0.0239415913362978,-0.0234105335560592,0.089));
#717=CARTESIAN_POINT('',(0.0271926516522264,-0.0224470512317426,0.088));
#718=CARTESIAN_POINT('',(0.0271926516522261,-0.022447051231742,0.0889999999999982));
#719=CARTESIAN_POINT('',(0.0265675555810682,-0.0216601225471405,0.089));
#720=CARTESIAN_POINT('',(0.0291773492635776,-0.0205621107646494,0.088));
#721=CARTESIAN_POINT('',(0.0291773492635776,-0.0205621107646495,0.0890000000000002));
#722=CARTESIAN_POINT('',(0.0284402204139986,-0.0198800747014888,0.089));
#723=CARTESIAN_POINT('',(0.0305577991011898,-0.0187714903412394,0.088));
#724=CARTESIAN_POINT('',(0.0305577991011897,-0.0187714903412393,0.0889999999999999));
#725=CARTESIAN_POINT('',(0.0297308224162881,-0.0182054019069496,0.089));
#726=CARTESIAN_POINT('',(0.0314227989498176,-0.0173317477359311,0.088));
#727=CARTESIAN_POINT('',(0.0314227989498178,-0.0173317477359312,0.089));
#728=CARTESIAN_POINT('',(0.0305334096148085,-0.0168684299323638,0.089));
#729=CARTESIAN_POINT('',(0.0319916782727813,-0.0160359156940484,0.088));
#730=CARTESIAN_POINT('',(0.0319916782727807,-0.0160359156940481,0.089));
#731=CARTESIAN_POINT('',(0.0310564813325752,-0.0156770486391207,0.0889999999999999));
#732=CARTESIAN_POINT('',(0.0323430705460764,-0.0149390850431452,0.088));
#733=CARTESIAN_POINT('',(0.0323430705460775,-0.0149390850431458,0.0890000000000001));
#734=CARTESIAN_POINT('',(0.0313789974877941,-0.0146689232515917,0.0890000000000001));
#735=CARTESIAN_POINT('',(0.0324733085592761,-0.014367928262439,0.088));
#736=CARTESIAN_POINT('',(0.0324733085592737,-0.0143679282624377,0.089));
#737=CARTESIAN_POINT('',(0.0314962477884702,-0.0141549675849511,0.089));
#738=CARTESIAN_POINT('',(0.0325294379509437,-0.0141104073560701,0.088));
#739=CARTESIAN_POINT('',(0.0325294379509437,-0.0141104073560701,0.089));
#740=CARTESIAN_POINT('',(0.0315523771801397,-0.0138974466785826,0.089));
#741=CARTESIAN_POINT('',(0.0125150165768341,-0.0283520803537415,0.088));
#742=CARTESIAN_POINT('',(0.0125150165768341,-0.0283520803537415,0.0882650889033058));
#743=CARTESIAN_POINT('',(0.0124886804912321,-0.0281344902956623,0.0887837579102125));
#744=CARTESIAN_POINT('',(0.012425383212294,-0.0276115038161961,0.089));
#745=CARTESIAN_POINT('',(0.012393952194913,-0.0273520803537415,0.089));
#746=CARTESIAN_POINT('',(-0.0314985004054283,-0.00835466745537452,0.088));
#747=CARTESIAN_POINT('',(-0.0324974907873071,-0.0142569805201686,0.088));
#748=CARTESIAN_POINT('',(-0.0324974907873071,-0.0142569805201686,0.0882648966354009));
#749=CARTESIAN_POINT('',(-0.0322803232957424,-0.0142335579953983,0.0887833667390163));
#750=CARTESIAN_POINT('',(-0.0317570679209942,-0.0141771839490938,0.089));
#751=CARTESIAN_POINT('',(-0.0314975093215273,-0.0141485439423685,0.089));
#752=CARTESIAN_POINT('',(1.04083408558608E-16,-0.0273520803537415,0.088));
#753=CARTESIAN_POINT('',(-0.0125150165768341,-0.0283520803537414,0.088));
#754=CARTESIAN_POINT('',(-0.0125150165768341,-0.0283520803537414,0.0882650889033058));
#755=CARTESIAN_POINT('',(-0.0124886804912319,-0.0281344902956623,0.0887837579102125));
#756=CARTESIAN_POINT('',(-0.0124253832122945,-0.0276115038161961,0.089));
#757=CARTESIAN_POINT('',(-0.012393952194913,-0.0273520803537416,0.089));
#758=CARTESIAN_POINT('',(-0.0121322361215421,-0.0274163825205035,0.089));
#759=CARTESIAN_POINT('',(-0.0123708075896486,-0.0283875074633432,0.089));
#760=CARTESIAN_POINT('',(-0.0123708075896486,-0.0283875074633432,0.088));
#761=CARTESIAN_POINT('',(-0.0141591735525379,-0.0269184348133156,0.089));
#762=CARTESIAN_POINT('',(-0.0143977450206417,-0.0278895597561811,0.089000000000041));
#763=CARTESIAN_POINT('',(-0.0143977450206462,-0.0278895597561624,0.088));
#764=CARTESIAN_POINT('',(-0.017202873261163,-0.0261447563185794,0.089));
#765=CARTESIAN_POINT('',(-0.0174813724014041,-0.0271069534761604,0.0889999999999907));
#766=CARTESIAN_POINT('',(-0.0174813724014031,-0.0271069534761647,0.088));
#767=CARTESIAN_POINT('',(-0.0211193527155186,-0.0247429864935324,0.089));
#768=CARTESIAN_POINT('',(-0.0214960495338921,-0.0256709428234624,0.0890000000000017));
#769=CARTESIAN_POINT('',(-0.0214960495338923,-0.0256709428234616,0.088));
#770=CARTESIAN_POINT('',(-0.0239415913362976,-0.0234105335560595,0.089));
#771=CARTESIAN_POINT('',(-0.0244284107990573,-0.0242881186831981,0.0889999999999995));
#772=CARTESIAN_POINT('',(-0.0244284107990573,-0.0242881186831983,0.088));
#773=CARTESIAN_POINT('',(-0.0265675555810679,-0.0216601225471407,0.089));
#774=CARTESIAN_POINT('',(-0.027192651652226,-0.0224470512317429,0.0890000000000001));
#775=CARTESIAN_POINT('',(-0.0271926516522261,-0.0224470512317428,0.088));
#776=CARTESIAN_POINT('',(-0.0284402204139981,-0.0198800747014895,0.089));
#777=CARTESIAN_POINT('',(-0.0291773492635771,-0.02056211076465,0.0890000000000001));
#778=CARTESIAN_POINT('',(-0.0291773492635771,-0.02056211076465,0.088));
#779=CARTESIAN_POINT('',(-0.0297308224162877,-0.01820540190695,0.089));
#780=CARTESIAN_POINT('',(-0.0305577991011893,-0.0187714903412398,0.0889999999999999));
#781=CARTESIAN_POINT('',(-0.0305577991011894,-0.0187714903412399,0.088));
#782=CARTESIAN_POINT('',(-0.0305334096148079,-0.0168684299323652,0.089));
#783=CARTESIAN_POINT('',(-0.0314227989498174,-0.0173317477359325,0.0890000000000004));
#784=CARTESIAN_POINT('',(-0.0314227989498172,-0.0173317477359323,0.088));
#785=CARTESIAN_POINT('',(-0.0310564813325757,-0.0156770486391191,0.089));
#786=CARTESIAN_POINT('',(-0.0319916782727805,-0.0160359156940471,0.0889999999999986));
#787=CARTESIAN_POINT('',(-0.0319916782727813,-0.0160359156940475,0.088));
#788=CARTESIAN_POINT('',(-0.0313789974877924,-0.0146689232515966,0.089));
#789=CARTESIAN_POINT('',(-0.032343070546077,-0.01493908504315,0.0890000000000024));
#790=CARTESIAN_POINT('',(-0.0323430705460756,-0.0149390850431492,0.088));
#791=CARTESIAN_POINT('',(-0.0314962477884732,-0.0141549675849431,0.089));
#792=CARTESIAN_POINT('',(-0.032473308559274,-0.0143679282624316,0.0889999999999948));
#793=CARTESIAN_POINT('',(-0.032473308559277,-0.0143679282624334,0.088));
#794=CARTESIAN_POINT('',(-0.03155237718014,-0.0138974466785836,0.089));
#795=CARTESIAN_POINT('',(-0.0325294379509434,-0.0141104073560738,0.089));
#796=CARTESIAN_POINT('',(-0.0325294379509434,-0.0141104073560738,0.088));
#797=MECHANICAL_DESIGN_GEOMETRIC_PRESENTATION_REPRESENTATION('',(#308),
#798);
#798=(
GEOMETRIC_REPRESENTATION_CONTEXT(3)
GLOBAL_UNCERTAINTY_ASSIGNED_CONTEXT((#799))
GLOBAL_UNIT_ASSIGNED_CONTEXT((#802,#801,#800))
REPRESENTATION_CONTEXT('Pokrov LEDring','TOP_LEVEL_ASSEMBLY_PART')
);
#799=UNCERTAINTY_MEASURE_WITH_UNIT(LENGTH_MEASURE(2.E-5),#802,
'DISTANCE_ACCURACY_VALUE','Maximum Tolerance applied to model');
#800=(
NAMED_UNIT(*)
SI_UNIT($,.STERADIAN.)
SOLID_ANGLE_UNIT()
);
#801=(
NAMED_UNIT(*)
PLANE_ANGLE_UNIT()
SI_UNIT($,.RADIAN.)
);
#802=(
LENGTH_UNIT()
NAMED_UNIT(*)
SI_UNIT($,.METRE.)
);
#803=PRODUCT_DEFINITION_SHAPE('','',#804);
#804=PRODUCT_DEFINITION('','',#806,#805);
#805=PRODUCT_DEFINITION_CONTEXT('',#812,'design');
#806=PRODUCT_DEFINITION_FORMATION_WITH_SPECIFIED_SOURCE('','',#808,
 .NOT_KNOWN.);
#807=PRODUCT_RELATED_PRODUCT_CATEGORY('','',(#808));
#808=PRODUCT('Pokrov LEDring','Pokrov LEDring','Pokrov LEDring',(#810));
#809=PRODUCT_CATEGORY('','');
#810=PRODUCT_CONTEXT('',#812,'mechanical');
#811=APPLICATION_PROTOCOL_DEFINITION('international standard',
'ap242_managed_model_based_3d_engineering',2020,#812);
#812=APPLICATION_CONTEXT('managed model based 3d engineering');
ENDSEC;
END-ISO-10303-21;
