ISO-10303-21;
HEADER;
/* Generated by software containing ST-Developer
 * from STEP Tools, Inc. (www.steptools.com) 
 */
/* OPTION: using custom renumber hook */

FILE_DESCRIPTION(
/* description */ ('STEP AP242 Edition 2',
'CAx-IF Rec.Pracs.---Representation and Presentation of Product Manufa
cturing Information (PMI)---4.0---2014-10-13',
'CAx-IF Rec.Pracs.---3D Tessellated Geometry---0.4---2014-09-14','2;1',
'CAx-IF Rec.Pracs.---User Defined Attributes---1.5---2016-08-15'),
/* implementation_level */ '2;1');

FILE_NAME(
/* name */ 'Modular_vacuum - Salcka_V2.0.1',
/* time_stamp */ '2026-08-21T08:02:11Z',
/* author */ (''),
/* organization */ (''),
/* preprocessor_version */ 'ST-DEVELOPER v20',
/* originating_system */ 'ONSHAPE BY PTC INC, 1.219',
/* authorisation */ '  ');

FILE_SCHEMA (('AP242_MANAGED_MODEL_BASED_3D_ENGINEERING_MIM_LF { 1 0 10303 442 3 1 4 }'));
ENDSEC;

DATA;
#10=SHAPE_REPRESENTATION_RELATIONSHIP('','',#1406,#11);
#11=ADVANCED_BREP_SHAPE_REPRESENTATION('',(#1404),#2296);
#12=CONICAL_SURFACE('',#1505,0.00225,0.785398163397448);
#13=CONICAL_SURFACE('',#1506,0.00225,0.785398163397448);
#14=CONICAL_SURFACE('',#1507,0.00225,0.785398163397448);
#15=CONICAL_SURFACE('',#1508,0.00275,0.785398163397448);
#16=CONICAL_SURFACE('',#1509,0.00275,0.785398163397448);
#17=B_SPLINE_CURVE_WITH_KNOTS('',3,(#2224,#2225,#2226,#2227),
 .UNSPECIFIED.,.F.,.F.,(4,4),(0.,0.000340142257130797),.UNSPECIFIED.);
#18=CYLINDRICAL_SURFACE('',#1429,0.0127294748227801);
#19=CYLINDRICAL_SURFACE('',#1433,0.0125883821686437);
#20=CYLINDRICAL_SURFACE('',#1438,0.0105);
#21=CYLINDRICAL_SURFACE('',#1446,0.0105);
#22=CYLINDRICAL_SURFACE('',#1458,0.00225);
#23=CYLINDRICAL_SURFACE('',#1461,0.0025);
#24=CYLINDRICAL_SURFACE('',#1463,0.0125883821686463);
#25=CYLINDRICAL_SURFACE('',#1465,0.00225);
#26=CYLINDRICAL_SURFACE('',#1468,0.00225);
#27=CYLINDRICAL_SURFACE('',#1471,0.00625);
#28=CYLINDRICAL_SURFACE('',#1474,0.00175);
#29=CYLINDRICAL_SURFACE('',#1476,0.00175);
#30=CYLINDRICAL_SURFACE('',#1478,0.003);
#31=CYLINDRICAL_SURFACE('',#1481,0.0025);
#32=CYLINDRICAL_SURFACE('',#1502,0.00675);
#33=CYLINDRICAL_SURFACE('',#1526,0.0025);
#34=CYLINDRICAL_SURFACE('',#1527,0.0025);
#35=CIRCLE('',#1417,0.00425);
#36=CIRCLE('',#1418,0.00425);
#37=CIRCLE('',#1419,0.003);
#38=CIRCLE('',#1420,0.00175);
#39=CIRCLE('',#1421,0.00175);
#40=CIRCLE('',#1422,0.00625);
#41=CIRCLE('',#1423,0.0127294748227801);
#42=CIRCLE('',#1424,0.00425);
#43=CIRCLE('',#1425,0.0127294748227801);
#44=CIRCLE('',#1426,0.0125883821686437);
#45=CIRCLE('',#1427,0.0125883821686463);
#46=CIRCLE('',#1428,0.0125883821686437);
#47=CIRCLE('',#1430,0.0127294748227801);
#48=CIRCLE('',#1431,0.0127294748227802);
#49=CIRCLE('',#1432,0.0127294748227802);
#50=CIRCLE('',#1434,0.0125883821686437);
#51=CIRCLE('',#1435,0.0125883821686437);
#52=CIRCLE('',#1436,0.0125883821686437);
#53=CIRCLE('',#1439,0.0105);
#54=CIRCLE('',#1440,0.0105);
#55=CIRCLE('',#1443,0.0025);
#56=CIRCLE('',#1444,0.0025);
#57=CIRCLE('',#1447,0.0105);
#58=CIRCLE('',#1448,0.0105);
#59=CIRCLE('',#1451,0.0025);
#60=CIRCLE('',#1452,0.0025);
#61=CIRCLE('',#1459,0.00225);
#62=CIRCLE('',#1460,0.00225);
#63=CIRCLE('',#1462,0.0025);
#64=CIRCLE('',#1464,0.0125883821686463);
#65=CIRCLE('',#1466,0.00225);
#66=CIRCLE('',#1467,0.00225);
#67=CIRCLE('',#1469,0.00225);
#68=CIRCLE('',#1470,0.00225);
#69=CIRCLE('',#1472,0.00625);
#70=CIRCLE('',#1473,0.00625);
#71=CIRCLE('',#1475,0.00175);
#72=CIRCLE('',#1477,0.00175);
#73=CIRCLE('',#1479,0.003);
#74=CIRCLE('',#1482,0.0025);
#75=CIRCLE('',#1484,0.0025);
#76=CIRCLE('',#1485,0.0025);
#77=CIRCLE('',#1486,0.00275);
#78=CIRCLE('',#1487,0.00275);
#79=CIRCLE('',#1501,0.00675);
#80=CIRCLE('',#1503,0.00675);
#81=ORIENTED_EDGE('',*,*,#449,.T.);
#82=ORIENTED_EDGE('',*,*,#450,.T.);
#83=ORIENTED_EDGE('',*,*,#451,.T.);
#84=ORIENTED_EDGE('',*,*,#452,.F.);
#85=ORIENTED_EDGE('',*,*,#453,.T.);
#86=ORIENTED_EDGE('',*,*,#454,.T.);
#87=ORIENTED_EDGE('',*,*,#455,.F.);
#88=ORIENTED_EDGE('',*,*,#456,.T.);
#89=ORIENTED_EDGE('',*,*,#457,.F.);
#90=ORIENTED_EDGE('',*,*,#458,.F.);
#91=ORIENTED_EDGE('',*,*,#459,.T.);
#92=ORIENTED_EDGE('',*,*,#460,.F.);
#93=ORIENTED_EDGE('',*,*,#461,.T.);
#94=ORIENTED_EDGE('',*,*,#462,.T.);
#95=ORIENTED_EDGE('',*,*,#463,.F.);
#96=ORIENTED_EDGE('',*,*,#464,.F.);
#97=ORIENTED_EDGE('',*,*,#465,.F.);
#98=ORIENTED_EDGE('',*,*,#466,.T.);
#99=ORIENTED_EDGE('',*,*,#467,.T.);
#100=ORIENTED_EDGE('',*,*,#468,.F.);
#101=ORIENTED_EDGE('',*,*,#469,.F.);
#102=ORIENTED_EDGE('',*,*,#470,.T.);
#103=ORIENTED_EDGE('',*,*,#471,.T.);
#104=ORIENTED_EDGE('',*,*,#472,.F.);
#105=ORIENTED_EDGE('',*,*,#473,.T.);
#106=ORIENTED_EDGE('',*,*,#474,.T.);
#107=ORIENTED_EDGE('',*,*,#464,.T.);
#108=ORIENTED_EDGE('',*,*,#475,.T.);
#109=ORIENTED_EDGE('',*,*,#476,.T.);
#110=ORIENTED_EDGE('',*,*,#477,.F.);
#111=ORIENTED_EDGE('',*,*,#478,.F.);
#112=ORIENTED_EDGE('',*,*,#472,.T.);
#113=ORIENTED_EDGE('',*,*,#479,.F.);
#114=ORIENTED_EDGE('',*,*,#480,.T.);
#115=ORIENTED_EDGE('',*,*,#481,.F.);
#116=ORIENTED_EDGE('',*,*,#461,.F.);
#117=ORIENTED_EDGE('',*,*,#482,.T.);
#118=ORIENTED_EDGE('',*,*,#483,.T.);
#119=ORIENTED_EDGE('',*,*,#484,.T.);
#120=ORIENTED_EDGE('',*,*,#485,.F.);
#121=ORIENTED_EDGE('',*,*,#486,.F.);
#122=ORIENTED_EDGE('',*,*,#487,.F.);
#123=ORIENTED_EDGE('',*,*,#488,.F.);
#124=ORIENTED_EDGE('',*,*,#489,.F.);
#125=ORIENTED_EDGE('',*,*,#490,.T.);
#126=ORIENTED_EDGE('',*,*,#491,.T.);
#127=ORIENTED_EDGE('',*,*,#492,.F.);
#128=ORIENTED_EDGE('',*,*,#493,.F.);
#129=ORIENTED_EDGE('',*,*,#494,.F.);
#130=ORIENTED_EDGE('',*,*,#495,.T.);
#131=ORIENTED_EDGE('',*,*,#496,.F.);
#132=ORIENTED_EDGE('',*,*,#497,.F.);
#133=ORIENTED_EDGE('',*,*,#498,.F.);
#134=ORIENTED_EDGE('',*,*,#499,.F.);
#135=ORIENTED_EDGE('',*,*,#500,.F.);
#136=ORIENTED_EDGE('',*,*,#501,.T.);
#137=ORIENTED_EDGE('',*,*,#502,.F.);
#138=ORIENTED_EDGE('',*,*,#503,.F.);
#139=ORIENTED_EDGE('',*,*,#504,.T.);
#140=ORIENTED_EDGE('',*,*,#505,.T.);
#141=ORIENTED_EDGE('',*,*,#506,.T.);
#142=ORIENTED_EDGE('',*,*,#507,.F.);
#143=ORIENTED_EDGE('',*,*,#508,.F.);
#144=ORIENTED_EDGE('',*,*,#462,.F.);
#145=ORIENTED_EDGE('',*,*,#481,.T.);
#146=ORIENTED_EDGE('',*,*,#509,.F.);
#147=ORIENTED_EDGE('',*,*,#510,.T.);
#148=ORIENTED_EDGE('',*,*,#511,.T.);
#149=ORIENTED_EDGE('',*,*,#512,.F.);
#150=ORIENTED_EDGE('',*,*,#513,.F.);
#151=ORIENTED_EDGE('',*,*,#514,.F.);
#152=ORIENTED_EDGE('',*,*,#515,.F.);
#153=ORIENTED_EDGE('',*,*,#516,.F.);
#154=ORIENTED_EDGE('',*,*,#517,.F.);
#155=ORIENTED_EDGE('',*,*,#518,.F.);
#156=ORIENTED_EDGE('',*,*,#519,.T.);
#157=ORIENTED_EDGE('',*,*,#520,.T.);
#158=ORIENTED_EDGE('',*,*,#489,.T.);
#159=ORIENTED_EDGE('',*,*,#521,.F.);
#160=ORIENTED_EDGE('',*,*,#522,.T.);
#161=ORIENTED_EDGE('',*,*,#523,.T.);
#162=ORIENTED_EDGE('',*,*,#498,.T.);
#163=ORIENTED_EDGE('',*,*,#524,.F.);
#164=ORIENTED_EDGE('',*,*,#525,.T.);
#165=ORIENTED_EDGE('',*,*,#526,.F.);
#166=ORIENTED_EDGE('',*,*,#527,.F.);
#167=ORIENTED_EDGE('',*,*,#528,.T.);
#168=ORIENTED_EDGE('',*,*,#502,.T.);
#169=ORIENTED_EDGE('',*,*,#529,.F.);
#170=ORIENTED_EDGE('',*,*,#530,.T.);
#171=ORIENTED_EDGE('',*,*,#531,.T.);
#172=ORIENTED_EDGE('',*,*,#513,.T.);
#173=ORIENTED_EDGE('',*,*,#532,.F.);
#174=ORIENTED_EDGE('',*,*,#533,.T.);
#175=ORIENTED_EDGE('',*,*,#534,.T.);
#176=ORIENTED_EDGE('',*,*,#496,.T.);
#177=ORIENTED_EDGE('',*,*,#535,.F.);
#178=ORIENTED_EDGE('',*,*,#457,.T.);
#179=ORIENTED_EDGE('',*,*,#536,.T.);
#180=ORIENTED_EDGE('',*,*,#452,.T.);
#181=ORIENTED_EDGE('',*,*,#537,.T.);
#182=ORIENTED_EDGE('',*,*,#492,.T.);
#183=ORIENTED_EDGE('',*,*,#538,.T.);
#184=ORIENTED_EDGE('',*,*,#539,.F.);
#185=ORIENTED_EDGE('',*,*,#517,.T.);
#186=ORIENTED_EDGE('',*,*,#538,.F.);
#187=ORIENTED_EDGE('',*,*,#540,.F.);
#188=ORIENTED_EDGE('',*,*,#541,.F.);
#189=ORIENTED_EDGE('',*,*,#539,.T.);
#190=ORIENTED_EDGE('',*,*,#526,.T.);
#191=ORIENTED_EDGE('',*,*,#542,.T.);
#192=ORIENTED_EDGE('',*,*,#543,.T.);
#193=ORIENTED_EDGE('',*,*,#504,.F.);
#194=ORIENTED_EDGE('',*,*,#544,.F.);
#195=ORIENTED_EDGE('',*,*,#545,.F.);
#196=ORIENTED_EDGE('',*,*,#546,.T.);
#197=ORIENTED_EDGE('',*,*,#528,.F.);
#198=ORIENTED_EDGE('',*,*,#547,.T.);
#199=ORIENTED_EDGE('',*,*,#548,.T.);
#200=ORIENTED_EDGE('',*,*,#549,.F.);
#201=ORIENTED_EDGE('',*,*,#527,.T.);
#202=ORIENTED_EDGE('',*,*,#547,.F.);
#203=ORIENTED_EDGE('',*,*,#548,.F.);
#204=ORIENTED_EDGE('',*,*,#550,.F.);
#205=ORIENTED_EDGE('',*,*,#551,.F.);
#206=ORIENTED_EDGE('',*,*,#549,.T.);
#207=ORIENTED_EDGE('',*,*,#516,.T.);
#208=ORIENTED_EDGE('',*,*,#552,.F.);
#209=ORIENTED_EDGE('',*,*,#553,.F.);
#210=ORIENTED_EDGE('',*,*,#521,.T.);
#211=ORIENTED_EDGE('',*,*,#499,.T.);
#212=ORIENTED_EDGE('',*,*,#523,.F.);
#213=ORIENTED_EDGE('',*,*,#554,.F.);
#214=ORIENTED_EDGE('',*,*,#555,.T.);
#215=ORIENTED_EDGE('',*,*,#500,.T.);
#216=ORIENTED_EDGE('',*,*,#555,.F.);
#217=ORIENTED_EDGE('',*,*,#556,.F.);
#218=ORIENTED_EDGE('',*,*,#557,.T.);
#219=ORIENTED_EDGE('',*,*,#501,.F.);
#220=ORIENTED_EDGE('',*,*,#557,.F.);
#221=ORIENTED_EDGE('',*,*,#558,.T.);
#222=ORIENTED_EDGE('',*,*,#529,.T.);
#223=ORIENTED_EDGE('',*,*,#514,.T.);
#224=ORIENTED_EDGE('',*,*,#531,.F.);
#225=ORIENTED_EDGE('',*,*,#559,.F.);
#226=ORIENTED_EDGE('',*,*,#560,.T.);
#227=ORIENTED_EDGE('',*,*,#561,.T.);
#228=ORIENTED_EDGE('',*,*,#562,.F.);
#229=ORIENTED_EDGE('',*,*,#563,.F.);
#230=ORIENTED_EDGE('',*,*,#551,.T.);
#231=ORIENTED_EDGE('',*,*,#503,.T.);
#232=ORIENTED_EDGE('',*,*,#546,.F.);
#233=ORIENTED_EDGE('',*,*,#564,.F.);
#234=ORIENTED_EDGE('',*,*,#544,.T.);
#235=ORIENTED_EDGE('',*,*,#565,.T.);
#236=ORIENTED_EDGE('',*,*,#566,.F.);
#237=ORIENTED_EDGE('',*,*,#567,.T.);
#238=ORIENTED_EDGE('',*,*,#568,.F.);
#239=ORIENTED_EDGE('',*,*,#569,.F.);
#240=ORIENTED_EDGE('',*,*,#570,.F.);
#241=ORIENTED_EDGE('',*,*,#488,.T.);
#242=ORIENTED_EDGE('',*,*,#571,.T.);
#243=ORIENTED_EDGE('',*,*,#487,.T.);
#244=ORIENTED_EDGE('',*,*,#572,.T.);
#245=ORIENTED_EDGE('',*,*,#486,.T.);
#246=ORIENTED_EDGE('',*,*,#573,.F.);
#247=ORIENTED_EDGE('',*,*,#485,.T.);
#248=ORIENTED_EDGE('',*,*,#515,.T.);
#249=ORIENTED_EDGE('',*,*,#560,.F.);
#250=ORIENTED_EDGE('',*,*,#574,.F.);
#251=ORIENTED_EDGE('',*,*,#552,.T.);
#252=ORIENTED_EDGE('',*,*,#575,.F.);
#253=ORIENTED_EDGE('',*,*,#541,.T.);
#254=ORIENTED_EDGE('',*,*,#576,.T.);
#255=ORIENTED_EDGE('',*,*,#577,.T.);
#256=ORIENTED_EDGE('',*,*,#553,.T.);
#257=ORIENTED_EDGE('',*,*,#574,.T.);
#258=ORIENTED_EDGE('',*,*,#559,.T.);
#259=ORIENTED_EDGE('',*,*,#530,.F.);
#260=ORIENTED_EDGE('',*,*,#558,.F.);
#261=ORIENTED_EDGE('',*,*,#556,.T.);
#262=ORIENTED_EDGE('',*,*,#554,.T.);
#263=ORIENTED_EDGE('',*,*,#522,.F.);
#264=ORIENTED_EDGE('',*,*,#573,.T.);
#265=ORIENTED_EDGE('',*,*,#570,.T.);
#266=ORIENTED_EDGE('',*,*,#578,.T.);
#267=ORIENTED_EDGE('',*,*,#569,.T.);
#268=ORIENTED_EDGE('',*,*,#579,.T.);
#269=ORIENTED_EDGE('',*,*,#568,.T.);
#270=ORIENTED_EDGE('',*,*,#566,.T.);
#271=ORIENTED_EDGE('',*,*,#545,.T.);
#272=ORIENTED_EDGE('',*,*,#564,.T.);
#273=ORIENTED_EDGE('',*,*,#563,.T.);
#274=ORIENTED_EDGE('',*,*,#562,.T.);
#275=ORIENTED_EDGE('',*,*,#575,.T.);
#276=ORIENTED_EDGE('',*,*,#495,.F.);
#277=ORIENTED_EDGE('',*,*,#580,.F.);
#278=ORIENTED_EDGE('',*,*,#581,.F.);
#279=ORIENTED_EDGE('',*,*,#582,.T.);
#280=ORIENTED_EDGE('',*,*,#506,.F.);
#281=ORIENTED_EDGE('',*,*,#583,.F.);
#282=ORIENTED_EDGE('',*,*,#468,.T.);
#283=ORIENTED_EDGE('',*,*,#584,.T.);
#284=ORIENTED_EDGE('',*,*,#455,.T.);
#285=ORIENTED_EDGE('',*,*,#535,.T.);
#286=ORIENTED_EDGE('',*,*,#494,.T.);
#287=ORIENTED_EDGE('',*,*,#585,.F.);
#288=ORIENTED_EDGE('',*,*,#586,.F.);
#289=ORIENTED_EDGE('',*,*,#580,.T.);
#290=ORIENTED_EDGE('',*,*,#493,.T.);
#291=ORIENTED_EDGE('',*,*,#537,.F.);
#292=ORIENTED_EDGE('',*,*,#454,.F.);
#293=ORIENTED_EDGE('',*,*,#587,.F.);
#294=ORIENTED_EDGE('',*,*,#449,.F.);
#295=ORIENTED_EDGE('',*,*,#588,.T.);
#296=ORIENTED_EDGE('',*,*,#510,.F.);
#297=ORIENTED_EDGE('',*,*,#589,.F.);
#298=ORIENTED_EDGE('',*,*,#590,.T.);
#299=ORIENTED_EDGE('',*,*,#585,.T.);
#300=ORIENTED_EDGE('',*,*,#591,.T.);
#301=ORIENTED_EDGE('',*,*,#592,.T.);
#302=ORIENTED_EDGE('',*,*,#593,.F.);
#303=ORIENTED_EDGE('',*,*,#473,.F.);
#304=ORIENTED_EDGE('',*,*,#463,.T.);
#305=ORIENTED_EDGE('',*,*,#508,.T.);
#306=ORIENTED_EDGE('',*,*,#594,.F.);
#307=ORIENTED_EDGE('',*,*,#595,.T.);
#308=ORIENTED_EDGE('',*,*,#470,.F.);
#309=ORIENTED_EDGE('',*,*,#596,.T.);
#310=ORIENTED_EDGE('',*,*,#507,.T.);
#311=ORIENTED_EDGE('',*,*,#582,.F.);
#312=ORIENTED_EDGE('',*,*,#597,.F.);
#313=ORIENTED_EDGE('',*,*,#594,.T.);
#314=ORIENTED_EDGE('',*,*,#543,.F.);
#315=ORIENTED_EDGE('',*,*,#598,.F.);
#316=ORIENTED_EDGE('',*,*,#599,.T.);
#317=ORIENTED_EDGE('',*,*,#511,.F.);
#318=ORIENTED_EDGE('',*,*,#588,.F.);
#319=ORIENTED_EDGE('',*,*,#451,.F.);
#320=ORIENTED_EDGE('',*,*,#600,.F.);
#321=ORIENTED_EDGE('',*,*,#466,.F.);
#322=ORIENTED_EDGE('',*,*,#583,.T.);
#323=ORIENTED_EDGE('',*,*,#505,.F.);
#324=ORIENTED_EDGE('',*,*,#509,.T.);
#325=ORIENTED_EDGE('',*,*,#480,.F.);
#326=ORIENTED_EDGE('',*,*,#601,.F.);
#327=ORIENTED_EDGE('',*,*,#589,.T.);
#328=ORIENTED_EDGE('',*,*,#512,.T.);
#329=ORIENTED_EDGE('',*,*,#599,.F.);
#330=ORIENTED_EDGE('',*,*,#602,.F.);
#331=ORIENTED_EDGE('',*,*,#524,.T.);
#332=ORIENTED_EDGE('',*,*,#542,.F.);
#333=ORIENTED_EDGE('',*,*,#525,.F.);
#334=ORIENTED_EDGE('',*,*,#602,.T.);
#335=ORIENTED_EDGE('',*,*,#598,.T.);
#336=ORIENTED_EDGE('',*,*,#491,.F.);
#337=ORIENTED_EDGE('',*,*,#603,.T.);
#338=ORIENTED_EDGE('',*,*,#520,.F.);
#339=ORIENTED_EDGE('',*,*,#604,.T.);
#340=ORIENTED_EDGE('',*,*,#532,.T.);
#341=ORIENTED_EDGE('',*,*,#497,.T.);
#342=ORIENTED_EDGE('',*,*,#534,.F.);
#343=ORIENTED_EDGE('',*,*,#605,.F.);
#344=ORIENTED_EDGE('',*,*,#518,.T.);
#345=ORIENTED_EDGE('',*,*,#533,.F.);
#346=ORIENTED_EDGE('',*,*,#604,.F.);
#347=ORIENTED_EDGE('',*,*,#519,.F.);
#348=ORIENTED_EDGE('',*,*,#605,.T.);
#349=ORIENTED_EDGE('',*,*,#471,.F.);
#350=ORIENTED_EDGE('',*,*,#595,.F.);
#351=ORIENTED_EDGE('',*,*,#597,.T.);
#352=ORIENTED_EDGE('',*,*,#581,.T.);
#353=ORIENTED_EDGE('',*,*,#586,.T.);
#354=ORIENTED_EDGE('',*,*,#590,.F.);
#355=ORIENTED_EDGE('',*,*,#601,.T.);
#356=ORIENTED_EDGE('',*,*,#479,.T.);
#357=ORIENTED_EDGE('',*,*,#606,.T.);
#358=ORIENTED_EDGE('',*,*,#607,.T.);
#359=ORIENTED_EDGE('',*,*,#606,.F.);
#360=ORIENTED_EDGE('',*,*,#596,.F.);
#361=ORIENTED_EDGE('',*,*,#469,.T.);
#362=ORIENTED_EDGE('',*,*,#478,.T.);
#363=ORIENTED_EDGE('',*,*,#608,.F.);
#364=ORIENTED_EDGE('',*,*,#609,.F.);
#365=ORIENTED_EDGE('',*,*,#610,.T.);
#366=ORIENTED_EDGE('',*,*,#607,.F.);
#367=ORIENTED_EDGE('',*,*,#483,.F.);
#368=ORIENTED_EDGE('',*,*,#567,.F.);
#369=ORIENTED_EDGE('',*,*,#603,.F.);
#370=ORIENTED_EDGE('',*,*,#490,.F.);
#371=ORIENTED_EDGE('',*,*,#561,.F.);
#372=ORIENTED_EDGE('',*,*,#484,.F.);
#373=ORIENTED_EDGE('',*,*,#565,.F.);
#374=ORIENTED_EDGE('',*,*,#571,.F.);
#375=ORIENTED_EDGE('',*,*,#578,.F.);
#376=ORIENTED_EDGE('',*,*,#572,.F.);
#377=ORIENTED_EDGE('',*,*,#579,.F.);
#378=ORIENTED_EDGE('',*,*,#611,.T.);
#379=ORIENTED_EDGE('',*,*,#458,.T.);
#380=ORIENTED_EDGE('',*,*,#612,.F.);
#381=ORIENTED_EDGE('',*,*,#613,.T.);
#382=ORIENTED_EDGE('',*,*,#614,.F.);
#383=ORIENTED_EDGE('',*,*,#482,.F.);
#384=ORIENTED_EDGE('',*,*,#460,.T.);
#385=ORIENTED_EDGE('',*,*,#593,.T.);
#386=ORIENTED_EDGE('',*,*,#615,.T.);
#387=ORIENTED_EDGE('',*,*,#616,.F.);
#388=ORIENTED_EDGE('',*,*,#612,.T.);
#389=ORIENTED_EDGE('',*,*,#465,.T.);
#390=ORIENTED_EDGE('',*,*,#474,.F.);
#391=ORIENTED_EDGE('',*,*,#617,.T.);
#392=ORIENTED_EDGE('',*,*,#618,.T.);
#393=ORIENTED_EDGE('',*,*,#475,.F.);
#394=ORIENTED_EDGE('',*,*,#614,.T.);
#395=ORIENTED_EDGE('',*,*,#459,.F.);
#396=ORIENTED_EDGE('',*,*,#611,.F.);
#397=ORIENTED_EDGE('',*,*,#477,.T.);
#398=ORIENTED_EDGE('',*,*,#619,.T.);
#399=ORIENTED_EDGE('',*,*,#620,.F.);
#400=ORIENTED_EDGE('',*,*,#608,.T.);
#401=ORIENTED_EDGE('',*,*,#620,.T.);
#402=ORIENTED_EDGE('',*,*,#621,.T.);
#403=ORIENTED_EDGE('',*,*,#622,.F.);
#404=ORIENTED_EDGE('',*,*,#609,.T.);
#405=ORIENTED_EDGE('',*,*,#622,.T.);
#406=ORIENTED_EDGE('',*,*,#623,.T.);
#407=ORIENTED_EDGE('',*,*,#591,.F.);
#408=ORIENTED_EDGE('',*,*,#610,.F.);
#409=ORIENTED_EDGE('',*,*,#616,.T.);
#410=ORIENTED_EDGE('',*,*,#624,.T.);
#411=ORIENTED_EDGE('',*,*,#617,.F.);
#412=ORIENTED_EDGE('',*,*,#613,.F.);
#413=ORIENTED_EDGE('',*,*,#625,.F.);
#414=ORIENTED_EDGE('',*,*,#456,.F.);
#415=ORIENTED_EDGE('',*,*,#626,.F.);
#416=ORIENTED_EDGE('',*,*,#623,.F.);
#417=ORIENTED_EDGE('',*,*,#626,.T.);
#418=ORIENTED_EDGE('',*,*,#584,.F.);
#419=ORIENTED_EDGE('',*,*,#627,.F.);
#420=ORIENTED_EDGE('',*,*,#592,.F.);
#421=ORIENTED_EDGE('',*,*,#625,.T.);
#422=ORIENTED_EDGE('',*,*,#621,.F.);
#423=ORIENTED_EDGE('',*,*,#628,.F.);
#424=ORIENTED_EDGE('',*,*,#536,.F.);
#425=ORIENTED_EDGE('',*,*,#627,.T.);
#426=ORIENTED_EDGE('',*,*,#467,.F.);
#427=ORIENTED_EDGE('',*,*,#629,.F.);
#428=ORIENTED_EDGE('',*,*,#615,.F.);
#429=ORIENTED_EDGE('',*,*,#628,.T.);
#430=ORIENTED_EDGE('',*,*,#619,.F.);
#431=ORIENTED_EDGE('',*,*,#630,.F.);
#432=ORIENTED_EDGE('',*,*,#453,.F.);
#433=ORIENTED_EDGE('',*,*,#629,.T.);
#434=ORIENTED_EDGE('',*,*,#600,.T.);
#435=ORIENTED_EDGE('',*,*,#631,.F.);
#436=ORIENTED_EDGE('',*,*,#624,.F.);
#437=ORIENTED_EDGE('',*,*,#630,.T.);
#438=ORIENTED_EDGE('',*,*,#476,.F.);
#439=ORIENTED_EDGE('',*,*,#632,.F.);
#440=ORIENTED_EDGE('',*,*,#587,.T.);
#441=ORIENTED_EDGE('',*,*,#631,.T.);
#442=ORIENTED_EDGE('',*,*,#450,.F.);
#443=ORIENTED_EDGE('',*,*,#632,.T.);
#444=ORIENTED_EDGE('',*,*,#618,.F.);
#445=ORIENTED_EDGE('',*,*,#540,.T.);
#446=ORIENTED_EDGE('',*,*,#577,.F.);
#447=ORIENTED_EDGE('',*,*,#550,.T.);
#448=ORIENTED_EDGE('',*,*,#576,.F.);
#449=EDGE_CURVE('',#633,#634,#759,.T.);
#450=EDGE_CURVE('',#634,#635,#760,.T.);
#451=EDGE_CURVE('',#635,#633,#761,.T.);
#452=EDGE_CURVE('',#636,#637,#762,.T.);
#453=EDGE_CURVE('',#636,#638,#763,.T.);
#454=EDGE_CURVE('',#638,#637,#764,.T.);
#455=EDGE_CURVE('',#639,#640,#765,.T.);
#456=EDGE_CURVE('',#639,#641,#766,.T.);
#457=EDGE_CURVE('',#640,#641,#767,.T.);
#458=EDGE_CURVE('',#642,#643,#768,.T.);
#459=EDGE_CURVE('',#642,#644,#769,.T.);
#460=EDGE_CURVE('',#645,#644,#770,.T.);
#461=EDGE_CURVE('',#645,#646,#771,.T.);
#462=EDGE_CURVE('',#646,#647,#772,.T.);
#463=EDGE_CURVE('',#648,#647,#773,.T.);
#464=EDGE_CURVE('',#649,#648,#774,.T.);
#465=EDGE_CURVE('',#643,#649,#775,.T.);
#466=EDGE_CURVE('',#650,#651,#776,.T.);
#467=EDGE_CURVE('',#651,#652,#777,.T.);
#468=EDGE_CURVE('',#650,#652,#778,.T.);
#469=EDGE_CURVE('',#653,#654,#779,.T.);
#470=EDGE_CURVE('',#653,#655,#780,.T.);
#471=EDGE_CURVE('',#655,#656,#781,.T.);
#472=EDGE_CURVE('',#654,#656,#782,.T.);
#473=EDGE_CURVE('',#648,#657,#783,.T.);
#474=EDGE_CURVE('',#657,#649,#784,.T.);
#475=EDGE_CURVE('',#658,#659,#785,.T.);
#476=EDGE_CURVE('',#659,#660,#786,.T.);
#477=EDGE_CURVE('',#661,#660,#787,.T.);
#478=EDGE_CURVE('',#654,#661,#788,.T.);
#479=EDGE_CURVE('',#662,#656,#789,.T.);
#480=EDGE_CURVE('',#662,#663,#790,.T.);
#481=EDGE_CURVE('',#646,#663,#791,.T.);
#482=EDGE_CURVE('',#645,#658,#792,.T.);
#483=EDGE_CURVE('',#664,#664,#35,.F.);
#484=EDGE_CURVE('',#665,#665,#36,.F.);
#485=EDGE_CURVE('',#666,#666,#37,.T.);
#486=EDGE_CURVE('',#667,#667,#38,.T.);
#487=EDGE_CURVE('',#668,#668,#39,.T.);
#488=EDGE_CURVE('',#669,#669,#40,.T.);
#489=EDGE_CURVE('',#670,#671,#41,.T.);
#490=EDGE_CURVE('',#670,#672,#42,.F.);
#491=EDGE_CURVE('',#672,#673,#793,.T.);
#492=EDGE_CURVE('',#674,#673,#794,.T.);
#493=EDGE_CURVE('',#675,#674,#795,.T.);
#494=EDGE_CURVE('',#676,#675,#796,.T.);
#495=EDGE_CURVE('',#676,#677,#797,.T.);
#496=EDGE_CURVE('',#678,#677,#798,.T.);
#497=EDGE_CURVE('',#679,#678,#799,.T.);
#498=EDGE_CURVE('',#680,#679,#43,.T.);
#499=EDGE_CURVE('',#681,#680,#800,.T.);
#500=EDGE_CURVE('',#682,#681,#801,.T.);
#501=EDGE_CURVE('',#682,#683,#802,.T.);
#502=EDGE_CURVE('',#684,#683,#44,.T.);
#503=EDGE_CURVE('',#685,#684,#45,.T.);
#504=EDGE_CURVE('',#685,#686,#803,.T.);
#505=EDGE_CURVE('',#686,#687,#804,.T.);
#506=EDGE_CURVE('',#687,#688,#805,.T.);
#507=EDGE_CURVE('',#689,#688,#806,.T.);
#508=EDGE_CURVE('',#647,#689,#807,.T.);
#509=EDGE_CURVE('',#690,#663,#808,.T.);
#510=EDGE_CURVE('',#690,#691,#809,.T.);
#511=EDGE_CURVE('',#691,#692,#810,.T.);
#512=EDGE_CURVE('',#693,#692,#811,.T.);
#513=EDGE_CURVE('',#694,#693,#46,.T.);
#514=EDGE_CURVE('',#695,#694,#812,.T.);
#515=EDGE_CURVE('',#696,#695,#813,.T.);
#516=EDGE_CURVE('',#671,#696,#814,.T.);
#517=EDGE_CURVE('',#697,#697,#47,.T.);
#518=EDGE_CURVE('',#698,#679,#815,.T.);
#519=EDGE_CURVE('',#698,#699,#48,.T.);
#520=EDGE_CURVE('',#699,#670,#816,.T.);
#521=EDGE_CURVE('',#700,#671,#817,.T.);
#522=EDGE_CURVE('',#700,#701,#49,.T.);
#523=EDGE_CURVE('',#701,#680,#818,.T.);
#524=EDGE_CURVE('',#702,#693,#819,.T.);
#525=EDGE_CURVE('',#702,#703,#50,.T.);
#526=EDGE_CURVE('',#704,#703,#820,.T.);
#527=EDGE_CURVE('',#705,#704,#51,.T.);
#528=EDGE_CURVE('',#705,#684,#821,.T.);
#529=EDGE_CURVE('',#706,#683,#822,.T.);
#530=EDGE_CURVE('',#706,#707,#52,.T.);
#531=EDGE_CURVE('',#707,#694,#823,.T.);
#532=EDGE_CURVE('',#708,#673,#824,.T.);
#533=EDGE_CURVE('',#708,#709,#825,.T.);
#534=EDGE_CURVE('',#709,#678,#826,.T.);
#535=EDGE_CURVE('',#640,#677,#827,.T.);
#536=EDGE_CURVE('',#641,#636,#828,.T.);
#537=EDGE_CURVE('',#637,#674,#829,.T.);
#538=EDGE_CURVE('',#710,#710,#53,.T.);
#539=EDGE_CURVE('',#711,#711,#54,.T.);
#540=EDGE_CURVE('',#712,#712,#55,.T.);
#541=EDGE_CURVE('',#713,#713,#56,.T.);
#542=EDGE_CURVE('',#703,#714,#830,.T.);
#543=EDGE_CURVE('',#714,#686,#831,.T.);
#544=EDGE_CURVE('',#715,#685,#832,.T.);
#545=EDGE_CURVE('',#716,#715,#833,.T.);
#546=EDGE_CURVE('',#716,#684,#834,.T.);
#547=EDGE_CURVE('',#705,#704,#835,.T.);
#548=EDGE_CURVE('',#717,#717,#57,.T.);
#549=EDGE_CURVE('',#718,#718,#58,.T.);
#550=EDGE_CURVE('',#719,#719,#59,.T.);
#551=EDGE_CURVE('',#720,#720,#60,.T.);
#552=EDGE_CURVE('',#721,#696,#836,.T.);
#553=EDGE_CURVE('',#700,#721,#837,.T.);
#554=EDGE_CURVE('',#722,#701,#838,.T.);
#555=EDGE_CURVE('',#722,#681,#839,.T.);
#556=EDGE_CURVE('',#723,#722,#840,.T.);
#557=EDGE_CURVE('',#723,#682,#841,.T.);
#558=EDGE_CURVE('',#723,#706,#842,.T.);
#559=EDGE_CURVE('',#724,#707,#843,.T.);
#560=EDGE_CURVE('',#724,#695,#844,.T.);
#561=EDGE_CURVE('',#725,#725,#61,.T.);
#562=EDGE_CURVE('',#726,#726,#62,.T.);
#563=EDGE_CURVE('',#727,#727,#63,.T.);
#564=EDGE_CURVE('',#715,#716,#64,.T.);
#565=EDGE_CURVE('',#728,#728,#65,.T.);
#566=EDGE_CURVE('',#729,#729,#66,.T.);
#567=EDGE_CURVE('',#730,#730,#67,.T.);
#568=EDGE_CURVE('',#731,#731,#68,.T.);
#569=EDGE_CURVE('',#732,#733,#69,.T.);
#570=EDGE_CURVE('',#733,#732,#70,.T.);
#571=EDGE_CURVE('',#734,#734,#71,.F.);
#572=EDGE_CURVE('',#735,#735,#72,.F.);
#573=EDGE_CURVE('',#736,#736,#73,.T.);
#574=EDGE_CURVE('',#721,#724,#845,.T.);
#575=EDGE_CURVE('',#737,#737,#74,.T.);
#576=EDGE_CURVE('',#738,#738,#75,.T.);
#577=EDGE_CURVE('',#739,#739,#76,.T.);
#578=EDGE_CURVE('',#732,#732,#77,.T.);
#579=EDGE_CURVE('',#733,#733,#78,.T.);
#580=EDGE_CURVE('',#740,#676,#846,.T.);
#581=EDGE_CURVE('',#741,#740,#847,.T.);
#582=EDGE_CURVE('',#741,#688,#848,.T.);
#583=EDGE_CURVE('',#650,#687,#849,.T.);
#584=EDGE_CURVE('',#652,#639,#850,.T.);
#585=EDGE_CURVE('',#742,#675,#851,.T.);
#586=EDGE_CURVE('',#740,#742,#852,.T.);
#587=EDGE_CURVE('',#634,#638,#853,.T.);
#588=EDGE_CURVE('',#633,#691,#854,.T.);
#589=EDGE_CURVE('',#743,#690,#855,.T.);
#590=EDGE_CURVE('',#743,#742,#856,.T.);
#591=EDGE_CURVE('',#744,#745,#857,.T.);
#592=EDGE_CURVE('',#745,#746,#858,.T.);
#593=EDGE_CURVE('',#657,#746,#859,.T.);
#594=EDGE_CURVE('',#747,#689,#860,.T.);
#595=EDGE_CURVE('',#747,#655,#861,.T.);
#596=EDGE_CURVE('',#653,#744,#862,.T.);
#597=EDGE_CURVE('',#747,#741,#863,.T.);
#598=EDGE_CURVE('',#748,#714,#864,.T.);
#599=EDGE_CURVE('',#748,#692,#865,.T.);
#600=EDGE_CURVE('',#651,#635,#866,.T.);
#601=EDGE_CURVE('',#743,#662,#867,.T.);
#602=EDGE_CURVE('',#702,#748,#868,.T.);
#603=EDGE_CURVE('',#672,#670,#17,.T.);
#604=EDGE_CURVE('',#699,#708,#869,.T.);
#605=EDGE_CURVE('',#698,#709,#870,.T.);
#606=EDGE_CURVE('',#749,#749,#79,.T.);
#607=EDGE_CURVE('',#750,#750,#80,.T.);
#608=EDGE_CURVE('',#751,#661,#871,.T.);
#609=EDGE_CURVE('',#752,#751,#872,.T.);
#610=EDGE_CURVE('',#752,#744,#873,.T.);
#611=EDGE_CURVE('',#753,#642,#874,.T.);
#612=EDGE_CURVE('',#754,#643,#875,.T.);
#613=EDGE_CURVE('',#754,#753,#876,.T.);
#614=EDGE_CURVE('',#658,#644,#877,.T.);
#615=EDGE_CURVE('',#746,#755,#878,.T.);
#616=EDGE_CURVE('',#754,#755,#879,.T.);
#617=EDGE_CURVE('',#753,#756,#880,.T.);
#618=EDGE_CURVE('',#756,#659,#881,.T.);
#619=EDGE_CURVE('',#660,#757,#882,.T.);
#620=EDGE_CURVE('',#751,#757,#883,.T.);
#621=EDGE_CURVE('',#757,#758,#884,.T.);
#622=EDGE_CURVE('',#752,#758,#885,.T.);
#623=EDGE_CURVE('',#758,#745,#886,.T.);
#624=EDGE_CURVE('',#755,#756,#887,.T.);
#625=EDGE_CURVE('',#641,#758,#888,.T.);
#626=EDGE_CURVE('',#745,#639,#889,.T.);
#627=EDGE_CURVE('',#746,#652,#890,.F.);
#628=EDGE_CURVE('',#636,#757,#891,.F.);
#629=EDGE_CURVE('',#755,#651,#892,.F.);
#630=EDGE_CURVE('',#638,#660,#893,.F.);
#631=EDGE_CURVE('',#756,#635,#894,.F.);
#632=EDGE_CURVE('',#634,#659,#895,.T.);
#633=VERTEX_POINT('',#1910);
#634=VERTEX_POINT('',#1911);
#635=VERTEX_POINT('',#1913);
#636=VERTEX_POINT('',#1917);
#637=VERTEX_POINT('',#1918);
#638=VERTEX_POINT('',#1920);
#639=VERTEX_POINT('',#1924);
#640=VERTEX_POINT('',#1925);
#641=VERTEX_POINT('',#1927);
#642=VERTEX_POINT('',#1931);
#643=VERTEX_POINT('',#1932);
#644=VERTEX_POINT('',#1934);
#645=VERTEX_POINT('',#1936);
#646=VERTEX_POINT('',#1938);
#647=VERTEX_POINT('',#1940);
#648=VERTEX_POINT('',#1942);
#649=VERTEX_POINT('',#1944);
#650=VERTEX_POINT('',#1948);
#651=VERTEX_POINT('',#1949);
#652=VERTEX_POINT('',#1951);
#653=VERTEX_POINT('',#1955);
#654=VERTEX_POINT('',#1956);
#655=VERTEX_POINT('',#1958);
#656=VERTEX_POINT('',#1960);
#657=VERTEX_POINT('',#1964);
#658=VERTEX_POINT('',#1968);
#659=VERTEX_POINT('',#1969);
#660=VERTEX_POINT('',#1971);
#661=VERTEX_POINT('',#1973);
#662=VERTEX_POINT('',#1976);
#663=VERTEX_POINT('',#1978);
#664=VERTEX_POINT('',#1983);
#665=VERTEX_POINT('',#1985);
#666=VERTEX_POINT('',#1987);
#667=VERTEX_POINT('',#1989);
#668=VERTEX_POINT('',#1991);
#669=VERTEX_POINT('',#1993);
#670=VERTEX_POINT('',#1995);
#671=VERTEX_POINT('',#1996);
#672=VERTEX_POINT('',#1998);
#673=VERTEX_POINT('',#2000);
#674=VERTEX_POINT('',#2002);
#675=VERTEX_POINT('',#2004);
#676=VERTEX_POINT('',#2006);
#677=VERTEX_POINT('',#2008);
#678=VERTEX_POINT('',#2010);
#679=VERTEX_POINT('',#2012);
#680=VERTEX_POINT('',#2014);
#681=VERTEX_POINT('',#2016);
#682=VERTEX_POINT('',#2018);
#683=VERTEX_POINT('',#2020);
#684=VERTEX_POINT('',#2022);
#685=VERTEX_POINT('',#2024);
#686=VERTEX_POINT('',#2026);
#687=VERTEX_POINT('',#2028);
#688=VERTEX_POINT('',#2030);
#689=VERTEX_POINT('',#2032);
#690=VERTEX_POINT('',#2035);
#691=VERTEX_POINT('',#2037);
#692=VERTEX_POINT('',#2039);
#693=VERTEX_POINT('',#2041);
#694=VERTEX_POINT('',#2043);
#695=VERTEX_POINT('',#2045);
#696=VERTEX_POINT('',#2047);
#697=VERTEX_POINT('',#2051);
#698=VERTEX_POINT('',#2053);
#699=VERTEX_POINT('',#2055);
#700=VERTEX_POINT('',#2058);
#701=VERTEX_POINT('',#2060);
#702=VERTEX_POINT('',#2064);
#703=VERTEX_POINT('',#2066);
#704=VERTEX_POINT('',#2068);
#705=VERTEX_POINT('',#2070);
#706=VERTEX_POINT('',#2073);
#707=VERTEX_POINT('',#2075);
#708=VERTEX_POINT('',#2079);
#709=VERTEX_POINT('',#2081);
#710=VERTEX_POINT('',#2088);
#711=VERTEX_POINT('',#2090);
#712=VERTEX_POINT('',#2094);
#713=VERTEX_POINT('',#2096);
#714=VERTEX_POINT('',#2099);
#715=VERTEX_POINT('',#2102);
#716=VERTEX_POINT('',#2104);
#717=VERTEX_POINT('',#2109);
#718=VERTEX_POINT('',#2111);
#719=VERTEX_POINT('',#2115);
#720=VERTEX_POINT('',#2117);
#721=VERTEX_POINT('',#2120);
#722=VERTEX_POINT('',#2124);
#723=VERTEX_POINT('',#2128);
#724=VERTEX_POINT('',#2134);
#725=VERTEX_POINT('',#2138);
#726=VERTEX_POINT('',#2140);
#727=VERTEX_POINT('',#2143);
#728=VERTEX_POINT('',#2148);
#729=VERTEX_POINT('',#2150);
#730=VERTEX_POINT('',#2153);
#731=VERTEX_POINT('',#2155);
#732=VERTEX_POINT('',#2158);
#733=VERTEX_POINT('',#2159);
#734=VERTEX_POINT('',#2163);
#735=VERTEX_POINT('',#2166);
#736=VERTEX_POINT('',#2169);
#737=VERTEX_POINT('',#2174);
#738=VERTEX_POINT('',#2177);
#739=VERTEX_POINT('',#2179);
#740=VERTEX_POINT('',#2184);
#741=VERTEX_POINT('',#2186);
#742=VERTEX_POINT('',#2192);
#743=VERTEX_POINT('',#2198);
#744=VERTEX_POINT('',#2202);
#745=VERTEX_POINT('',#2203);
#746=VERTEX_POINT('',#2205);
#747=VERTEX_POINT('',#2208);
#748=VERTEX_POINT('',#2215);
#749=VERTEX_POINT('',#2234);
#750=VERTEX_POINT('',#2237);
#751=VERTEX_POINT('',#2240);
#752=VERTEX_POINT('',#2242);
#753=VERTEX_POINT('',#2251);
#754=VERTEX_POINT('',#2253);
#755=VERTEX_POINT('',#2259);
#756=VERTEX_POINT('',#2263);
#757=VERTEX_POINT('',#2267);
#758=VERTEX_POINT('',#2271);
#759=LINE('',#1909,#896);
#760=LINE('',#1912,#897);
#761=LINE('',#1914,#898);
#762=LINE('',#1916,#899);
#763=LINE('',#1919,#900);
#764=LINE('',#1921,#901);
#765=LINE('',#1923,#902);
#766=LINE('',#1926,#903);
#767=LINE('',#1928,#904);
#768=LINE('',#1930,#905);
#769=LINE('',#1933,#906);
#770=LINE('',#1935,#907);
#771=LINE('',#1937,#908);
#772=LINE('',#1939,#909);
#773=LINE('',#1941,#910);
#774=LINE('',#1943,#911);
#775=LINE('',#1945,#912);
#776=LINE('',#1947,#913);
#777=LINE('',#1950,#914);
#778=LINE('',#1952,#915);
#779=LINE('',#1954,#916);
#780=LINE('',#1957,#917);
#781=LINE('',#1959,#918);
#782=LINE('',#1961,#919);
#783=LINE('',#1963,#920);
#784=LINE('',#1965,#921);
#785=LINE('',#1967,#922);
#786=LINE('',#1970,#923);
#787=LINE('',#1972,#924);
#788=LINE('',#1974,#925);
#789=LINE('',#1975,#926);
#790=LINE('',#1977,#927);
#791=LINE('',#1979,#928);
#792=LINE('',#1980,#929);
#793=LINE('',#1999,#930);
#794=LINE('',#2001,#931);
#795=LINE('',#2003,#932);
#796=LINE('',#2005,#933);
#797=LINE('',#2007,#934);
#798=LINE('',#2009,#935);
#799=LINE('',#2011,#936);
#800=LINE('',#2015,#937);
#801=LINE('',#2017,#938);
#802=LINE('',#2019,#939);
#803=LINE('',#2025,#940);
#804=LINE('',#2027,#941);
#805=LINE('',#2029,#942);
#806=LINE('',#2031,#943);
#807=LINE('',#2033,#944);
#808=LINE('',#2034,#945);
#809=LINE('',#2036,#946);
#810=LINE('',#2038,#947);
#811=LINE('',#2040,#948);
#812=LINE('',#2044,#949);
#813=LINE('',#2046,#950);
#814=LINE('',#2048,#951);
#815=LINE('',#2052,#952);
#816=LINE('',#2056,#953);
#817=LINE('',#2057,#954);
#818=LINE('',#2061,#955);
#819=LINE('',#2063,#956);
#820=LINE('',#2067,#957);
#821=LINE('',#2071,#958);
#822=LINE('',#2072,#959);
#823=LINE('',#2076,#960);
#824=LINE('',#2078,#961);
#825=LINE('',#2080,#962);
#826=LINE('',#2082,#963);
#827=LINE('',#2083,#964);
#828=LINE('',#2084,#965);
#829=LINE('',#2085,#966);
#830=LINE('',#2098,#967);
#831=LINE('',#2100,#968);
#832=LINE('',#2101,#969);
#833=LINE('',#2103,#970);
#834=LINE('',#2105,#971);
#835=LINE('',#2106,#972);
#836=LINE('',#2119,#973);
#837=LINE('',#2121,#974);
#838=LINE('',#2123,#975);
#839=LINE('',#2125,#976);
#840=LINE('',#2127,#977);
#841=LINE('',#2129,#978);
#842=LINE('',#2131,#979);
#843=LINE('',#2133,#980);
#844=LINE('',#2135,#981);
#845=LINE('',#2171,#982);
#846=LINE('',#2183,#983);
#847=LINE('',#2185,#984);
#848=LINE('',#2187,#985);
#849=LINE('',#2188,#986);
#850=LINE('',#2189,#987);
#851=LINE('',#2191,#988);
#852=LINE('',#2193,#989);
#853=LINE('',#2195,#990);
#854=LINE('',#2196,#991);
#855=LINE('',#2197,#992);
#856=LINE('',#2199,#993);
#857=LINE('',#2201,#994);
#858=LINE('',#2204,#995);
#859=LINE('',#2206,#996);
#860=LINE('',#2207,#997);
#861=LINE('',#2209,#998);
#862=LINE('',#2210,#999);
#863=LINE('',#2212,#1000);
#864=LINE('',#2214,#1001);
#865=LINE('',#2216,#1002);
#866=LINE('',#2217,#1003);
#867=LINE('',#2219,#1004);
#868=LINE('',#2221,#1005);
#869=LINE('',#2228,#1006);
#870=LINE('',#2230,#1007);
#871=LINE('',#2239,#1008);
#872=LINE('',#2241,#1009);
#873=LINE('',#2243,#1010);
#874=LINE('',#2250,#1011);
#875=LINE('',#2252,#1012);
#876=LINE('',#2254,#1013);
#877=LINE('',#2256,#1014);
#878=LINE('',#2258,#1015);
#879=LINE('',#2260,#1016);
#880=LINE('',#2262,#1017);
#881=LINE('',#2264,#1018);
#882=LINE('',#2266,#1019);
#883=LINE('',#2268,#1020);
#884=LINE('',#2270,#1021);
#885=LINE('',#2272,#1022);
#886=LINE('',#2274,#1023);
#887=LINE('',#2276,#1024);
#888=LINE('',#2278,#1025);
#889=LINE('',#2279,#1026);
#890=LINE('',#2281,#1027);
#891=LINE('',#2283,#1028);
#892=LINE('',#2285,#1029);
#893=LINE('',#2287,#1030);
#894=LINE('',#2289,#1031);
#895=LINE('',#2291,#1032);
#896=VECTOR('',#1532,1.);
#897=VECTOR('',#1533,1.);
#898=VECTOR('',#1534,1.);
#899=VECTOR('',#1537,1.);
#900=VECTOR('',#1538,1.);
#901=VECTOR('',#1539,1.);
#902=VECTOR('',#1542,1.);
#903=VECTOR('',#1543,1.);
#904=VECTOR('',#1544,1.);
#905=VECTOR('',#1547,1.);
#906=VECTOR('',#1548,1.);
#907=VECTOR('',#1549,1.);
#908=VECTOR('',#1550,1.);
#909=VECTOR('',#1551,1.);
#910=VECTOR('',#1552,1.);
#911=VECTOR('',#1553,1.);
#912=VECTOR('',#1554,1.);
#913=VECTOR('',#1557,1.);
#914=VECTOR('',#1558,1.);
#915=VECTOR('',#1559,1.);
#916=VECTOR('',#1562,1.);
#917=VECTOR('',#1563,1.);
#918=VECTOR('',#1564,1.);
#919=VECTOR('',#1565,1.);
#920=VECTOR('',#1568,1.);
#921=VECTOR('',#1569,1.);
#922=VECTOR('',#1572,1.);
#923=VECTOR('',#1573,1.);
#924=VECTOR('',#1574,1.);
#925=VECTOR('',#1575,1.);
#926=VECTOR('',#1576,1.);
#927=VECTOR('',#1577,1.);
#928=VECTOR('',#1578,1.);
#929=VECTOR('',#1579,1.);
#930=VECTOR('',#1598,1.);
#931=VECTOR('',#1599,1.);
#932=VECTOR('',#1600,1.);
#933=VECTOR('',#1601,1.);
#934=VECTOR('',#1602,1.);
#935=VECTOR('',#1603,1.);
#936=VECTOR('',#1604,1.);
#937=VECTOR('',#1607,1.);
#938=VECTOR('',#1608,1.);
#939=VECTOR('',#1609,1.);
#940=VECTOR('',#1614,1.);
#941=VECTOR('',#1615,1.);
#942=VECTOR('',#1616,1.);
#943=VECTOR('',#1617,1.);
#944=VECTOR('',#1618,1.);
#945=VECTOR('',#1619,1.);
#946=VECTOR('',#1620,1.);
#947=VECTOR('',#1621,1.);
#948=VECTOR('',#1622,1.);
#949=VECTOR('',#1625,1.);
#950=VECTOR('',#1626,1.);
#951=VECTOR('',#1627,1.);
#952=VECTOR('',#1632,1.);
#953=VECTOR('',#1635,1.);
#954=VECTOR('',#1636,1.);
#955=VECTOR('',#1639,1.);
#956=VECTOR('',#1642,1.);
#957=VECTOR('',#1645,1.);
#958=VECTOR('',#1648,1.);
#959=VECTOR('',#1649,1.);
#960=VECTOR('',#1652,1.);
#961=VECTOR('',#1655,1.);
#962=VECTOR('',#1656,1.);
#963=VECTOR('',#1657,1.);
#964=VECTOR('',#1658,1.);
#965=VECTOR('',#1659,1.);
#966=VECTOR('',#1660,1.);
#967=VECTOR('',#1677,1.);
#968=VECTOR('',#1678,1.);
#969=VECTOR('',#1679,1.);
#970=VECTOR('',#1680,1.);
#971=VECTOR('',#1681,1.);
#972=VECTOR('',#1682,1.);
#973=VECTOR('',#1699,1.);
#974=VECTOR('',#1700,1.);
#975=VECTOR('',#1703,1.);
#976=VECTOR('',#1704,1.);
#977=VECTOR('',#1707,1.);
#978=VECTOR('',#1708,1.);
#979=VECTOR('',#1711,1.);
#980=VECTOR('',#1714,1.);
#981=VECTOR('',#1715,1.);
#982=VECTOR('',#1762,1.);
#983=VECTOR('',#1779,1.);
#984=VECTOR('',#1780,1.);
#985=VECTOR('',#1781,1.);
#986=VECTOR('',#1782,1.);
#987=VECTOR('',#1783,1.);
#988=VECTOR('',#1786,1.);
#989=VECTOR('',#1787,1.);
#990=VECTOR('',#1790,1.);
#991=VECTOR('',#1791,1.);
#992=VECTOR('',#1792,1.);
#993=VECTOR('',#1793,1.);
#994=VECTOR('',#1796,1.);
#995=VECTOR('',#1797,1.);
#996=VECTOR('',#1798,1.);
#997=VECTOR('',#1799,1.);
#998=VECTOR('',#1800,1.);
#999=VECTOR('',#1801,1.);
#1000=VECTOR('',#1804,1.);
#1001=VECTOR('',#1807,1.);
#1002=VECTOR('',#1808,1.);
#1003=VECTOR('',#1809,1.);
#1004=VECTOR('',#1812,1.);
#1005=VECTOR('',#1815,1.);
#1006=VECTOR('',#1820,1.);
#1007=VECTOR('',#1823,1.);
#1008=VECTOR('',#1836,1.);
#1009=VECTOR('',#1837,1.);
#1010=VECTOR('',#1838,1.);
#1011=VECTOR('',#1851,1.);
#1012=VECTOR('',#1852,1.);
#1013=VECTOR('',#1853,1.);
#1014=VECTOR('',#1856,1.);
#1015=VECTOR('',#1859,1.);
#1016=VECTOR('',#1860,1.);
#1017=VECTOR('',#1863,1.);
#1018=VECTOR('',#1864,1.);
#1019=VECTOR('',#1867,1.);
#1020=VECTOR('',#1868,1.);
#1021=VECTOR('',#1871,1.);
#1022=VECTOR('',#1872,1.);
#1023=VECTOR('',#1875,1.);
#1024=VECTOR('',#1878,1.);
#1025=VECTOR('',#1881,1.);
#1026=VECTOR('',#1882,1.);
#1027=VECTOR('',#1885,1.);
#1028=VECTOR('',#1888,1.);
#1029=VECTOR('',#1891,1.);
#1030=VECTOR('',#1894,1.);
#1031=VECTOR('',#1897,1.);
#1032=VECTOR('',#1900,1.);
#1033=EDGE_LOOP('',(#81,#82,#83));
#1034=EDGE_LOOP('',(#84,#85,#86));
#1035=EDGE_LOOP('',(#87,#88,#89));
#1036=EDGE_LOOP('',(#90,#91,#92,#93,#94,#95,#96,#97));
#1037=EDGE_LOOP('',(#98,#99,#100));
#1038=EDGE_LOOP('',(#101,#102,#103,#104));
#1039=EDGE_LOOP('',(#105,#106,#107));
#1040=EDGE_LOOP('',(#108,#109,#110,#111,#112,#113,#114,#115,#116,#117));
#1041=EDGE_LOOP('',(#118));
#1042=EDGE_LOOP('',(#119));
#1043=EDGE_LOOP('',(#120));
#1044=EDGE_LOOP('',(#121));
#1045=EDGE_LOOP('',(#122));
#1046=EDGE_LOOP('',(#123));
#1047=EDGE_LOOP('',(#124,#125,#126,#127,#128,#129,#130,#131,#132,#133,#134,
#135,#136,#137,#138,#139,#140,#141,#142,#143,#144,#145,#146,#147,#148,#149,
#150,#151,#152,#153));
#1048=EDGE_LOOP('',(#154));
#1049=EDGE_LOOP('',(#155,#156,#157,#158,#159,#160,#161,#162));
#1050=EDGE_LOOP('',(#163,#164,#165,#166,#167,#168,#169,#170,#171,#172));
#1051=EDGE_LOOP('',(#173,#174,#175,#176,#177,#178,#179,#180,#181,#182));
#1052=EDGE_LOOP('',(#183));
#1053=EDGE_LOOP('',(#184));
#1054=EDGE_LOOP('',(#185));
#1055=EDGE_LOOP('',(#186));
#1056=EDGE_LOOP('',(#187));
#1057=EDGE_LOOP('',(#188));
#1058=EDGE_LOOP('',(#189));
#1059=EDGE_LOOP('',(#190,#191,#192,#193,#194,#195,#196,#197,#198));
#1060=EDGE_LOOP('',(#199));
#1061=EDGE_LOOP('',(#200));
#1062=EDGE_LOOP('',(#201,#202));
#1063=EDGE_LOOP('',(#203));
#1064=EDGE_LOOP('',(#204));
#1065=EDGE_LOOP('',(#205));
#1066=EDGE_LOOP('',(#206));
#1067=EDGE_LOOP('',(#207,#208,#209,#210));
#1068=EDGE_LOOP('',(#211,#212,#213,#214));
#1069=EDGE_LOOP('',(#215,#216,#217,#218));
#1070=EDGE_LOOP('',(#219,#220,#221,#222));
#1071=EDGE_LOOP('',(#223,#224,#225,#226));
#1072=EDGE_LOOP('',(#227));
#1073=EDGE_LOOP('',(#228));
#1074=EDGE_LOOP('',(#229));
#1075=EDGE_LOOP('',(#230));
#1076=EDGE_LOOP('',(#231,#232,#233,#234));
#1077=EDGE_LOOP('',(#235));
#1078=EDGE_LOOP('',(#236));
#1079=EDGE_LOOP('',(#237));
#1080=EDGE_LOOP('',(#238));
#1081=EDGE_LOOP('',(#239,#240));
#1082=EDGE_LOOP('',(#241));
#1083=EDGE_LOOP('',(#242));
#1084=EDGE_LOOP('',(#243));
#1085=EDGE_LOOP('',(#244));
#1086=EDGE_LOOP('',(#245));
#1087=EDGE_LOOP('',(#246));
#1088=EDGE_LOOP('',(#247));
#1089=EDGE_LOOP('',(#248,#249,#250,#251));
#1090=EDGE_LOOP('',(#252));
#1091=EDGE_LOOP('',(#253));
#1092=EDGE_LOOP('',(#254));
#1093=EDGE_LOOP('',(#255));
#1094=EDGE_LOOP('',(#256,#257,#258,#259,#260,#261,#262,#263));
#1095=EDGE_LOOP('',(#264));
#1096=EDGE_LOOP('',(#265,#266,#267,#268));
#1097=EDGE_LOOP('',(#269));
#1098=EDGE_LOOP('',(#270));
#1099=EDGE_LOOP('',(#271,#272));
#1100=EDGE_LOOP('',(#273));
#1101=EDGE_LOOP('',(#274));
#1102=EDGE_LOOP('',(#275));
#1103=EDGE_LOOP('',(#276,#277,#278,#279,#280,#281,#282,#283,#284,#285));
#1104=EDGE_LOOP('',(#286,#287,#288,#289));
#1105=EDGE_LOOP('',(#290,#291,#292,#293,#294,#295,#296,#297,#298,#299));
#1106=EDGE_LOOP('',(#300,#301,#302,#303,#304,#305,#306,#307,#308,#309));
#1107=EDGE_LOOP('',(#310,#311,#312,#313));
#1108=EDGE_LOOP('',(#314,#315,#316,#317,#318,#319,#320,#321,#322,#323));
#1109=EDGE_LOOP('',(#324,#325,#326,#327));
#1110=EDGE_LOOP('',(#328,#329,#330,#331));
#1111=EDGE_LOOP('',(#332,#333,#334,#335));
#1112=EDGE_LOOP('',(#336,#337,#338,#339,#340));
#1113=EDGE_LOOP('',(#341,#342,#343,#344));
#1114=EDGE_LOOP('',(#345,#346,#347,#348));
#1115=EDGE_LOOP('',(#349,#350,#351,#352,#353,#354,#355,#356));
#1116=EDGE_LOOP('',(#357));
#1117=EDGE_LOOP('',(#358));
#1118=EDGE_LOOP('',(#359));
#1119=EDGE_LOOP('',(#360,#361,#362,#363,#364,#365));
#1120=EDGE_LOOP('',(#366));
#1121=EDGE_LOOP('',(#367));
#1122=EDGE_LOOP('',(#368));
#1123=EDGE_LOOP('',(#369,#370));
#1124=EDGE_LOOP('',(#371));
#1125=EDGE_LOOP('',(#372));
#1126=EDGE_LOOP('',(#373));
#1127=EDGE_LOOP('',(#374));
#1128=EDGE_LOOP('',(#375));
#1129=EDGE_LOOP('',(#376));
#1130=EDGE_LOOP('',(#377));
#1131=EDGE_LOOP('',(#378,#379,#380,#381));
#1132=EDGE_LOOP('',(#382,#383,#384));
#1133=EDGE_LOOP('',(#385,#386,#387,#388,#389,#390));
#1134=EDGE_LOOP('',(#391,#392,#393,#394,#395,#396));
#1135=EDGE_LOOP('',(#397,#398,#399,#400));
#1136=EDGE_LOOP('',(#401,#402,#403,#404));
#1137=EDGE_LOOP('',(#405,#406,#407,#408));
#1138=EDGE_LOOP('',(#409,#410,#411,#412));
#1139=EDGE_LOOP('',(#413,#414,#415,#416));
#1140=EDGE_LOOP('',(#417,#418,#419,#420));
#1141=EDGE_LOOP('',(#421,#422,#423,#424));
#1142=EDGE_LOOP('',(#425,#426,#427,#428));
#1143=EDGE_LOOP('',(#429,#430,#431,#432));
#1144=EDGE_LOOP('',(#433,#434,#435,#436));
#1145=EDGE_LOOP('',(#437,#438,#439,#440));
#1146=EDGE_LOOP('',(#441,#442,#443,#444));
#1147=EDGE_LOOP('',(#445));
#1148=EDGE_LOOP('',(#446));
#1149=EDGE_LOOP('',(#447));
#1150=EDGE_LOOP('',(#448));
#1151=FACE_BOUND('',#1033,.T.);
#1152=FACE_BOUND('',#1034,.T.);
#1153=FACE_BOUND('',#1035,.T.);
#1154=FACE_BOUND('',#1036,.T.);
#1155=FACE_BOUND('',#1037,.T.);
#1156=FACE_BOUND('',#1038,.T.);
#1157=FACE_BOUND('',#1039,.T.);
#1158=FACE_BOUND('',#1040,.T.);
#1159=FACE_BOUND('',#1041,.T.);
#1160=FACE_BOUND('',#1042,.T.);
#1161=FACE_BOUND('',#1043,.T.);
#1162=FACE_BOUND('',#1044,.T.);
#1163=FACE_BOUND('',#1045,.T.);
#1164=FACE_BOUND('',#1046,.T.);
#1165=FACE_BOUND('',#1047,.T.);
#1166=FACE_BOUND('',#1048,.T.);
#1167=FACE_BOUND('',#1049,.T.);
#1168=FACE_BOUND('',#1050,.T.);
#1169=FACE_BOUND('',#1051,.T.);
#1170=FACE_BOUND('',#1052,.T.);
#1171=FACE_BOUND('',#1053,.T.);
#1172=FACE_BOUND('',#1054,.T.);
#1173=FACE_BOUND('',#1055,.T.);
#1174=FACE_BOUND('',#1056,.T.);
#1175=FACE_BOUND('',#1057,.T.);
#1176=FACE_BOUND('',#1058,.T.);
#1177=FACE_BOUND('',#1059,.T.);
#1178=FACE_BOUND('',#1060,.T.);
#1179=FACE_BOUND('',#1061,.T.);
#1180=FACE_BOUND('',#1062,.T.);
#1181=FACE_BOUND('',#1063,.T.);
#1182=FACE_BOUND('',#1064,.T.);
#1183=FACE_BOUND('',#1065,.T.);
#1184=FACE_BOUND('',#1066,.T.);
#1185=FACE_BOUND('',#1067,.T.);
#1186=FACE_BOUND('',#1068,.T.);
#1187=FACE_BOUND('',#1069,.T.);
#1188=FACE_BOUND('',#1070,.T.);
#1189=FACE_BOUND('',#1071,.T.);
#1190=FACE_BOUND('',#1072,.T.);
#1191=FACE_BOUND('',#1073,.T.);
#1192=FACE_BOUND('',#1074,.T.);
#1193=FACE_BOUND('',#1075,.T.);
#1194=FACE_BOUND('',#1076,.T.);
#1195=FACE_BOUND('',#1077,.T.);
#1196=FACE_BOUND('',#1078,.T.);
#1197=FACE_BOUND('',#1079,.T.);
#1198=FACE_BOUND('',#1080,.T.);
#1199=FACE_BOUND('',#1081,.T.);
#1200=FACE_BOUND('',#1082,.T.);
#1201=FACE_BOUND('',#1083,.T.);
#1202=FACE_BOUND('',#1084,.T.);
#1203=FACE_BOUND('',#1085,.T.);
#1204=FACE_BOUND('',#1086,.T.);
#1205=FACE_BOUND('',#1087,.T.);
#1206=FACE_BOUND('',#1088,.T.);
#1207=FACE_BOUND('',#1089,.T.);
#1208=FACE_BOUND('',#1090,.T.);
#1209=FACE_BOUND('',#1091,.T.);
#1210=FACE_BOUND('',#1092,.T.);
#1211=FACE_BOUND('',#1093,.T.);
#1212=FACE_BOUND('',#1094,.T.);
#1213=FACE_BOUND('',#1095,.T.);
#1214=FACE_BOUND('',#1096,.T.);
#1215=FACE_BOUND('',#1097,.T.);
#1216=FACE_BOUND('',#1098,.T.);
#1217=FACE_BOUND('',#1099,.T.);
#1218=FACE_BOUND('',#1100,.T.);
#1219=FACE_BOUND('',#1101,.T.);
#1220=FACE_BOUND('',#1102,.T.);
#1221=FACE_BOUND('',#1103,.T.);
#1222=FACE_BOUND('',#1104,.T.);
#1223=FACE_BOUND('',#1105,.T.);
#1224=FACE_BOUND('',#1106,.T.);
#1225=FACE_BOUND('',#1107,.T.);
#1226=FACE_BOUND('',#1108,.T.);
#1227=FACE_BOUND('',#1109,.T.);
#1228=FACE_BOUND('',#1110,.T.);
#1229=FACE_BOUND('',#1111,.T.);
#1230=FACE_BOUND('',#1112,.T.);
#1231=FACE_BOUND('',#1113,.T.);
#1232=FACE_BOUND('',#1114,.T.);
#1233=FACE_BOUND('',#1115,.T.);
#1234=FACE_BOUND('',#1116,.T.);
#1235=FACE_BOUND('',#1117,.T.);
#1236=FACE_BOUND('',#1118,.T.);
#1237=FACE_BOUND('',#1119,.T.);
#1238=FACE_BOUND('',#1120,.T.);
#1239=FACE_BOUND('',#1121,.T.);
#1240=FACE_BOUND('',#1122,.T.);
#1241=FACE_BOUND('',#1123,.T.);
#1242=FACE_BOUND('',#1124,.T.);
#1243=FACE_BOUND('',#1125,.T.);
#1244=FACE_BOUND('',#1126,.T.);
#1245=FACE_BOUND('',#1127,.T.);
#1246=FACE_BOUND('',#1128,.T.);
#1247=FACE_BOUND('',#1129,.T.);
#1248=FACE_BOUND('',#1130,.T.);
#1249=FACE_BOUND('',#1131,.T.);
#1250=FACE_BOUND('',#1132,.T.);
#1251=FACE_BOUND('',#1133,.T.);
#1252=FACE_BOUND('',#1134,.T.);
#1253=FACE_BOUND('',#1135,.T.);
#1254=FACE_BOUND('',#1136,.T.);
#1255=FACE_BOUND('',#1137,.T.);
#1256=FACE_BOUND('',#1138,.T.);
#1257=FACE_BOUND('',#1139,.T.);
#1258=FACE_BOUND('',#1140,.T.);
#1259=FACE_BOUND('',#1141,.T.);
#1260=FACE_BOUND('',#1142,.T.);
#1261=FACE_BOUND('',#1143,.T.);
#1262=FACE_BOUND('',#1144,.T.);
#1263=FACE_BOUND('',#1145,.T.);
#1264=FACE_BOUND('',#1146,.T.);
#1265=FACE_BOUND('',#1147,.T.);
#1266=FACE_BOUND('',#1148,.T.);
#1267=FACE_BOUND('',#1149,.T.);
#1268=FACE_BOUND('',#1150,.T.);
#1269=PLANE('',#1408);
#1270=PLANE('',#1409);
#1271=PLANE('',#1410);
#1272=PLANE('',#1411);
#1273=PLANE('',#1412);
#1274=PLANE('',#1413);
#1275=PLANE('',#1414);
#1276=PLANE('',#1415);
#1277=PLANE('',#1416);
#1278=PLANE('',#1437);
#1279=PLANE('',#1441);
#1280=PLANE('',#1442);
#1281=PLANE('',#1445);
#1282=PLANE('',#1449);
#1283=PLANE('',#1450);
#1284=PLANE('',#1453);
#1285=PLANE('',#1454);
#1286=PLANE('',#1455);
#1287=PLANE('',#1456);
#1288=PLANE('',#1457);
#1289=PLANE('',#1480);
#1290=PLANE('',#1483);
#1291=PLANE('',#1488);
#1292=PLANE('',#1489);
#1293=PLANE('',#1490);
#1294=PLANE('',#1491);
#1295=PLANE('',#1492);
#1296=PLANE('',#1493);
#1297=PLANE('',#1494);
#1298=PLANE('',#1495);
#1299=PLANE('',#1496);
#1300=PLANE('',#1497);
#1301=PLANE('',#1498);
#1302=PLANE('',#1499);
#1303=PLANE('',#1500);
#1304=PLANE('',#1504);
#1305=PLANE('',#1510);
#1306=PLANE('',#1511);
#1307=PLANE('',#1512);
#1308=PLANE('',#1513);
#1309=PLANE('',#1514);
#1310=PLANE('',#1515);
#1311=PLANE('',#1516);
#1312=PLANE('',#1517);
#1313=PLANE('',#1518);
#1314=PLANE('',#1519);
#1315=PLANE('',#1520);
#1316=PLANE('',#1521);
#1317=PLANE('',#1522);
#1318=PLANE('',#1523);
#1319=PLANE('',#1524);
#1320=PLANE('',#1525);
#1321=ADVANCED_FACE('',(#1151),#1269,.T.);
#1322=ADVANCED_FACE('',(#1152),#1270,.T.);
#1323=ADVANCED_FACE('',(#1153),#1271,.T.);
#1324=ADVANCED_FACE('',(#1154),#1272,.F.);
#1325=ADVANCED_FACE('',(#1155),#1273,.T.);
#1326=ADVANCED_FACE('',(#1156),#1274,.F.);
#1327=ADVANCED_FACE('',(#1157),#1275,.T.);
#1328=ADVANCED_FACE('',(#1158),#1276,.T.);
#1329=ADVANCED_FACE('',(#1159,#1160,#1161,#1162,#1163,#1164,#1165),#1277,
 .T.);
#1330=ADVANCED_FACE('',(#1166,#1167),#18,.T.);
#1331=ADVANCED_FACE('',(#1168),#19,.T.);
#1332=ADVANCED_FACE('',(#1169),#1278,.F.);
#1333=ADVANCED_FACE('',(#1170,#1171),#20,.F.);
#1334=ADVANCED_FACE('',(#1172,#1173),#1279,.T.);
#1335=ADVANCED_FACE('',(#1174,#1175,#1176),#1280,.T.);
#1336=ADVANCED_FACE('',(#1177),#1281,.T.);
#1337=ADVANCED_FACE('',(#1178,#1179),#21,.F.);
#1338=ADVANCED_FACE('',(#1180,#1181),#1282,.T.);
#1339=ADVANCED_FACE('',(#1182,#1183,#1184),#1283,.T.);
#1340=ADVANCED_FACE('',(#1185),#1284,.F.);
#1341=ADVANCED_FACE('',(#1186),#1285,.F.);
#1342=ADVANCED_FACE('',(#1187),#1286,.F.);
#1343=ADVANCED_FACE('',(#1188),#1287,.T.);
#1344=ADVANCED_FACE('',(#1189),#1288,.F.);
#1345=ADVANCED_FACE('',(#1190,#1191),#22,.F.);
#1346=ADVANCED_FACE('',(#1192,#1193),#23,.F.);
#1347=ADVANCED_FACE('',(#1194),#24,.F.);
#1348=ADVANCED_FACE('',(#1195,#1196),#25,.F.);
#1349=ADVANCED_FACE('',(#1197,#1198),#26,.F.);
#1350=ADVANCED_FACE('',(#1199,#1200),#27,.F.);
#1351=ADVANCED_FACE('',(#1201,#1202),#28,.F.);
#1352=ADVANCED_FACE('',(#1203,#1204),#29,.F.);
#1353=ADVANCED_FACE('',(#1205,#1206),#30,.F.);
#1354=ADVANCED_FACE('',(#1207),#1289,.F.);
#1355=ADVANCED_FACE('',(#1208,#1209),#31,.F.);
#1356=ADVANCED_FACE('',(#1210,#1211,#1212,#1213,#1214,#1215,#1216,#1217,
#1218,#1219,#1220),#1290,.F.);
#1357=ADVANCED_FACE('',(#1221),#1291,.T.);
#1358=ADVANCED_FACE('',(#1222),#1292,.F.);
#1359=ADVANCED_FACE('',(#1223),#1293,.F.);
#1360=ADVANCED_FACE('',(#1224),#1294,.F.);
#1361=ADVANCED_FACE('',(#1225),#1295,.F.);
#1362=ADVANCED_FACE('',(#1226),#1296,.T.);
#1363=ADVANCED_FACE('',(#1227),#1297,.F.);
#1364=ADVANCED_FACE('',(#1228),#1298,.F.);
#1365=ADVANCED_FACE('',(#1229),#1299,.T.);
#1366=ADVANCED_FACE('',(#1230),#1300,.T.);
#1367=ADVANCED_FACE('',(#1231),#1301,.F.);
#1368=ADVANCED_FACE('',(#1232),#1302,.T.);
#1369=ADVANCED_FACE('',(#1233,#1234),#1303,.F.);
#1370=ADVANCED_FACE('',(#1235,#1236),#32,.F.);
#1371=ADVANCED_FACE('',(#1237,#1238),#1304,.T.);
#1372=ADVANCED_FACE('',(#1239,#1240),#12,.F.);
#1373=ADVANCED_FACE('',(#1241,#1242),#13,.F.);
#1374=ADVANCED_FACE('',(#1243,#1244),#14,.F.);
#1375=ADVANCED_FACE('',(#1245,#1246),#15,.F.);
#1376=ADVANCED_FACE('',(#1247,#1248),#16,.F.);
#1377=ADVANCED_FACE('',(#1249),#1305,.T.);
#1378=ADVANCED_FACE('',(#1250),#1306,.T.);
#1379=ADVANCED_FACE('',(#1251),#1307,.T.);
#1380=ADVANCED_FACE('',(#1252),#1308,.F.);
#1381=ADVANCED_FACE('',(#1253),#1309,.T.);
#1382=ADVANCED_FACE('',(#1254),#1310,.T.);
#1383=ADVANCED_FACE('',(#1255),#1311,.F.);
#1384=ADVANCED_FACE('',(#1256),#1312,.F.);
#1385=ADVANCED_FACE('',(#1257),#1313,.T.);
#1386=ADVANCED_FACE('',(#1258),#1314,.T.);
#1387=ADVANCED_FACE('',(#1259),#1315,.F.);
#1388=ADVANCED_FACE('',(#1260),#1316,.F.);
#1389=ADVANCED_FACE('',(#1261),#1317,.F.);
#1390=ADVANCED_FACE('',(#1262),#1318,.T.);
#1391=ADVANCED_FACE('',(#1263),#1319,.F.);
#1392=ADVANCED_FACE('',(#1264),#1320,.T.);
#1393=ADVANCED_FACE('',(#1265,#1266),#33,.F.);
#1394=ADVANCED_FACE('',(#1267,#1268),#34,.F.);
#1395=CLOSED_SHELL('',(#1321,#1322,#1323,#1324,#1325,#1326,#1327,#1328,
#1329,#1330,#1331,#1332,#1333,#1334,#1335,#1336,#1337,#1338,#1339,#1340,
#1341,#1342,#1343,#1344,#1345,#1346,#1347,#1348,#1349,#1350,#1351,#1352,
#1353,#1354,#1355,#1356,#1357,#1358,#1359,#1360,#1361,#1362,#1363,#1364,
#1365,#1366,#1367,#1368,#1369,#1370,#1371,#1372,#1373,#1374,#1375,#1376,
#1377,#1378,#1379,#1380,#1381,#1382,#1383,#1384,#1385,#1386,#1387,#1388,
#1389,#1390,#1391,#1392,#1393,#1394));
#1396=STYLED_ITEM('',(#1397),#1404);
#1397=PRESENTATION_STYLE_ASSIGNMENT((#1398));
#1398=SURFACE_STYLE_USAGE(.BOTH.,#1399);
#1399=SURFACE_SIDE_STYLE('',(#1400));
#1400=SURFACE_STYLE_FILL_AREA(#1401);
#1401=FILL_AREA_STYLE('',(#1402));
#1402=FILL_AREA_STYLE_COLOUR('',#1403);
#1403=COLOUR_RGB('',0.498039215686275,0.498039215686275,0.498039215686275);
#1404=MANIFOLD_SOLID_BREP('Salcka_V2.0.1',#1395);
#1405=SHAPE_DEFINITION_REPRESENTATION(#2301,#1406);
#1406=SHAPE_REPRESENTATION('Salcka_V2.0.1',(#1407),#2296);
#1407=AXIS2_PLACEMENT_3D('',#1907,#1528,#1529);
#1408=AXIS2_PLACEMENT_3D('',#1908,#1530,#1531);
#1409=AXIS2_PLACEMENT_3D('',#1915,#1535,#1536);
#1410=AXIS2_PLACEMENT_3D('',#1922,#1540,#1541);
#1411=AXIS2_PLACEMENT_3D('',#1929,#1545,#1546);
#1412=AXIS2_PLACEMENT_3D('',#1946,#1555,#1556);
#1413=AXIS2_PLACEMENT_3D('',#1953,#1560,#1561);
#1414=AXIS2_PLACEMENT_3D('',#1962,#1566,#1567);
#1415=AXIS2_PLACEMENT_3D('',#1966,#1570,#1571);
#1416=AXIS2_PLACEMENT_3D('',#1981,#1580,#1581);
#1417=AXIS2_PLACEMENT_3D('',#1982,#1582,#1583);
#1418=AXIS2_PLACEMENT_3D('',#1984,#1584,#1585);
#1419=AXIS2_PLACEMENT_3D('',#1986,#1586,#1587);
#1420=AXIS2_PLACEMENT_3D('',#1988,#1588,#1589);
#1421=AXIS2_PLACEMENT_3D('',#1990,#1590,#1591);
#1422=AXIS2_PLACEMENT_3D('',#1992,#1592,#1593);
#1423=AXIS2_PLACEMENT_3D('',#1994,#1594,#1595);
#1424=AXIS2_PLACEMENT_3D('',#1997,#1596,#1597);
#1425=AXIS2_PLACEMENT_3D('',#2013,#1605,#1606);
#1426=AXIS2_PLACEMENT_3D('',#2021,#1610,#1611);
#1427=AXIS2_PLACEMENT_3D('',#2023,#1612,#1613);
#1428=AXIS2_PLACEMENT_3D('',#2042,#1623,#1624);
#1429=AXIS2_PLACEMENT_3D('',#2049,#1628,#1629);
#1430=AXIS2_PLACEMENT_3D('',#2050,#1630,#1631);
#1431=AXIS2_PLACEMENT_3D('',#2054,#1633,#1634);
#1432=AXIS2_PLACEMENT_3D('',#2059,#1637,#1638);
#1433=AXIS2_PLACEMENT_3D('',#2062,#1640,#1641);
#1434=AXIS2_PLACEMENT_3D('',#2065,#1643,#1644);
#1435=AXIS2_PLACEMENT_3D('',#2069,#1646,#1647);
#1436=AXIS2_PLACEMENT_3D('',#2074,#1650,#1651);
#1437=AXIS2_PLACEMENT_3D('',#2077,#1653,#1654);
#1438=AXIS2_PLACEMENT_3D('',#2086,#1661,#1662);
#1439=AXIS2_PLACEMENT_3D('',#2087,#1663,#1664);
#1440=AXIS2_PLACEMENT_3D('',#2089,#1665,#1666);
#1441=AXIS2_PLACEMENT_3D('',#2091,#1667,#1668);
#1442=AXIS2_PLACEMENT_3D('',#2092,#1669,#1670);
#1443=AXIS2_PLACEMENT_3D('',#2093,#1671,#1672);
#1444=AXIS2_PLACEMENT_3D('',#2095,#1673,#1674);
#1445=AXIS2_PLACEMENT_3D('',#2097,#1675,#1676);
#1446=AXIS2_PLACEMENT_3D('',#2107,#1683,#1684);
#1447=AXIS2_PLACEMENT_3D('',#2108,#1685,#1686);
#1448=AXIS2_PLACEMENT_3D('',#2110,#1687,#1688);
#1449=AXIS2_PLACEMENT_3D('',#2112,#1689,#1690);
#1450=AXIS2_PLACEMENT_3D('',#2113,#1691,#1692);
#1451=AXIS2_PLACEMENT_3D('',#2114,#1693,#1694);
#1452=AXIS2_PLACEMENT_3D('',#2116,#1695,#1696);
#1453=AXIS2_PLACEMENT_3D('',#2118,#1697,#1698);
#1454=AXIS2_PLACEMENT_3D('',#2122,#1701,#1702);
#1455=AXIS2_PLACEMENT_3D('',#2126,#1705,#1706);
#1456=AXIS2_PLACEMENT_3D('',#2130,#1709,#1710);
#1457=AXIS2_PLACEMENT_3D('',#2132,#1712,#1713);
#1458=AXIS2_PLACEMENT_3D('',#2136,#1716,#1717);
#1459=AXIS2_PLACEMENT_3D('',#2137,#1718,#1719);
#1460=AXIS2_PLACEMENT_3D('',#2139,#1720,#1721);
#1461=AXIS2_PLACEMENT_3D('',#2141,#1722,#1723);
#1462=AXIS2_PLACEMENT_3D('',#2142,#1724,#1725);
#1463=AXIS2_PLACEMENT_3D('',#2144,#1726,#1727);
#1464=AXIS2_PLACEMENT_3D('',#2145,#1728,#1729);
#1465=AXIS2_PLACEMENT_3D('',#2146,#1730,#1731);
#1466=AXIS2_PLACEMENT_3D('',#2147,#1732,#1733);
#1467=AXIS2_PLACEMENT_3D('',#2149,#1734,#1735);
#1468=AXIS2_PLACEMENT_3D('',#2151,#1736,#1737);
#1469=AXIS2_PLACEMENT_3D('',#2152,#1738,#1739);
#1470=AXIS2_PLACEMENT_3D('',#2154,#1740,#1741);
#1471=AXIS2_PLACEMENT_3D('',#2156,#1742,#1743);
#1472=AXIS2_PLACEMENT_3D('',#2157,#1744,#1745);
#1473=AXIS2_PLACEMENT_3D('',#2160,#1746,#1747);
#1474=AXIS2_PLACEMENT_3D('',#2161,#1748,#1749);
#1475=AXIS2_PLACEMENT_3D('',#2162,#1750,#1751);
#1476=AXIS2_PLACEMENT_3D('',#2164,#1752,#1753);
#1477=AXIS2_PLACEMENT_3D('',#2165,#1754,#1755);
#1478=AXIS2_PLACEMENT_3D('',#2167,#1756,#1757);
#1479=AXIS2_PLACEMENT_3D('',#2168,#1758,#1759);
#1480=AXIS2_PLACEMENT_3D('',#2170,#1760,#1761);
#1481=AXIS2_PLACEMENT_3D('',#2172,#1763,#1764);
#1482=AXIS2_PLACEMENT_3D('',#2173,#1765,#1766);
#1483=AXIS2_PLACEMENT_3D('',#2175,#1767,#1768);
#1484=AXIS2_PLACEMENT_3D('',#2176,#1769,#1770);
#1485=AXIS2_PLACEMENT_3D('',#2178,#1771,#1772);
#1486=AXIS2_PLACEMENT_3D('',#2180,#1773,#1774);
#1487=AXIS2_PLACEMENT_3D('',#2181,#1775,#1776);
#1488=AXIS2_PLACEMENT_3D('',#2182,#1777,#1778);
#1489=AXIS2_PLACEMENT_3D('',#2190,#1784,#1785);
#1490=AXIS2_PLACEMENT_3D('',#2194,#1788,#1789);
#1491=AXIS2_PLACEMENT_3D('',#2200,#1794,#1795);
#1492=AXIS2_PLACEMENT_3D('',#2211,#1802,#1803);
#1493=AXIS2_PLACEMENT_3D('',#2213,#1805,#1806);
#1494=AXIS2_PLACEMENT_3D('',#2218,#1810,#1811);
#1495=AXIS2_PLACEMENT_3D('',#2220,#1813,#1814);
#1496=AXIS2_PLACEMENT_3D('',#2222,#1816,#1817);
#1497=AXIS2_PLACEMENT_3D('',#2223,#1818,#1819);
#1498=AXIS2_PLACEMENT_3D('',#2229,#1821,#1822);
#1499=AXIS2_PLACEMENT_3D('',#2231,#1824,#1825);
#1500=AXIS2_PLACEMENT_3D('',#2232,#1826,#1827);
#1501=AXIS2_PLACEMENT_3D('',#2233,#1828,#1829);
#1502=AXIS2_PLACEMENT_3D('',#2235,#1830,#1831);
#1503=AXIS2_PLACEMENT_3D('',#2236,#1832,#1833);
#1504=AXIS2_PLACEMENT_3D('',#2238,#1834,#1835);
#1505=AXIS2_PLACEMENT_3D('',#2244,#1839,#1840);
#1506=AXIS2_PLACEMENT_3D('',#2245,#1841,#1842);
#1507=AXIS2_PLACEMENT_3D('',#2246,#1843,#1844);
#1508=AXIS2_PLACEMENT_3D('',#2247,#1845,#1846);
#1509=AXIS2_PLACEMENT_3D('',#2248,#1847,#1848);
#1510=AXIS2_PLACEMENT_3D('',#2249,#1849,#1850);
#1511=AXIS2_PLACEMENT_3D('',#2255,#1854,#1855);
#1512=AXIS2_PLACEMENT_3D('',#2257,#1857,#1858);
#1513=AXIS2_PLACEMENT_3D('',#2261,#1861,#1862);
#1514=AXIS2_PLACEMENT_3D('',#2265,#1865,#1866);
#1515=AXIS2_PLACEMENT_3D('',#2269,#1869,#1870);
#1516=AXIS2_PLACEMENT_3D('',#2273,#1873,#1874);
#1517=AXIS2_PLACEMENT_3D('',#2275,#1876,#1877);
#1518=AXIS2_PLACEMENT_3D('',#2277,#1879,#1880);
#1519=AXIS2_PLACEMENT_3D('',#2280,#1883,#1884);
#1520=AXIS2_PLACEMENT_3D('',#2282,#1886,#1887);
#1521=AXIS2_PLACEMENT_3D('',#2284,#1889,#1890);
#1522=AXIS2_PLACEMENT_3D('',#2286,#1892,#1893);
#1523=AXIS2_PLACEMENT_3D('',#2288,#1895,#1896);
#1524=AXIS2_PLACEMENT_3D('',#2290,#1898,#1899);
#1525=AXIS2_PLACEMENT_3D('',#2292,#1901,#1902);
#1526=AXIS2_PLACEMENT_3D('',#2293,#1903,#1904);
#1527=AXIS2_PLACEMENT_3D('',#2294,#1905,#1906);
#1528=DIRECTION('',(0.,0.,1.));
#1529=DIRECTION('',(1.,0.,0.));
#1530=DIRECTION('',(0.,0.,1.));
#1531=DIRECTION('',(1.,0.,0.));
#1532=DIRECTION('',(1.,0.,0.));
#1533=DIRECTION('',(-0.707106781186545,0.70710678118655,0.));
#1534=DIRECTION('',(0.,-1.,0.));
#1535=DIRECTION('',(0.,0.,1.));
#1536=DIRECTION('',(1.,0.,0.));
#1537=DIRECTION('',(0.,-1.,0.));
#1538=DIRECTION('',(-0.707106781186547,-0.707106781186548,0.));
#1539=DIRECTION('',(1.,0.,0.));
#1540=DIRECTION('',(0.,0.,1.));
#1541=DIRECTION('',(1.,0.,0.));
#1542=DIRECTION('',(1.,0.,0.));
#1543=DIRECTION('',(0.707106781186546,-0.707106781186549,0.));
#1544=DIRECTION('',(0.,-1.,0.));
#1545=DIRECTION('',(-1.,0.,0.));
#1546=DIRECTION('',(0.,0.,1.));
#1547=DIRECTION('',(0.,1.,0.));
#1548=DIRECTION('',(0.,0.,1.));
#1549=DIRECTION('',(0.,1.,0.));
#1550=DIRECTION('',(0.,0.,-1.));
#1551=DIRECTION('',(0.,1.,0.));
#1552=DIRECTION('',(0.,0.,-1.));
#1553=DIRECTION('',(0.,1.,0.));
#1554=DIRECTION('',(0.,0.,1.));
#1555=DIRECTION('',(0.,0.,1.));
#1556=DIRECTION('',(1.,0.,0.));
#1557=DIRECTION('',(0.,-1.,0.));
#1558=DIRECTION('',(0.707106781186546,0.707106781186549,0.));
#1559=DIRECTION('',(1.,0.,0.));
#1560=DIRECTION('',(1.,0.,0.));
#1561=DIRECTION('',(0.,0.,-1.));
#1562=DIRECTION('',(0.,-1.,0.));
#1563=DIRECTION('',(0.,0.,-1.));
#1564=DIRECTION('',(0.,-1.,0.));
#1565=DIRECTION('',(0.,0.,-1.));
#1566=DIRECTION('',(0.,0.,-1.));
#1567=DIRECTION('',(1.,0.,0.));
#1568=DIRECTION('',(1.,0.,0.));
#1569=DIRECTION('',(-0.707106781186546,-0.707106781186549,0.));
#1570=DIRECTION('',(0.,1.,0.));
#1571=DIRECTION('',(0.,0.,1.));
#1572=DIRECTION('',(0.,0.,1.));
#1573=DIRECTION('',(1.,0.,0.));
#1574=DIRECTION('',(0.,0.,1.));
#1575=DIRECTION('',(1.,0.,0.));
#1576=DIRECTION('',(1.,0.,0.));
#1577=DIRECTION('',(0.,0.,-1.));
#1578=DIRECTION('',(1.,0.,0.));
#1579=DIRECTION('',(1.,0.,0.));
#1580=DIRECTION('',(0.,0.,1.));
#1581=DIRECTION('',(1.,0.,0.));
#1582=DIRECTION('',(0.,0.,1.));
#1583=DIRECTION('',(1.,0.,0.));
#1584=DIRECTION('',(0.,0.,1.));
#1585=DIRECTION('',(1.,0.,0.));
#1586=DIRECTION('',(0.,0.,1.));
#1587=DIRECTION('',(1.,0.,0.));
#1588=DIRECTION('',(0.,0.,1.));
#1589=DIRECTION('',(1.,0.,0.));
#1590=DIRECTION('',(0.,0.,1.));
#1591=DIRECTION('',(1.,0.,0.));
#1592=DIRECTION('',(0.,0.,1.));
#1593=DIRECTION('',(1.,0.,0.));
#1594=DIRECTION('',(0.,0.,1.));
#1595=DIRECTION('',(1.,0.,0.));
#1596=DIRECTION('',(0.,0.,1.));
#1597=DIRECTION('',(1.,0.,0.));
#1598=DIRECTION('',(-1.,0.,0.));
#1599=DIRECTION('',(0.,1.,0.));
#1600=DIRECTION('',(1.,0.,0.));
#1601=DIRECTION('',(0.,-1.,0.));
#1602=DIRECTION('',(1.,0.,0.));
#1603=DIRECTION('',(0.,1.,0.));
#1604=DIRECTION('',(-1.,0.,0.));
#1605=DIRECTION('',(0.,0.,1.));
#1606=DIRECTION('',(1.,0.,0.));
#1607=DIRECTION('',(0.726745044016897,-0.686907301603993,0.));
#1608=DIRECTION('',(1.,0.,0.));
#1609=DIRECTION('',(-0.803863906206861,-0.594813265065472,0.));
#1610=DIRECTION('',(0.,0.,1.));
#1611=DIRECTION('',(1.,0.,0.));
#1612=DIRECTION('',(0.,0.,1.));
#1613=DIRECTION('',(1.,0.,0.));
#1614=DIRECTION('',(0.999839032676536,-0.0179418153052684,0.));
#1615=DIRECTION('',(-1.98254111540206E-15,1.,0.));
#1616=DIRECTION('',(1.,0.,0.));
#1617=DIRECTION('',(0.,1.,0.));
#1618=DIRECTION('',(1.,0.,0.));
#1619=DIRECTION('',(0.,1.,0.));
#1620=DIRECTION('',(-1.,0.,0.));
#1621=DIRECTION('',(-1.98254111540206E-15,1.,0.));
#1622=DIRECTION('',(1.,0.,0.));
#1623=DIRECTION('',(0.,0.,1.));
#1624=DIRECTION('',(1.,0.,0.));
#1625=DIRECTION('',(-0.716702144793098,0.697379405810764,0.));
#1626=DIRECTION('',(-1.,-1.83067866788439E-13,0.));
#1627=DIRECTION('',(-0.422618261740699,-0.90630778703665,0.));
#1628=DIRECTION('',(0.,0.,-1.));
#1629=DIRECTION('',(-1.,0.,0.));
#1630=DIRECTION('',(0.,0.,1.));
#1631=DIRECTION('',(1.,0.,0.));
#1632=DIRECTION('',(0.,0.,-1.));
#1633=DIRECTION('',(0.,0.,1.));
#1634=DIRECTION('',(1.,0.,0.));
#1635=DIRECTION('',(0.,0.,-1.));
#1636=DIRECTION('',(0.,0.,1.));
#1637=DIRECTION('',(0.,0.,1.));
#1638=DIRECTION('',(1.,0.,0.));
#1639=DIRECTION('',(0.,0.,1.));
#1640=DIRECTION('',(0.,0.,-1.));
#1641=DIRECTION('',(-1.,0.,0.));
#1642=DIRECTION('',(0.,0.,-1.));
#1643=DIRECTION('',(0.,0.,1.));
#1644=DIRECTION('',(1.,0.,0.));
#1645=DIRECTION('',(0.,0.,-1.));
#1646=DIRECTION('',(0.,0.,1.));
#1647=DIRECTION('',(1.,0.,0.));
#1648=DIRECTION('',(0.,0.,-1.));
#1649=DIRECTION('',(0.,0.,1.));
#1650=DIRECTION('',(0.,0.,1.));
#1651=DIRECTION('',(1.,0.,0.));
#1652=DIRECTION('',(0.,0.,1.));
#1653=DIRECTION('',(-1.,0.,0.));
#1654=DIRECTION('',(0.,0.,1.));
#1655=DIRECTION('',(0.,0.,-1.));
#1656=DIRECTION('',(0.,1.,0.));
#1657=DIRECTION('',(0.,0.,-1.));
#1658=DIRECTION('',(0.,0.,-1.));
#1659=DIRECTION('',(0.,-1.,0.));
#1660=DIRECTION('',(0.,0.,-1.));
#1661=DIRECTION('',(0.,0.,-1.));
#1662=DIRECTION('',(-1.,0.,0.));
#1663=DIRECTION('',(0.,0.,1.));
#1664=DIRECTION('',(1.,0.,0.));
#1665=DIRECTION('',(0.,0.,1.));
#1666=DIRECTION('',(1.,0.,0.));
#1667=DIRECTION('',(0.,0.,1.));
#1668=DIRECTION('',(1.,0.,0.));
#1669=DIRECTION('',(0.,0.,1.));
#1670=DIRECTION('',(1.,0.,0.));
#1671=DIRECTION('',(0.,0.,1.));
#1672=DIRECTION('',(1.,0.,0.));
#1673=DIRECTION('',(0.,0.,1.));
#1674=DIRECTION('',(1.,0.,0.));
#1675=DIRECTION('',(0.0179418153052702,0.999839032676536,0.));
#1676=DIRECTION('',(-0.999839032676536,0.0179418153052702,0.));
#1677=DIRECTION('',(0.999839032676536,-0.0179418153052684,0.));
#1678=DIRECTION('',(0.,0.,-1.));
#1679=DIRECTION('',(0.,0.,1.));
#1680=DIRECTION('',(0.999839032676536,-0.0179418153052702,0.));
#1681=DIRECTION('',(0.,0.,1.));
#1682=DIRECTION('',(0.999839032676536,-0.0179418153052702,0.));
#1683=DIRECTION('',(0.,0.,-1.));
#1684=DIRECTION('',(-1.,0.,0.));
#1685=DIRECTION('',(0.,0.,1.));
#1686=DIRECTION('',(1.,0.,0.));
#1687=DIRECTION('',(0.,0.,1.));
#1688=DIRECTION('',(1.,0.,0.));
#1689=DIRECTION('',(0.,0.,1.));
#1690=DIRECTION('',(1.,0.,0.));
#1691=DIRECTION('',(0.,0.,1.));
#1692=DIRECTION('',(1.,0.,0.));
#1693=DIRECTION('',(0.,0.,1.));
#1694=DIRECTION('',(1.,0.,0.));
#1695=DIRECTION('',(0.,0.,1.));
#1696=DIRECTION('',(1.,0.,0.));
#1697=DIRECTION('',(-0.90630778703665,0.422618261740699,0.));
#1698=DIRECTION('',(-0.4226182617407,-0.90630778703665,0.));
#1699=DIRECTION('',(0.,0.,1.));
#1700=DIRECTION('',(-0.422618261740699,-0.90630778703665,0.));
#1701=DIRECTION('',(-0.686907301603993,-0.726745044016897,0.));
#1702=DIRECTION('',(0.726745044016897,-0.686907301603993,0.));
#1703=DIRECTION('',(0.726745044016897,-0.686907301603993,0.));
#1704=DIRECTION('',(0.,0.,1.));
#1705=DIRECTION('',(0.,-1.,0.));
#1706=DIRECTION('',(0.,0.,-1.));
#1707=DIRECTION('',(1.,0.,0.));
#1708=DIRECTION('',(0.,0.,1.));
#1709=DIRECTION('',(-0.594813265065472,0.803863906206861,0.));
#1710=DIRECTION('',(-0.803863906206861,-0.594813265065472,0.));
#1711=DIRECTION('',(-0.803863906206861,-0.594813265065472,0.));
#1712=DIRECTION('',(0.697379405810764,0.716702144793098,0.));
#1713=DIRECTION('',(-0.716702144793098,0.697379405810764,0.));
#1714=DIRECTION('',(-0.716702144793098,0.697379405810764,0.));
#1715=DIRECTION('',(0.,0.,1.));
#1716=DIRECTION('',(0.,0.,1.));
#1717=DIRECTION('',(1.,0.,0.));
#1718=DIRECTION('',(0.,0.,1.));
#1719=DIRECTION('',(1.,0.,0.));
#1720=DIRECTION('',(0.,0.,1.));
#1721=DIRECTION('',(1.,0.,0.));
#1722=DIRECTION('',(0.,0.,1.));
#1723=DIRECTION('',(1.,0.,0.));
#1724=DIRECTION('',(0.,0.,1.));
#1725=DIRECTION('',(1.,0.,0.));
#1726=DIRECTION('',(0.,0.,1.));
#1727=DIRECTION('',(1.,0.,0.));
#1728=DIRECTION('',(0.,0.,1.));
#1729=DIRECTION('',(1.,0.,0.));
#1730=DIRECTION('',(0.,0.,1.));
#1731=DIRECTION('',(1.,0.,0.));
#1732=DIRECTION('',(0.,0.,1.));
#1733=DIRECTION('',(1.,0.,0.));
#1734=DIRECTION('',(0.,0.,1.));
#1735=DIRECTION('',(1.,0.,0.));
#1736=DIRECTION('',(0.,0.,1.));
#1737=DIRECTION('',(1.,0.,0.));
#1738=DIRECTION('',(0.,0.,1.));
#1739=DIRECTION('',(1.,0.,0.));
#1740=DIRECTION('',(0.,0.,1.));
#1741=DIRECTION('',(1.,0.,0.));
#1742=DIRECTION('',(0.,0.,1.));
#1743=DIRECTION('',(1.,0.,0.));
#1744=DIRECTION('',(0.,0.,1.));
#1745=DIRECTION('',(1.,0.,0.));
#1746=DIRECTION('',(0.,0.,1.));
#1747=DIRECTION('',(1.,0.,0.));
#1748=DIRECTION('',(0.,0.,1.));
#1749=DIRECTION('',(1.,0.,0.));
#1750=DIRECTION('',(0.,0.,1.));
#1751=DIRECTION('',(1.,0.,0.));
#1752=DIRECTION('',(0.,0.,1.));
#1753=DIRECTION('',(1.,0.,0.));
#1754=DIRECTION('',(0.,0.,1.));
#1755=DIRECTION('',(1.,0.,0.));
#1756=DIRECTION('',(0.,0.,1.));
#1757=DIRECTION('',(1.,0.,0.));
#1758=DIRECTION('',(0.,0.,1.));
#1759=DIRECTION('',(1.,0.,0.));
#1760=DIRECTION('',(-1.83067866788439E-13,1.,0.));
#1761=DIRECTION('',(-1.,-1.83067866788439E-13,0.));
#1762=DIRECTION('',(-1.,-1.83067866788439E-13,0.));
#1763=DIRECTION('',(0.,0.,1.));
#1764=DIRECTION('',(1.,0.,0.));
#1765=DIRECTION('',(0.,0.,1.));
#1766=DIRECTION('',(1.,0.,0.));
#1767=DIRECTION('',(0.,0.,1.));
#1768=DIRECTION('',(1.,0.,0.));
#1769=DIRECTION('',(0.,0.,1.));
#1770=DIRECTION('',(1.,0.,0.));
#1771=DIRECTION('',(0.,0.,1.));
#1772=DIRECTION('',(1.,0.,0.));
#1773=DIRECTION('',(0.,0.,1.));
#1774=DIRECTION('',(1.,0.,0.));
#1775=DIRECTION('',(0.,0.,1.));
#1776=DIRECTION('',(1.,0.,0.));
#1777=DIRECTION('',(0.,1.,0.));
#1778=DIRECTION('',(0.,0.,1.));
#1779=DIRECTION('',(0.,0.,-1.));
#1780=DIRECTION('',(1.,0.,0.));
#1781=DIRECTION('',(0.,0.,-1.));
#1782=DIRECTION('',(0.,0.,-1.));
#1783=DIRECTION('',(1.,0.,0.));
#1784=DIRECTION('',(1.,0.,0.));
#1785=DIRECTION('',(0.,0.,-1.));
#1786=DIRECTION('',(0.,0.,-1.));
#1787=DIRECTION('',(0.,-1.,0.));
#1788=DIRECTION('',(0.,1.,0.));
#1789=DIRECTION('',(0.,0.,1.));
#1790=DIRECTION('',(1.,0.,0.));
#1791=DIRECTION('',(0.,0.,-1.));
#1792=DIRECTION('',(0.,0.,-1.));
#1793=DIRECTION('',(1.,0.,0.));
#1794=DIRECTION('',(0.,1.,0.));
#1795=DIRECTION('',(0.,0.,1.));
#1796=DIRECTION('',(0.,0.,1.));
#1797=DIRECTION('',(-1.,0.,0.));
#1798=DIRECTION('',(0.,0.,1.));
#1799=DIRECTION('',(0.,0.,-1.));
#1800=DIRECTION('',(1.,0.,0.));
#1801=DIRECTION('',(1.,0.,0.));
#1802=DIRECTION('',(-1.,0.,0.));
#1803=DIRECTION('',(0.,0.,1.));
#1804=DIRECTION('',(0.,1.,0.));
#1805=DIRECTION('',(-1.,-1.98254111540206E-15,0.));
#1806=DIRECTION('',(1.98254111540206E-15,-1.,0.));
#1807=DIRECTION('',(-1.98254111540206E-15,1.,0.));
#1808=DIRECTION('',(0.,0.,-1.));
#1809=DIRECTION('',(0.,-1.,0.));
#1810=DIRECTION('',(-1.,0.,0.));
#1811=DIRECTION('',(0.,0.,1.));
#1812=DIRECTION('',(0.,1.,0.));
#1813=DIRECTION('',(0.,1.,0.));
#1814=DIRECTION('',(0.,0.,1.));
#1815=DIRECTION('',(1.,0.,0.));
#1816=DIRECTION('',(0.,0.,1.));
#1817=DIRECTION('',(1.,0.,0.));
#1818=DIRECTION('',(0.,-1.,0.));
#1819=DIRECTION('',(0.,0.,-1.));
#1820=DIRECTION('',(-1.,0.,0.));
#1821=DIRECTION('',(0.,-1.,0.));
#1822=DIRECTION('',(0.,0.,-1.));
#1823=DIRECTION('',(-1.,0.,0.));
#1824=DIRECTION('',(0.,0.,1.));
#1825=DIRECTION('',(1.,0.,0.));
#1826=DIRECTION('',(0.,0.,1.));
#1827=DIRECTION('',(1.,0.,0.));
#1828=DIRECTION('',(0.,0.,1.));
#1829=DIRECTION('',(1.,0.,0.));
#1830=DIRECTION('',(0.,0.,-1.));
#1831=DIRECTION('',(-1.,0.,0.));
#1832=DIRECTION('',(0.,0.,1.));
#1833=DIRECTION('',(1.,0.,0.));
#1834=DIRECTION('',(0.,0.,1.));
#1835=DIRECTION('',(1.,0.,0.));
#1836=DIRECTION('',(-0.707106781186547,-0.707106781186548,0.));
#1837=DIRECTION('',(0.,-1.,0.));
#1838=DIRECTION('',(-0.707106781186546,0.707106781186549,0.));
#1839=DIRECTION('',(0.,0.,1.));
#1840=DIRECTION('',(1.,0.,0.));
#1841=DIRECTION('',(0.,0.,1.));
#1842=DIRECTION('',(1.,0.,0.));
#1843=DIRECTION('',(0.,0.,1.));
#1844=DIRECTION('',(1.,0.,0.));
#1845=DIRECTION('',(0.,0.,-1.));
#1846=DIRECTION('',(-1.,0.,0.));
#1847=DIRECTION('',(0.,0.,-1.));
#1848=DIRECTION('',(-1.,0.,0.));
#1849=DIRECTION('',(0.,0.,1.));
#1850=DIRECTION('',(1.,0.,0.));
#1851=DIRECTION('',(0.707106781186545,-0.70710678118655,0.));
#1852=DIRECTION('',(0.707106781186546,0.707106781186549,0.));
#1853=DIRECTION('',(0.,-1.,0.));
#1854=DIRECTION('',(0.,0.,-1.));
#1855=DIRECTION('',(1.,0.,0.));
#1856=DIRECTION('',(-0.707106781186545,0.70710678118655,0.));
#1857=DIRECTION('',(0.707106781186549,-0.707106781186546,0.));
#1858=DIRECTION('',(0.707106781186546,0.707106781186549,0.));
#1859=DIRECTION('',(-0.707106781186546,-0.707106781186549,0.));
#1860=DIRECTION('',(0.,0.,1.));
#1861=DIRECTION('',(-0.70710678118655,-0.707106781186545,0.));
#1862=DIRECTION('',(0.707106781186545,-0.70710678118655,0.));
#1863=DIRECTION('',(0.,0.,1.));
#1864=DIRECTION('',(0.707106781186545,-0.70710678118655,0.));
#1865=DIRECTION('',(-0.707106781186548,0.707106781186547,0.));
#1866=DIRECTION('',(-0.707106781186547,-0.707106781186548,0.));
#1867=DIRECTION('',(0.707106781186547,0.707106781186548,0.));
#1868=DIRECTION('',(0.,0.,1.));
#1869=DIRECTION('',(-1.,0.,0.));
#1870=DIRECTION('',(0.,0.,1.));
#1871=DIRECTION('',(0.,1.,0.));
#1872=DIRECTION('',(0.,0.,1.));
#1873=DIRECTION('',(0.707106781186549,0.707106781186546,0.));
#1874=DIRECTION('',(-0.707106781186546,0.707106781186549,0.));
#1875=DIRECTION('',(-0.707106781186546,0.707106781186549,0.));
#1876=DIRECTION('',(-1.,0.,0.));
#1877=DIRECTION('',(0.,0.,1.));
#1878=DIRECTION('',(0.,-1.,0.));
#1879=DIRECTION('',(-0.5,-0.5,0.707106781186547));
#1880=DIRECTION('',(0.707106781186546,-0.707106781186549,0.));
#1881=DIRECTION('',(-0.678598344545847,-0.281084637714819,-0.678598344545848));
#1882=DIRECTION('',(0.281084637714821,0.678598344545847,0.678598344545847));
#1883=DIRECTION('',(0.,-0.707106781186548,0.707106781186547));
#1884=DIRECTION('',(-1.,0.,0.));
#1885=DIRECTION('',(0.281084637714822,-0.678598344545846,-0.678598344545847));
#1886=DIRECTION('',(0.707106781186548,0.,-0.707106781186547));
#1887=DIRECTION('',(0.,-1.,0.));
#1888=DIRECTION('',(0.678598344545847,-0.28108463771482,0.678598344545848));
#1889=DIRECTION('',(-0.5,0.5,-0.707106781186548));
#1890=DIRECTION('',(0.707106781186546,0.707106781186549,0.));
#1891=DIRECTION('',(0.678598344545847,-0.281084637714821,-0.678598344545847));
#1892=DIRECTION('',(0.5,-0.5,-0.707106781186547));
#1893=DIRECTION('',(-0.707106781186547,-0.707106781186548,0.));
#1894=DIRECTION('',(0.28108463771482,-0.678598344545847,0.678598344545848));
#1895=DIRECTION('',(0.707106781186548,0.,0.707106781186547));
#1896=DIRECTION('',(0.,1.,0.));
#1897=DIRECTION('',(0.678598344545847,0.281084637714819,-0.678598344545848));
#1898=DIRECTION('',(0.,-0.707106781186548,-0.707106781186547));
#1899=DIRECTION('',(1.,0.,0.));
#1900=DIRECTION('',(0.281084637714822,0.678598344545846,-0.678598344545847));
#1901=DIRECTION('',(0.5,0.5,0.707106781186547));
#1902=DIRECTION('',(-0.707106781186545,0.70710678118655,0.));
#1903=DIRECTION('',(0.,0.,1.));
#1904=DIRECTION('',(1.,0.,0.));
#1905=DIRECTION('',(0.,0.,1.));
#1906=DIRECTION('',(1.,0.,0.));
#1907=CARTESIAN_POINT('',(0.,0.,0.));
#1908=CARTESIAN_POINT('',(0.,0.,0.157));
#1909=CARTESIAN_POINT('',(0.,-0.0135,0.157));
#1910=CARTESIAN_POINT('',(-0.0235,-0.0135,0.157));
#1911=CARTESIAN_POINT('',(-0.0189497474683058,-0.0135,0.157));
#1912=CARTESIAN_POINT('',(-0.0226213203435596,-0.00982842712474617,0.157));
#1913=CARTESIAN_POINT('',(-0.0235,-0.00894974746830581,0.157));
#1914=CARTESIAN_POINT('',(-0.0235,1.56125112837912E-17,0.157));
#1915=CARTESIAN_POINT('',(0.,0.,0.157));
#1916=CARTESIAN_POINT('',(0.0235,1.56125112837912E-17,0.157));
#1917=CARTESIAN_POINT('',(0.0235,-0.00894974746830585,0.157));
#1918=CARTESIAN_POINT('',(0.0235,-0.0135,0.157));
#1919=CARTESIAN_POINT('',(0.0162248737341529,-0.0162248737341529,0.157));
#1920=CARTESIAN_POINT('',(0.0189497474683059,-0.0135,0.157));
#1921=CARTESIAN_POINT('',(0.,-0.0135,0.157));
#1922=CARTESIAN_POINT('',(0.,0.,0.157));
#1923=CARTESIAN_POINT('',(0.,0.0135,0.157));
#1924=CARTESIAN_POINT('',(0.0189497474683058,0.0135,0.157));
#1925=CARTESIAN_POINT('',(0.0235,0.0135,0.157));
#1926=CARTESIAN_POINT('',(0.0226213203435596,0.00982842712474619,0.157));
#1927=CARTESIAN_POINT('',(0.0235,0.00894974746830583,0.157));
#1928=CARTESIAN_POINT('',(0.0235,1.56125112837912E-17,0.157));
#1929=CARTESIAN_POINT('',(-0.018,-1.38777878078145E-17,0.139));
#1930=CARTESIAN_POINT('',(-0.018,-1.38777878078145E-17,0.142));
#1931=CARTESIAN_POINT('',(-0.018,-0.0102071067811865,0.142));
#1932=CARTESIAN_POINT('',(-0.018,0.0102071067811865,0.142));
#1933=CARTESIAN_POINT('',(-0.018,-0.0102071067811865,0.139));
#1934=CARTESIAN_POINT('',(-0.018,-0.0102071067811865,0.144));
#1935=CARTESIAN_POINT('',(-0.018,-1.38777878078145E-17,0.144));
#1936=CARTESIAN_POINT('',(-0.018,-0.0105,0.144));
#1937=CARTESIAN_POINT('',(-0.018,-0.0105,0.139));
#1938=CARTESIAN_POINT('',(-0.018,-0.0105,0.111));
#1939=CARTESIAN_POINT('',(-0.018,-1.38777878078145E-17,0.111));
#1940=CARTESIAN_POINT('',(-0.018,0.0105,0.111));
#1941=CARTESIAN_POINT('',(-0.018,0.0105,0.139));
#1942=CARTESIAN_POINT('',(-0.018,0.0105,0.144));
#1943=CARTESIAN_POINT('',(-0.018,-1.38777878078145E-17,0.144));
#1944=CARTESIAN_POINT('',(-0.018,0.0102071067811865,0.144));
#1945=CARTESIAN_POINT('',(-0.018,0.0102071067811865,0.139));
#1946=CARTESIAN_POINT('',(0.,0.,0.157));
#1947=CARTESIAN_POINT('',(-0.0235,1.56125112837912E-17,0.157));
#1948=CARTESIAN_POINT('',(-0.0235,0.0135,0.157));
#1949=CARTESIAN_POINT('',(-0.0235,0.00894974746830584,0.157));
#1950=CARTESIAN_POINT('',(-0.0162248737341529,0.0162248737341529,0.157));
#1951=CARTESIAN_POINT('',(-0.0189497474683058,0.0135,0.157));
#1952=CARTESIAN_POINT('',(0.,0.0135,0.157));
#1953=CARTESIAN_POINT('',(-0.0105,1.04083408558608E-17,0.142));
#1954=CARTESIAN_POINT('',(-0.0105,1.04083408558608E-17,0.142));
#1955=CARTESIAN_POINT('',(-0.0105,0.0105,0.142));
#1956=CARTESIAN_POINT('',(-0.0105,-0.0105,0.142));
#1957=CARTESIAN_POINT('',(-0.0105,0.0105,0.144));
#1958=CARTESIAN_POINT('',(-0.0105,0.0105,0.139));
#1959=CARTESIAN_POINT('',(-0.0105,1.04083408558608E-17,0.139));
#1960=CARTESIAN_POINT('',(-0.0105,-0.0105,0.139));
#1961=CARTESIAN_POINT('',(-0.0105,-0.0105,0.144));
#1962=CARTESIAN_POINT('',(-0.00075,1.7347234759768E-17,0.144));
#1963=CARTESIAN_POINT('',(-0.0145,0.0105,0.144));
#1964=CARTESIAN_POINT('',(-0.0177071067811865,0.0105,0.144));
#1965=CARTESIAN_POINT('',(-0.0144785533905933,0.0137285533905933,0.144));
#1966=CARTESIAN_POINT('',(-0.0145,-0.0105,0.139));
#1967=CARTESIAN_POINT('',(-0.0177071067811865,-0.0105,0.142));
#1968=CARTESIAN_POINT('',(-0.0177071067811865,-0.0105,0.144));
#1969=CARTESIAN_POINT('',(-0.0177071067811865,-0.0105,0.154));
#1970=CARTESIAN_POINT('',(-0.0145,-0.0105,0.154));
#1971=CARTESIAN_POINT('',(0.0177071067811866,-0.0105,0.154));
#1972=CARTESIAN_POINT('',(0.0177071067811866,-0.0105,0.142));
#1973=CARTESIAN_POINT('',(0.0177071067811866,-0.0105,0.142));
#1974=CARTESIAN_POINT('',(1.38777878078145E-17,-0.0105,0.142));
#1975=CARTESIAN_POINT('',(-0.0135,-0.0105,0.139));
#1976=CARTESIAN_POINT('',(-0.0165,-0.0105,0.139));
#1977=CARTESIAN_POINT('',(-0.0165,-0.0105,0.139));
#1978=CARTESIAN_POINT('',(-0.0165,-0.0105,0.111));
#1979=CARTESIAN_POINT('',(-0.0145,-0.0105,0.111));
#1980=CARTESIAN_POINT('',(-0.0135,-0.0105,0.144));
#1981=CARTESIAN_POINT('',(-0.00517945367293171,0.00942564172107473,0.111));
#1982=CARTESIAN_POINT('',(4.95934556231691E-5,0.0406604560818516,0.111));
#1983=CARTESIAN_POINT('',(0.00429959345562317,0.0406604560818516,0.111));
#1984=CARTESIAN_POINT('',(-0.036871847071453,-0.0171389043358788,0.111));
#1985=CARTESIAN_POINT('',(-0.032621847071453,-0.0171389043358788,0.111));
#1986=CARTESIAN_POINT('',(-0.0133981254444257,0.008864316212348,0.111));
#1987=CARTESIAN_POINT('',(-0.0103981254444257,0.008864316212348,0.111));
#1988=CARTESIAN_POINT('',(-0.009,1.07156594925393E-19,0.111));
#1989=CARTESIAN_POINT('',(-0.00725,1.07156594925393E-19,0.111));
#1990=CARTESIAN_POINT('',(0.009,1.37119344282717E-19,0.111));
#1991=CARTESIAN_POINT('',(0.01075,1.37119344282717E-19,0.111));
#1992=CARTESIAN_POINT('',(1.7347234759768E-18,-4.33680868994202E-19,0.111));
#1993=CARTESIAN_POINT('',(0.00625,-4.33680868994202E-19,0.111));
#1994=CARTESIAN_POINT('',(0.037,-0.000252727592240567,0.111));
#1995=CARTESIAN_POINT('',(0.037,-0.0129822024150207,0.111));
#1996=CARTESIAN_POINT('',(0.0472946946090569,-0.00773996955240527,0.111));
#1997=CARTESIAN_POINT('',(0.0368299288714347,-0.0172287982059135,0.111));
#1998=CARTESIAN_POINT('',(0.0366598577428692,-0.0129822024150207,0.111));
#1999=CARTESIAN_POINT('',(0.03025,-0.0129822024150207,0.111));
#2000=CARTESIAN_POINT('',(0.0235,-0.0129822024150207,0.111));
#2001=CARTESIAN_POINT('',(0.0235,-0.000252727592240471,0.111));
#2002=CARTESIAN_POINT('',(0.0235,-0.0135,0.111));
#2003=CARTESIAN_POINT('',(-1.51614831800373E-14,-0.0135,0.111));
#2004=CARTESIAN_POINT('',(0.0165,-0.0135,0.111));
#2005=CARTESIAN_POINT('',(0.0165,0.00942564172107473,0.111));
#2006=CARTESIAN_POINT('',(0.0165,0.0135,0.111));
#2007=CARTESIAN_POINT('',(-1.51614831800373E-14,0.0135,0.111));
#2008=CARTESIAN_POINT('',(0.0235,0.0135,0.111));
#2009=CARTESIAN_POINT('',(0.0235,-0.000252727592240471,0.111));
#2010=CARTESIAN_POINT('',(0.0235,0.0124767472305398,0.111));
#2011=CARTESIAN_POINT('',(0.0260841393131386,0.0124767472305398,0.111));
#2012=CARTESIAN_POINT('',(0.037,0.0124767472305398,0.111));
#2013=CARTESIAN_POINT('',(0.037,-0.000252727592240567,0.111));
#2014=CARTESIAN_POINT('',(0.045743969201352,0.00899835514815292,0.111));
#2015=CARTESIAN_POINT('',(0.026621984600676,0.027072136251307,0.111));
#2016=CARTESIAN_POINT('',(0.0075,0.0451459173544611,0.111));
#2017=CARTESIAN_POINT('',(-1.04083408558608E-17,0.0451459173544611,0.111));
#2018=CARTESIAN_POINT('',(-0.0075,0.0451459173544611,0.111));
#2019=CARTESIAN_POINT('',(-0.0312438683498115,0.0275768142396339,0.111));
#2020=CARTESIAN_POINT('',(-0.054987736699623,0.0100077111248068,0.111));
#2021=CARTESIAN_POINT('',(-0.0475,-0.000111634938103967,0.111));
#2022=CARTESIAN_POINT('',(-0.0475,0.0124767472305397,0.111));
#2023=CARTESIAN_POINT('',(-0.0475,-0.000111634938106512,0.111));
#2024=CARTESIAN_POINT('',(-0.0470483558559295,0.0124686426101441,0.111));
#2025=CARTESIAN_POINT('',(-0.0261923632088194,0.0120943879992986,0.111));
#2026=CARTESIAN_POINT('',(-0.0235,0.0120460743389507,0.111));
#2027=CARTESIAN_POINT('',(-0.0235,0.00942564172107468,0.111));
#2028=CARTESIAN_POINT('',(-0.0235,0.0135,0.111));
#2029=CARTESIAN_POINT('',(-1.51614831800373E-14,0.0135,0.111));
#2030=CARTESIAN_POINT('',(-0.0165,0.0135,0.111));
#2031=CARTESIAN_POINT('',(-0.0165,0.00942564172107473,0.111));
#2032=CARTESIAN_POINT('',(-0.0165,0.0105,0.111));
#2033=CARTESIAN_POINT('',(-0.0145,0.0105,0.111));
#2034=CARTESIAN_POINT('',(-0.0165,0.00942564172107473,0.111));
#2035=CARTESIAN_POINT('',(-0.0165,-0.0135,0.111));
#2036=CARTESIAN_POINT('',(-1.51614831800373E-14,-0.0135,0.111));
#2037=CARTESIAN_POINT('',(-0.0235,-0.0135,0.111));
#2038=CARTESIAN_POINT('',(-0.0235,0.00942564172107468,0.111));
#2039=CARTESIAN_POINT('',(-0.0235,-0.0124049924900736,0.111));
#2040=CARTESIAN_POINT('',(-0.034145311315905,-0.0124049924900736,0.111));
#2041=CARTESIAN_POINT('',(-0.0447906226318101,-0.0124049924900735,0.111));
#2042=CARTESIAN_POINT('',(-0.0475,-0.000111634938103967,0.111));
#2043=CARTESIAN_POINT('',(-0.0562788784768876,-0.00913375543784615,0.111));
#2044=CARTESIAN_POINT('',(-0.0474606955002307,-0.0177141946750789,0.111));
#2045=CARTESIAN_POINT('',(-0.0386425125235738,-0.0262946339123116,0.111));
#2046=CARTESIAN_POINT('',(-1.51684220739412E-14,-0.0262946339123045,0.111));
#2047=CARTESIAN_POINT('',(0.0386425125235435,-0.0262946339122975,0.111));
#2048=CARTESIAN_POINT('',(0.0418121494865987,-0.0194973255095226,0.111));
#2049=CARTESIAN_POINT('',(0.037,-0.000252727592240567,0.137));
#2050=CARTESIAN_POINT('',(0.037,-0.000252727592240567,0.137));
#2051=CARTESIAN_POINT('',(0.0497294748227801,-0.000252727592240567,0.137));
#2052=CARTESIAN_POINT('',(0.037,0.0124767472305398,0.129));
#2053=CARTESIAN_POINT('',(0.037,0.0124767472305398,0.129));
#2054=CARTESIAN_POINT('',(0.037,-0.000252727592240469,0.129));
#2055=CARTESIAN_POINT('',(0.037,-0.0129822024150207,0.129));
#2056=CARTESIAN_POINT('',(0.037,-0.0129822024150207,0.129));
#2057=CARTESIAN_POINT('',(0.0472946946090569,-0.00773996955240525,0.108));
#2058=CARTESIAN_POINT('',(0.0472946946090569,-0.00773996955240525,0.108));
#2059=CARTESIAN_POINT('',(0.037,-0.000252727592240465,0.108));
#2060=CARTESIAN_POINT('',(0.045743969201352,0.00899835514815292,0.108));
#2061=CARTESIAN_POINT('',(0.045743969201352,0.00899835514815292,0.108));
#2062=CARTESIAN_POINT('',(-0.0475,-0.000111634938103967,0.137));
#2063=CARTESIAN_POINT('',(-0.0447906226318101,-0.0124049924900736,0.129));
#2064=CARTESIAN_POINT('',(-0.0447906226318101,-0.0124049924900735,0.129));
#2065=CARTESIAN_POINT('',(-0.0475,-0.000111634938103991,0.129));
#2066=CARTESIAN_POINT('',(-0.0470483558559295,0.0124686426101441,0.129));
#2067=CARTESIAN_POINT('',(-0.0470483558559295,0.0124686426101441,0.137));
#2068=CARTESIAN_POINT('',(-0.0470483558559295,0.0124686426101441,0.137));
#2069=CARTESIAN_POINT('',(-0.0475,-0.000111634938103967,0.137));
#2070=CARTESIAN_POINT('',(-0.0475,0.0124767472305397,0.137));
#2071=CARTESIAN_POINT('',(-0.0475,0.0124767472305397,0.137));
#2072=CARTESIAN_POINT('',(-0.054987736699623,0.0100077111248068,0.108));
#2073=CARTESIAN_POINT('',(-0.054987736699623,0.0100077111248068,0.108));
#2074=CARTESIAN_POINT('',(-0.0475,-0.000111634938103985,0.108));
#2075=CARTESIAN_POINT('',(-0.0562788784768876,-0.00913375543784615,0.108));
#2076=CARTESIAN_POINT('',(-0.0562788784768876,-0.00913375543784615,0.108));
#2077=CARTESIAN_POINT('',(0.0235,-0.000252727592240471,0.139));
#2078=CARTESIAN_POINT('',(0.0235,-0.0129822024150207,0.129));
#2079=CARTESIAN_POINT('',(0.0235,-0.0129822024150207,0.129));
#2080=CARTESIAN_POINT('',(0.0235,-0.000252727592240471,0.129));
#2081=CARTESIAN_POINT('',(0.0235,0.0124767472305398,0.129));
#2082=CARTESIAN_POINT('',(0.0235,0.0124767472305398,0.129));
#2083=CARTESIAN_POINT('',(0.0235,0.0135,0.139));
#2084=CARTESIAN_POINT('',(0.0235,1.56125112837912E-17,0.157));
#2085=CARTESIAN_POINT('',(0.0235,-0.0135,0.139));
#2086=CARTESIAN_POINT('',(0.037,-0.000252727592240463,0.137));
#2087=CARTESIAN_POINT('',(0.037,-0.000252727592240463,0.137));
#2088=CARTESIAN_POINT('',(0.0475,-0.000252727592240463,0.137));
#2089=CARTESIAN_POINT('',(0.037,-0.000252727592240463,0.111));
#2090=CARTESIAN_POINT('',(0.0475,-0.000252727592240463,0.111));
#2091=CARTESIAN_POINT('',(-0.00517945367293171,0.00942564172107473,0.137));
#2092=CARTESIAN_POINT('',(-0.00517945367293171,0.00942564172107473,0.111));
#2093=CARTESIAN_POINT('',(0.0439344272017479,-0.000252727592240812,0.111));
#2094=CARTESIAN_POINT('',(0.0464344272017479,-0.000252727592240812,0.111));
#2095=CARTESIAN_POINT('',(0.037,-0.000252727592240812,0.111));
#2096=CARTESIAN_POINT('',(0.0395,-0.000252727592240812,0.111));
#2097=CARTESIAN_POINT('',(-0.0472741779279648,0.0124726949203419,0.137));
#2098=CARTESIAN_POINT('',(-0.0261923632088194,0.0120943879992986,0.129));
#2099=CARTESIAN_POINT('',(-0.0235,0.0120460743389507,0.129));
#2100=CARTESIAN_POINT('',(-0.0235,0.0120460743389507,0.129));
#2101=CARTESIAN_POINT('',(-0.0470483558559295,0.0124686426101441,0.108));
#2102=CARTESIAN_POINT('',(-0.0470483558559295,0.0124686426101441,0.108));
#2103=CARTESIAN_POINT('',(-0.0472741779279648,0.0124726949203419,0.108));
#2104=CARTESIAN_POINT('',(-0.0475,0.0124767472305397,0.108));
#2105=CARTESIAN_POINT('',(-0.0475,0.0124767472305397,0.108));
#2106=CARTESIAN_POINT('',(-0.0472741779279648,0.0124726949203419,0.137));
#2107=CARTESIAN_POINT('',(-0.0475,-0.00011163493810398,0.137));
#2108=CARTESIAN_POINT('',(-0.0475,-0.00011163493810398,0.137));
#2109=CARTESIAN_POINT('',(-0.037,-0.00011163493810398,0.137));
#2110=CARTESIAN_POINT('',(-0.0475,-0.00011163493810398,0.111));
#2111=CARTESIAN_POINT('',(-0.037,-0.00011163493810398,0.111));
#2112=CARTESIAN_POINT('',(-0.00517945367293171,0.00942564172107473,0.137));
#2113=CARTESIAN_POINT('',(-0.00517945367293171,0.00942564172107473,0.111));
#2114=CARTESIAN_POINT('',(-0.0541400499641895,-0.000111634938103991,0.111));
#2115=CARTESIAN_POINT('',(-0.0516400499641895,-0.000111634938103991,0.111));
#2116=CARTESIAN_POINT('',(-0.0475,-0.000111634938103991,0.111));
#2117=CARTESIAN_POINT('',(-0.045,-0.000111634938103991,0.111));
#2118=CARTESIAN_POINT('',(0.0418121494865987,-0.0194973255095226,0.108));
#2119=CARTESIAN_POINT('',(0.0386425125235435,-0.0262946339122975,0.108));
#2120=CARTESIAN_POINT('',(0.0386425125235435,-0.0262946339122975,0.108));
#2121=CARTESIAN_POINT('',(0.0418121494865987,-0.0194973255095226,0.108));
#2122=CARTESIAN_POINT('',(0.026621984600676,0.027072136251307,0.108));
#2123=CARTESIAN_POINT('',(0.026621984600676,0.027072136251307,0.108));
#2124=CARTESIAN_POINT('',(0.0075,0.0451459173544611,0.108));
#2125=CARTESIAN_POINT('',(0.0075,0.0451459173544611,0.108));
#2126=CARTESIAN_POINT('',(-1.04083408558608E-17,0.0451459173544611,0.108));
#2127=CARTESIAN_POINT('',(-1.04083408558608E-17,0.0451459173544611,0.108));
#2128=CARTESIAN_POINT('',(-0.0075,0.0451459173544611,0.108));
#2129=CARTESIAN_POINT('',(-0.0075,0.0451459173544611,0.108));
#2130=CARTESIAN_POINT('',(-0.0312438683498115,0.0275768142396339,0.108));
#2131=CARTESIAN_POINT('',(-0.0312438683498115,0.0275768142396339,0.108));
#2132=CARTESIAN_POINT('',(-0.0474606955002307,-0.0177141946750789,0.108));
#2133=CARTESIAN_POINT('',(-0.0474606955002307,-0.0177141946750789,0.108));
#2134=CARTESIAN_POINT('',(-0.0386425125235738,-0.0262946339123116,0.108));
#2135=CARTESIAN_POINT('',(-0.0386425125235738,-0.0262946339123116,0.108));
#2136=CARTESIAN_POINT('',(0.0368299288714347,-0.0172287982059135,0.108));
#2137=CARTESIAN_POINT('',(0.0368299288714347,-0.0172287982059135,0.109));
#2138=CARTESIAN_POINT('',(0.0390799288714347,-0.0172287982059135,0.109));
#2139=CARTESIAN_POINT('',(0.0368299288714347,-0.0172287982059135,0.108));
#2140=CARTESIAN_POINT('',(0.0390799288714347,-0.0172287982059135,0.108));
#2141=CARTESIAN_POINT('',(-0.0475,-0.000111634938103991,0.108));
#2142=CARTESIAN_POINT('',(-0.0475,-0.000111634938103991,0.108));
#2143=CARTESIAN_POINT('',(-0.045,-0.000111634938103991,0.108));
#2144=CARTESIAN_POINT('',(-0.0475,-0.000111634938106512,0.108));
#2145=CARTESIAN_POINT('',(-0.0475,-0.000111634938106512,0.108));
#2146=CARTESIAN_POINT('',(-0.036871847071453,-0.0171389043358788,0.108));
#2147=CARTESIAN_POINT('',(-0.036871847071453,-0.0171389043358788,0.109));
#2148=CARTESIAN_POINT('',(-0.034621847071453,-0.0171389043358788,0.109));
#2149=CARTESIAN_POINT('',(-0.036871847071453,-0.0171389043358788,0.108));
#2150=CARTESIAN_POINT('',(-0.034621847071453,-0.0171389043358788,0.108));
#2151=CARTESIAN_POINT('',(4.95934556231691E-5,0.0406604560818516,0.108));
#2152=CARTESIAN_POINT('',(4.95934556231691E-5,0.0406604560818516,0.109));
#2153=CARTESIAN_POINT('',(0.00229959345562317,0.0406604560818516,0.109));
#2154=CARTESIAN_POINT('',(4.95934556231691E-5,0.0406604560818516,0.108));
#2155=CARTESIAN_POINT('',(0.00229959345562317,0.0406604560818516,0.108));
#2156=CARTESIAN_POINT('',(1.7347234759768E-18,-4.33680868994202E-19,0.108));
#2157=CARTESIAN_POINT('',(1.7347234759768E-18,-4.33680868994202E-19,0.108));
#2158=CARTESIAN_POINT('',(0.00625,-3.72918319963415E-20,0.108));
#2159=CARTESIAN_POINT('',(-0.00625,-5.80992968278162E-20,0.108));
#2160=CARTESIAN_POINT('',(1.7347234759768E-18,-4.33680868994202E-19,0.108));
#2161=CARTESIAN_POINT('',(0.009,1.37119344282717E-19,0.108));
#2162=CARTESIAN_POINT('',(0.009,1.37119344282717E-19,0.109));
#2163=CARTESIAN_POINT('',(0.01075,1.37119344282717E-19,0.109));
#2164=CARTESIAN_POINT('',(-0.009,1.07156594925393E-19,0.108));
#2165=CARTESIAN_POINT('',(-0.009,1.07156594925393E-19,0.109));
#2166=CARTESIAN_POINT('',(-0.00725,1.07156594925393E-19,0.109));
#2167=CARTESIAN_POINT('',(-0.0133981254444257,0.008864316212348,0.108));
#2168=CARTESIAN_POINT('',(-0.0133981254444257,0.008864316212348,0.108));
#2169=CARTESIAN_POINT('',(-0.0103981254444257,0.008864316212348,0.108));
#2170=CARTESIAN_POINT('',(-1.51684220739412E-14,-0.0262946339123045,0.108));
#2171=CARTESIAN_POINT('',(-1.51684220739412E-14,-0.0262946339123045,0.108));
#2172=CARTESIAN_POINT('',(0.037,-0.000252727592240812,0.108));
#2173=CARTESIAN_POINT('',(0.037,-0.000252727592240812,0.108));
#2174=CARTESIAN_POINT('',(0.0395,-0.000252727592240812,0.108));
#2175=CARTESIAN_POINT('',(-0.00517945367293171,0.00942564172107473,0.108));
#2176=CARTESIAN_POINT('',(-0.0541400499641895,-0.000111634938103991,0.108));
#2177=CARTESIAN_POINT('',(-0.0516400499641895,-0.000111634938103991,0.108));
#2178=CARTESIAN_POINT('',(0.0439344272017479,-0.000252727592240812,0.108));
#2179=CARTESIAN_POINT('',(0.0464344272017479,-0.000252727592240812,0.108));
#2180=CARTESIAN_POINT('',(0.009,1.37119344282717E-19,0.108));
#2181=CARTESIAN_POINT('',(-0.009,1.07156594925393E-19,0.108));
#2182=CARTESIAN_POINT('',(-1.51614831800373E-14,0.0135,0.139));
#2183=CARTESIAN_POINT('',(0.0165,0.0135,0.139));
#2184=CARTESIAN_POINT('',(0.0165,0.0135,0.139));
#2185=CARTESIAN_POINT('',(0.,0.0135,0.139));
#2186=CARTESIAN_POINT('',(-0.0165,0.0135,0.139));
#2187=CARTESIAN_POINT('',(-0.0165,0.0135,0.139));
#2188=CARTESIAN_POINT('',(-0.0235,0.0135,0.139));
#2189=CARTESIAN_POINT('',(0.,0.0135,0.157));
#2190=CARTESIAN_POINT('',(0.0165,0.00942564172107473,0.139));
#2191=CARTESIAN_POINT('',(0.0165,-0.0135,0.139));
#2192=CARTESIAN_POINT('',(0.0165,-0.0135,0.139));
#2193=CARTESIAN_POINT('',(0.0165,0.00942564172107473,0.139));
#2194=CARTESIAN_POINT('',(-1.51614831800373E-14,-0.0135,0.139));
#2195=CARTESIAN_POINT('',(0.,-0.0135,0.157));
#2196=CARTESIAN_POINT('',(-0.0235,-0.0135,0.139));
#2197=CARTESIAN_POINT('',(-0.0165,-0.0135,0.139));
#2198=CARTESIAN_POINT('',(-0.0165,-0.0135,0.139));
#2199=CARTESIAN_POINT('',(0.,-0.0135,0.139));
#2200=CARTESIAN_POINT('',(-0.0145,0.0105,0.139));
#2201=CARTESIAN_POINT('',(0.0177071067811865,0.0105,0.142));
#2202=CARTESIAN_POINT('',(0.0177071067811865,0.0105,0.142));
#2203=CARTESIAN_POINT('',(0.0177071067811865,0.0105,0.154));
#2204=CARTESIAN_POINT('',(-0.0177071067811865,0.0105,0.154));
#2205=CARTESIAN_POINT('',(-0.0177071067811865,0.0105,0.154));
#2206=CARTESIAN_POINT('',(-0.0177071067811865,0.0105,0.142));
#2207=CARTESIAN_POINT('',(-0.0165,0.0105,0.139));
#2208=CARTESIAN_POINT('',(-0.0165,0.0105,0.139));
#2209=CARTESIAN_POINT('',(-0.0145,0.0105,0.139));
#2210=CARTESIAN_POINT('',(-6.93889390390723E-18,0.0105,0.142));
#2211=CARTESIAN_POINT('',(-0.0165,0.00942564172107473,0.139));
#2212=CARTESIAN_POINT('',(-0.0165,0.00942564172107473,0.139));
#2213=CARTESIAN_POINT('',(-0.0235,0.00942564172107468,0.139));
#2214=CARTESIAN_POINT('',(-0.0235,0.00942564172107468,0.129));
#2215=CARTESIAN_POINT('',(-0.0235,-0.0124049924900736,0.129));
#2216=CARTESIAN_POINT('',(-0.0235,-0.0124049924900736,0.129));
#2217=CARTESIAN_POINT('',(-0.0235,1.56125112837912E-17,0.157));
#2218=CARTESIAN_POINT('',(-0.0165,0.00942564172107473,0.139));
#2219=CARTESIAN_POINT('',(-0.0165,0.00942564172107473,0.139));
#2220=CARTESIAN_POINT('',(-0.034145311315905,-0.0124049924900736,0.129));
#2221=CARTESIAN_POINT('',(-0.034145311315905,-0.0124049924900736,0.129));
#2222=CARTESIAN_POINT('',(-0.00517945367293171,0.00942564172107473,0.129));
#2223=CARTESIAN_POINT('',(0.03025,-0.0129822024150207,0.129));
#2224=CARTESIAN_POINT('',(0.0366598577428692,-0.0129822024150207,0.111));
#2225=CARTESIAN_POINT('',(0.0367732384952461,-0.0129822024150207,0.11099546287235));
#2226=CARTESIAN_POINT('',(0.0368866192476226,-0.0129822024150207,0.11099546287235));
#2227=CARTESIAN_POINT('',(0.0369999999999995,-0.0129822024150207,0.111));
#2228=CARTESIAN_POINT('',(0.03025,-0.0129822024150207,0.129));
#2229=CARTESIAN_POINT('',(0.0260841393131386,0.0124767472305398,0.129));
#2230=CARTESIAN_POINT('',(0.0260841393131386,0.0124767472305398,0.129));
#2231=CARTESIAN_POINT('',(-0.00517945367293171,0.00942564172107473,0.129));
#2232=CARTESIAN_POINT('',(0.,0.,0.139));
#2233=CARTESIAN_POINT('',(0.,4.13318294712232E-19,0.139));
#2234=CARTESIAN_POINT('',(0.00675,4.13318294712232E-19,0.139));
#2235=CARTESIAN_POINT('',(0.,4.13318294712232E-19,0.142));
#2236=CARTESIAN_POINT('',(0.,4.13318294712232E-19,0.142));
#2237=CARTESIAN_POINT('',(0.00675,4.13318294712232E-19,0.142));
#2238=CARTESIAN_POINT('',(0.,0.,0.142));
#2239=CARTESIAN_POINT('',(0.0191035533905933,-0.00910355339059328,0.142));
#2240=CARTESIAN_POINT('',(0.0205,-0.00770710678118657,0.142));
#2241=CARTESIAN_POINT('',(0.0205,-8.67361737988404E-18,0.142));
#2242=CARTESIAN_POINT('',(0.0205,0.00770710678118656,0.142));
#2243=CARTESIAN_POINT('',(0.0191035533905933,0.00910355339059329,0.142));
#2244=CARTESIAN_POINT('',(4.95934556231691E-5,0.0406604560818516,0.109));
#2245=CARTESIAN_POINT('',(0.0368299288714347,-0.0172287982059135,0.109));
#2246=CARTESIAN_POINT('',(-0.036871847071453,-0.0171389043358788,0.109));
#2247=CARTESIAN_POINT('',(0.009,1.37119344282717E-19,0.108));
#2248=CARTESIAN_POINT('',(-0.009,1.07156594925393E-19,0.108));
#2249=CARTESIAN_POINT('',(-0.00517945367293171,0.00942564172107473,0.142));
#2250=CARTESIAN_POINT('',(-0.0191035533905933,-0.00910355339059326,0.142));
#2251=CARTESIAN_POINT('',(-0.0205,-0.00770710678118654,0.142));
#2252=CARTESIAN_POINT('',(-0.0191035533905933,0.00910355339059328,0.142));
#2253=CARTESIAN_POINT('',(-0.0205,0.00770710678118655,0.142));
#2254=CARTESIAN_POINT('',(-0.0205,8.67361737988404E-18,0.142));
#2255=CARTESIAN_POINT('',(-0.00075,1.7347234759768E-17,0.144));
#2256=CARTESIAN_POINT('',(-0.0144785533905933,-0.0137285533905932,0.144));
#2257=CARTESIAN_POINT('',(-0.0191035533905933,0.00910355339059328,0.142));
#2258=CARTESIAN_POINT('',(-0.0191035533905933,0.00910355339059328,0.154));
#2259=CARTESIAN_POINT('',(-0.0205,0.00770710678118655,0.154));
#2260=CARTESIAN_POINT('',(-0.0205,0.00770710678118655,0.142));
#2261=CARTESIAN_POINT('',(-0.0191035533905933,-0.00910355339059326,0.142));
#2262=CARTESIAN_POINT('',(-0.0205,-0.00770710678118654,0.142));
#2263=CARTESIAN_POINT('',(-0.0205,-0.00770710678118654,0.154));
#2264=CARTESIAN_POINT('',(-0.0177071067811865,-0.0105,0.154));
#2265=CARTESIAN_POINT('',(0.0191035533905933,-0.00910355339059328,0.142));
#2266=CARTESIAN_POINT('',(0.0191035533905933,-0.00910355339059328,0.154));
#2267=CARTESIAN_POINT('',(0.0205,-0.00770710678118657,0.154));
#2268=CARTESIAN_POINT('',(0.0205,-0.00770710678118657,0.142));
#2269=CARTESIAN_POINT('',(0.0205,-8.67361737988404E-18,0.142));
#2270=CARTESIAN_POINT('',(0.0205,-8.67361737988404E-18,0.154));
#2271=CARTESIAN_POINT('',(0.0205,0.00770710678118656,0.154));
#2272=CARTESIAN_POINT('',(0.0205,0.00770710678118656,0.142));
#2273=CARTESIAN_POINT('',(0.0191035533905933,0.00910355339059329,0.142));
#2274=CARTESIAN_POINT('',(0.0177071067811865,0.0105,0.154));
#2275=CARTESIAN_POINT('',(-0.0205,8.67361737988404E-18,0.142));
#2276=CARTESIAN_POINT('',(-0.0205,-0.00770710678118654,0.154));
#2277=CARTESIAN_POINT('',(0.0191035533905933,0.00910355339059329,0.154));
#2278=CARTESIAN_POINT('',(0.0217928932188135,0.00824264068711929,0.155292893218814));
#2279=CARTESIAN_POINT('',(0.0175510748244915,0.0101233055339831,0.153623305533983));
#2280=CARTESIAN_POINT('',(0.,0.0135,0.157));
#2281=CARTESIAN_POINT('',(-0.0174525549515266,0.00988545752050794,0.153385457520508));
#2282=CARTESIAN_POINT('',(0.0235,0.,0.157));
#2283=CARTESIAN_POINT('',(0.0215375190963562,-0.00813686126211838,0.155037519096356));
#2284=CARTESIAN_POINT('',(-0.0162248737341529,0.0162248737341529,0.157));
#2285=CARTESIAN_POINT('',(-0.0215375190963562,0.00813686126211837,0.155037519096357));
#2286=CARTESIAN_POINT('',(0.0162248737341529,-0.0162248737341529,0.157));
#2287=CARTESIAN_POINT('',(0.0151624692159339,-0.0043567014786429,0.147856701478643));
#2288=CARTESIAN_POINT('',(-0.0205,8.67361737988404E-18,0.154));
#2289=CARTESIAN_POINT('',(-0.0201233055339831,-0.00755107482449144,0.153623305533983));
#2290=CARTESIAN_POINT('',(-0.0145,-0.0105,0.154));
#2291=CARTESIAN_POINT('',(-0.0175510748244914,-0.0101233055339831,0.153623305533983));
#2292=CARTESIAN_POINT('',(-0.0191035533905933,-0.00910355339059326,0.154));
#2293=CARTESIAN_POINT('',(0.0439344272017479,-0.000252727592240812,0.086));
#2294=CARTESIAN_POINT('',(-0.0541400499641895,-0.000111634938103991,0.086));
#2295=MECHANICAL_DESIGN_GEOMETRIC_PRESENTATION_REPRESENTATION('',(#1396),
#2296);
#2296=(
GEOMETRIC_REPRESENTATION_CONTEXT(3)
GLOBAL_UNCERTAINTY_ASSIGNED_CONTEXT((#2297))
GLOBAL_UNIT_ASSIGNED_CONTEXT((#2300,#2299,#2298))
REPRESENTATION_CONTEXT('Salcka_V2.0.1','TOP_LEVEL_ASSEMBLY_PART')
);
#2297=UNCERTAINTY_MEASURE_WITH_UNIT(LENGTH_MEASURE(2.E-5),#2300,
'DISTANCE_ACCURACY_VALUE','Maximum Tolerance applied to model');
#2298=(
NAMED_UNIT(*)
SI_UNIT($,.STERADIAN.)
SOLID_ANGLE_UNIT()
);
#2299=(
NAMED_UNIT(*)
PLANE_ANGLE_UNIT()
SI_UNIT($,.RADIAN.)
);
#2300=(
LENGTH_UNIT()
NAMED_UNIT(*)
SI_UNIT($,.METRE.)
);
#2301=PRODUCT_DEFINITION_SHAPE('','',#2302);
#2302=PRODUCT_DEFINITION('','',#2304,#2303);
#2303=PRODUCT_DEFINITION_CONTEXT('',#2310,'design');
#2304=PRODUCT_DEFINITION_FORMATION_WITH_SPECIFIED_SOURCE('','',#2306,
 .NOT_KNOWN.);
#2305=PRODUCT_RELATED_PRODUCT_CATEGORY('','',(#2306));
#2306=PRODUCT('Salcka_V2.0.1','Salcka_V2.0.1','Salcka_V2.0.1',(#2308));
#2307=PRODUCT_CATEGORY('','');
#2308=PRODUCT_CONTEXT('',#2310,'mechanical');
#2309=APPLICATION_PROTOCOL_DEFINITION('international standard',
'ap242_managed_model_based_3d_engineering',2020,#2310);
#2310=APPLICATION_CONTEXT('managed model based 3d engineering');
ENDSEC;
END-ISO-10303-21;
