ISO-10303-21;
HEADER;
/* Generated by software containing ST-Developer
 * from STEP Tools, Inc. (www.steptools.com) 
 */
/* OPTION: using custom renumber hook */

FILE_DESCRIPTION(
/* description */ ('STEP AP242 Edition 2',
'CAx-IF Rec.Pracs.---Representation and Presentation of Product Manufa
cturing Information (PMI)---4.0---2014-10-13',
'CAx-IF Rec.Pracs.---3D Tessellated Geometry---0.4---2014-09-14','2;1',
'CAx-IF Rec.Pracs.---User Defined Attributes---1.5---2016-08-15'),
/* implementation_level */ '2;1');

FILE_NAME(
/* name */ 'Modular_vacuum - Noge_gripper',
/* time_stamp */ '2026-06-09T12:34:52Z',
/* author */ (''),
/* organization */ (''),
/* preprocessor_version */ 'ST-DEVELOPER v20',
/* originating_system */ 'ONSHAPE BY PTC INC, 1.216',
/* authorisation */ '  ');

FILE_SCHEMA (('AP242_MANAGED_MODEL_BASED_3D_ENGINEERING_MIM_LF { 1 0 10303 442 3 1 4 }'));
ENDSEC;

DATA;
#10=SHAPE_REPRESENTATION_RELATIONSHIP('','',#402,#11);
#11=ADVANCED_BREP_SHAPE_REPRESENTATION('',(#400),#641);
#12=CONICAL_SURFACE('',#416,0.00225,0.785398163397449);
#13=CYLINDRICAL_SURFACE('',#410,0.00225);
#14=CYLINDRICAL_SURFACE('',#429,0.00225);
#15=CIRCLE('',#405,0.00415);
#16=CIRCLE('',#411,0.00225);
#17=CIRCLE('',#412,0.00225);
#18=CIRCLE('',#428,0.00225);
#19=CIRCLE('',#430,0.00225);
#20=ORIENTED_EDGE('',*,*,#118,.F.);
#21=ORIENTED_EDGE('',*,*,#119,.F.);
#22=ORIENTED_EDGE('',*,*,#120,.T.);
#23=ORIENTED_EDGE('',*,*,#121,.F.);
#24=ORIENTED_EDGE('',*,*,#122,.T.);
#25=ORIENTED_EDGE('',*,*,#123,.F.);
#26=ORIENTED_EDGE('',*,*,#124,.T.);
#27=ORIENTED_EDGE('',*,*,#125,.T.);
#28=ORIENTED_EDGE('',*,*,#119,.T.);
#29=ORIENTED_EDGE('',*,*,#126,.F.);
#30=ORIENTED_EDGE('',*,*,#127,.F.);
#31=ORIENTED_EDGE('',*,*,#128,.T.);
#32=ORIENTED_EDGE('',*,*,#121,.T.);
#33=ORIENTED_EDGE('',*,*,#129,.T.);
#34=ORIENTED_EDGE('',*,*,#130,.T.);
#35=ORIENTED_EDGE('',*,*,#131,.F.);
#36=ORIENTED_EDGE('',*,*,#132,.F.);
#37=ORIENTED_EDGE('',*,*,#133,.T.);
#38=ORIENTED_EDGE('',*,*,#127,.T.);
#39=ORIENTED_EDGE('',*,*,#134,.T.);
#40=ORIENTED_EDGE('',*,*,#135,.T.);
#41=ORIENTED_EDGE('',*,*,#136,.F.);
#42=ORIENTED_EDGE('',*,*,#137,.F.);
#43=ORIENTED_EDGE('',*,*,#131,.T.);
#44=ORIENTED_EDGE('',*,*,#138,.T.);
#45=ORIENTED_EDGE('',*,*,#139,.F.);
#46=ORIENTED_EDGE('',*,*,#130,.F.);
#47=ORIENTED_EDGE('',*,*,#140,.F.);
#48=ORIENTED_EDGE('',*,*,#141,.F.);
#49=ORIENTED_EDGE('',*,*,#136,.T.);
#50=ORIENTED_EDGE('',*,*,#142,.T.);
#51=ORIENTED_EDGE('',*,*,#135,.F.);
#52=ORIENTED_EDGE('',*,*,#134,.F.);
#53=ORIENTED_EDGE('',*,*,#126,.T.);
#54=ORIENTED_EDGE('',*,*,#142,.F.);
#55=ORIENTED_EDGE('',*,*,#139,.T.);
#56=ORIENTED_EDGE('',*,*,#143,.F.);
#57=ORIENTED_EDGE('',*,*,#144,.F.);
#58=ORIENTED_EDGE('',*,*,#145,.F.);
#59=ORIENTED_EDGE('',*,*,#146,.F.);
#60=ORIENTED_EDGE('',*,*,#147,.F.);
#61=ORIENTED_EDGE('',*,*,#148,.F.);
#62=ORIENTED_EDGE('',*,*,#149,.F.);
#63=ORIENTED_EDGE('',*,*,#132,.T.);
#64=ORIENTED_EDGE('',*,*,#137,.T.);
#65=ORIENTED_EDGE('',*,*,#141,.T.);
#66=ORIENTED_EDGE('',*,*,#150,.F.);
#67=ORIENTED_EDGE('',*,*,#124,.F.);
#68=ORIENTED_EDGE('',*,*,#122,.F.);
#69=ORIENTED_EDGE('',*,*,#138,.F.);
#70=ORIENTED_EDGE('',*,*,#140,.T.);
#71=ORIENTED_EDGE('',*,*,#129,.F.);
#72=ORIENTED_EDGE('',*,*,#151,.F.);
#73=ORIENTED_EDGE('',*,*,#150,.T.);
#74=ORIENTED_EDGE('',*,*,#151,.T.);
#75=ORIENTED_EDGE('',*,*,#120,.F.);
#76=ORIENTED_EDGE('',*,*,#125,.F.);
#77=ORIENTED_EDGE('',*,*,#152,.T.);
#78=ORIENTED_EDGE('',*,*,#128,.F.);
#79=ORIENTED_EDGE('',*,*,#133,.F.);
#80=ORIENTED_EDGE('',*,*,#149,.T.);
#81=ORIENTED_EDGE('',*,*,#152,.F.);
#82=ORIENTED_EDGE('',*,*,#123,.T.);
#83=ORIENTED_EDGE('',*,*,#118,.T.);
#84=ORIENTED_EDGE('',*,*,#143,.T.);
#85=ORIENTED_EDGE('',*,*,#153,.F.);
#86=ORIENTED_EDGE('',*,*,#154,.F.);
#87=ORIENTED_EDGE('',*,*,#155,.T.);
#88=ORIENTED_EDGE('',*,*,#148,.T.);
#89=ORIENTED_EDGE('',*,*,#156,.F.);
#90=ORIENTED_EDGE('',*,*,#157,.F.);
#91=ORIENTED_EDGE('',*,*,#153,.T.);
#92=ORIENTED_EDGE('',*,*,#147,.T.);
#93=ORIENTED_EDGE('',*,*,#158,.F.);
#94=ORIENTED_EDGE('',*,*,#159,.F.);
#95=ORIENTED_EDGE('',*,*,#156,.T.);
#96=ORIENTED_EDGE('',*,*,#146,.T.);
#97=ORIENTED_EDGE('',*,*,#160,.F.);
#98=ORIENTED_EDGE('',*,*,#161,.F.);
#99=ORIENTED_EDGE('',*,*,#158,.T.);
#100=ORIENTED_EDGE('',*,*,#145,.T.);
#101=ORIENTED_EDGE('',*,*,#162,.F.);
#102=ORIENTED_EDGE('',*,*,#163,.F.);
#103=ORIENTED_EDGE('',*,*,#160,.T.);
#104=ORIENTED_EDGE('',*,*,#144,.T.);
#105=ORIENTED_EDGE('',*,*,#155,.F.);
#106=ORIENTED_EDGE('',*,*,#164,.F.);
#107=ORIENTED_EDGE('',*,*,#162,.T.);
#108=ORIENTED_EDGE('',*,*,#165,.F.);
#109=ORIENTED_EDGE('',*,*,#154,.T.);
#110=ORIENTED_EDGE('',*,*,#157,.T.);
#111=ORIENTED_EDGE('',*,*,#159,.T.);
#112=ORIENTED_EDGE('',*,*,#161,.T.);
#113=ORIENTED_EDGE('',*,*,#163,.T.);
#114=ORIENTED_EDGE('',*,*,#164,.T.);
#115=ORIENTED_EDGE('',*,*,#165,.T.);
#116=ORIENTED_EDGE('',*,*,#166,.F.);
#117=ORIENTED_EDGE('',*,*,#166,.T.);
#118=EDGE_CURVE('',#167,#168,#200,.T.);
#119=EDGE_CURVE('',#169,#167,#201,.T.);
#120=EDGE_CURVE('',#169,#170,#202,.T.);
#121=EDGE_CURVE('',#168,#170,#203,.T.);
#122=EDGE_CURVE('',#171,#171,#15,.F.);
#123=EDGE_CURVE('',#172,#167,#204,.T.);
#124=EDGE_CURVE('',#172,#173,#205,.T.);
#125=EDGE_CURVE('',#173,#169,#206,.T.);
#126=EDGE_CURVE('',#174,#175,#207,.T.);
#127=EDGE_CURVE('',#176,#174,#208,.T.);
#128=EDGE_CURVE('',#176,#168,#209,.T.);
#129=EDGE_CURVE('',#170,#177,#210,.T.);
#130=EDGE_CURVE('',#177,#175,#211,.T.);
#131=EDGE_CURVE('',#178,#179,#212,.T.);
#132=EDGE_CURVE('',#180,#178,#213,.T.);
#133=EDGE_CURVE('',#180,#176,#214,.T.);
#134=EDGE_CURVE('',#174,#179,#215,.T.);
#135=EDGE_CURVE('',#179,#181,#216,.T.);
#136=EDGE_CURVE('',#182,#181,#217,.T.);
#137=EDGE_CURVE('',#178,#182,#218,.T.);
#138=EDGE_CURVE('',#183,#183,#16,.T.);
#139=EDGE_CURVE('',#184,#184,#17,.T.);
#140=EDGE_CURVE('',#185,#177,#219,.T.);
#141=EDGE_CURVE('',#182,#185,#220,.T.);
#142=EDGE_CURVE('',#181,#175,#221,.T.);
#143=EDGE_CURVE('',#186,#187,#222,.T.);
#144=EDGE_CURVE('',#188,#186,#223,.T.);
#145=EDGE_CURVE('',#189,#188,#224,.T.);
#146=EDGE_CURVE('',#190,#189,#225,.T.);
#147=EDGE_CURVE('',#191,#190,#226,.T.);
#148=EDGE_CURVE('',#187,#191,#227,.T.);
#149=EDGE_CURVE('',#180,#172,#228,.T.);
#150=EDGE_CURVE('',#173,#185,#229,.T.);
#151=EDGE_CURVE('',#173,#170,#230,.T.);
#152=EDGE_CURVE('',#172,#168,#231,.T.);
#153=EDGE_CURVE('',#192,#187,#232,.T.);
#154=EDGE_CURVE('',#193,#192,#233,.T.);
#155=EDGE_CURVE('',#193,#186,#234,.T.);
#156=EDGE_CURVE('',#194,#191,#235,.T.);
#157=EDGE_CURVE('',#192,#194,#236,.T.);
#158=EDGE_CURVE('',#195,#190,#237,.T.);
#159=EDGE_CURVE('',#194,#195,#238,.T.);
#160=EDGE_CURVE('',#196,#189,#239,.T.);
#161=EDGE_CURVE('',#195,#196,#240,.T.);
#162=EDGE_CURVE('',#197,#188,#241,.T.);
#163=EDGE_CURVE('',#196,#197,#242,.T.);
#164=EDGE_CURVE('',#197,#193,#243,.T.);
#165=EDGE_CURVE('',#198,#198,#18,.T.);
#166=EDGE_CURVE('',#199,#199,#19,.T.);
#167=VERTEX_POINT('',#537);
#168=VERTEX_POINT('',#538);
#169=VERTEX_POINT('',#540);
#170=VERTEX_POINT('',#542);
#171=VERTEX_POINT('',#545);
#172=VERTEX_POINT('',#548);
#173=VERTEX_POINT('',#550);
#174=VERTEX_POINT('',#554);
#175=VERTEX_POINT('',#555);
#176=VERTEX_POINT('',#557);
#177=VERTEX_POINT('',#560);
#178=VERTEX_POINT('',#564);
#179=VERTEX_POINT('',#565);
#180=VERTEX_POINT('',#567);
#181=VERTEX_POINT('',#572);
#182=VERTEX_POINT('',#574);
#183=VERTEX_POINT('',#578);
#184=VERTEX_POINT('',#580);
#185=VERTEX_POINT('',#583);
#186=VERTEX_POINT('',#589);
#187=VERTEX_POINT('',#590);
#188=VERTEX_POINT('',#592);
#189=VERTEX_POINT('',#594);
#190=VERTEX_POINT('',#596);
#191=VERTEX_POINT('',#598);
#192=VERTEX_POINT('',#611);
#193=VERTEX_POINT('',#613);
#194=VERTEX_POINT('',#617);
#195=VERTEX_POINT('',#621);
#196=VERTEX_POINT('',#625);
#197=VERTEX_POINT('',#629);
#198=VERTEX_POINT('',#635);
#199=VERTEX_POINT('',#638);
#200=LINE('',#536,#244);
#201=LINE('',#539,#245);
#202=LINE('',#541,#246);
#203=LINE('',#543,#247);
#204=LINE('',#547,#248);
#205=LINE('',#549,#249);
#206=LINE('',#551,#250);
#207=LINE('',#553,#251);
#208=LINE('',#556,#252);
#209=LINE('',#558,#253);
#210=LINE('',#559,#254);
#211=LINE('',#561,#255);
#212=LINE('',#563,#256);
#213=LINE('',#566,#257);
#214=LINE('',#568,#258);
#215=LINE('',#569,#259);
#216=LINE('',#571,#260);
#217=LINE('',#573,#261);
#218=LINE('',#575,#262);
#219=LINE('',#582,#263);
#220=LINE('',#584,#264);
#221=LINE('',#585,#265);
#222=LINE('',#588,#266);
#223=LINE('',#591,#267);
#224=LINE('',#593,#268);
#225=LINE('',#595,#269);
#226=LINE('',#597,#270);
#227=LINE('',#599,#271);
#228=LINE('',#600,#272);
#229=LINE('',#601,#273);
#230=LINE('',#604,#274);
#231=LINE('',#607,#275);
#232=LINE('',#610,#276);
#233=LINE('',#612,#277);
#234=LINE('',#614,#278);
#235=LINE('',#616,#279);
#236=LINE('',#618,#280);
#237=LINE('',#620,#281);
#238=LINE('',#622,#282);
#239=LINE('',#624,#283);
#240=LINE('',#626,#284);
#241=LINE('',#628,#285);
#242=LINE('',#630,#286);
#243=LINE('',#632,#287);
#244=VECTOR('',#436,1.);
#245=VECTOR('',#437,1.);
#246=VECTOR('',#438,1.);
#247=VECTOR('',#439,1.);
#248=VECTOR('',#444,1.);
#249=VECTOR('',#445,1.);
#250=VECTOR('',#446,1.);
#251=VECTOR('',#449,1.);
#252=VECTOR('',#450,1.);
#253=VECTOR('',#451,1.);
#254=VECTOR('',#452,1.);
#255=VECTOR('',#453,1.);
#256=VECTOR('',#456,1.);
#257=VECTOR('',#457,1.);
#258=VECTOR('',#458,1.);
#259=VECTOR('',#459,1.);
#260=VECTOR('',#462,1.);
#261=VECTOR('',#463,1.);
#262=VECTOR('',#464,1.);
#263=VECTOR('',#473,1.);
#264=VECTOR('',#474,1.);
#265=VECTOR('',#475,1.);
#266=VECTOR('',#480,1.);
#267=VECTOR('',#481,1.);
#268=VECTOR('',#482,1.);
#269=VECTOR('',#483,1.);
#270=VECTOR('',#484,1.);
#271=VECTOR('',#485,1.);
#272=VECTOR('',#486,1.);
#273=VECTOR('',#487,1.);
#274=VECTOR('',#492,1.);
#275=VECTOR('',#497,1.);
#276=VECTOR('',#502,1.);
#277=VECTOR('',#503,1.);
#278=VECTOR('',#504,1.);
#279=VECTOR('',#507,1.);
#280=VECTOR('',#508,1.);
#281=VECTOR('',#511,1.);
#282=VECTOR('',#512,1.);
#283=VECTOR('',#515,1.);
#284=VECTOR('',#516,1.);
#285=VECTOR('',#519,1.);
#286=VECTOR('',#520,1.);
#287=VECTOR('',#523,1.);
#288=EDGE_LOOP('',(#20,#21,#22,#23));
#289=EDGE_LOOP('',(#24));
#290=EDGE_LOOP('',(#25,#26,#27,#28));
#291=EDGE_LOOP('',(#29,#30,#31,#32,#33,#34));
#292=EDGE_LOOP('',(#35,#36,#37,#38,#39));
#293=EDGE_LOOP('',(#40,#41,#42,#43));
#294=EDGE_LOOP('',(#44));
#295=EDGE_LOOP('',(#45));
#296=EDGE_LOOP('',(#46,#47,#48,#49,#50));
#297=EDGE_LOOP('',(#51,#52,#53,#54));
#298=EDGE_LOOP('',(#55));
#299=EDGE_LOOP('',(#56,#57,#58,#59,#60,#61));
#300=EDGE_LOOP('',(#62,#63,#64,#65,#66,#67));
#301=EDGE_LOOP('',(#68));
#302=EDGE_LOOP('',(#69));
#303=EDGE_LOOP('',(#70,#71,#72,#73));
#304=EDGE_LOOP('',(#74,#75,#76));
#305=EDGE_LOOP('',(#77,#78,#79,#80));
#306=EDGE_LOOP('',(#81,#82,#83));
#307=EDGE_LOOP('',(#84,#85,#86,#87));
#308=EDGE_LOOP('',(#88,#89,#90,#91));
#309=EDGE_LOOP('',(#92,#93,#94,#95));
#310=EDGE_LOOP('',(#96,#97,#98,#99));
#311=EDGE_LOOP('',(#100,#101,#102,#103));
#312=EDGE_LOOP('',(#104,#105,#106,#107));
#313=EDGE_LOOP('',(#108));
#314=EDGE_LOOP('',(#109,#110,#111,#112,#113,#114));
#315=EDGE_LOOP('',(#115));
#316=EDGE_LOOP('',(#116));
#317=EDGE_LOOP('',(#117));
#318=FACE_BOUND('',#288,.T.);
#319=FACE_BOUND('',#289,.T.);
#320=FACE_BOUND('',#290,.T.);
#321=FACE_BOUND('',#291,.T.);
#322=FACE_BOUND('',#292,.T.);
#323=FACE_BOUND('',#293,.T.);
#324=FACE_BOUND('',#294,.T.);
#325=FACE_BOUND('',#295,.T.);
#326=FACE_BOUND('',#296,.T.);
#327=FACE_BOUND('',#297,.T.);
#328=FACE_BOUND('',#298,.T.);
#329=FACE_BOUND('',#299,.T.);
#330=FACE_BOUND('',#300,.T.);
#331=FACE_BOUND('',#301,.T.);
#332=FACE_BOUND('',#302,.T.);
#333=FACE_BOUND('',#303,.T.);
#334=FACE_BOUND('',#304,.T.);
#335=FACE_BOUND('',#305,.T.);
#336=FACE_BOUND('',#306,.T.);
#337=FACE_BOUND('',#307,.T.);
#338=FACE_BOUND('',#308,.T.);
#339=FACE_BOUND('',#309,.T.);
#340=FACE_BOUND('',#310,.T.);
#341=FACE_BOUND('',#311,.T.);
#342=FACE_BOUND('',#312,.T.);
#343=FACE_BOUND('',#313,.T.);
#344=FACE_BOUND('',#314,.T.);
#345=FACE_BOUND('',#315,.T.);
#346=FACE_BOUND('',#316,.T.);
#347=FACE_BOUND('',#317,.T.);
#348=PLANE('',#404);
#349=PLANE('',#406);
#350=PLANE('',#407);
#351=PLANE('',#408);
#352=PLANE('',#409);
#353=PLANE('',#413);
#354=PLANE('',#414);
#355=PLANE('',#415);
#356=PLANE('',#417);
#357=PLANE('',#418);
#358=PLANE('',#419);
#359=PLANE('',#420);
#360=PLANE('',#421);
#361=PLANE('',#422);
#362=PLANE('',#423);
#363=PLANE('',#424);
#364=PLANE('',#425);
#365=PLANE('',#426);
#366=PLANE('',#427);
#367=PLANE('',#431);
#368=ADVANCED_FACE('',(#318,#319),#348,.T.);
#369=ADVANCED_FACE('',(#320),#349,.T.);
#370=ADVANCED_FACE('',(#321),#350,.T.);
#371=ADVANCED_FACE('',(#322),#351,.F.);
#372=ADVANCED_FACE('',(#323),#352,.F.);
#373=ADVANCED_FACE('',(#324,#325),#13,.F.);
#374=ADVANCED_FACE('',(#326),#353,.F.);
#375=ADVANCED_FACE('',(#327,#328),#354,.F.);
#376=ADVANCED_FACE('',(#329,#330),#355,.T.);
#377=ADVANCED_FACE('',(#331,#332),#12,.F.);
#378=ADVANCED_FACE('',(#333),#356,.F.);
#379=ADVANCED_FACE('',(#334),#357,.F.);
#380=ADVANCED_FACE('',(#335),#358,.F.);
#381=ADVANCED_FACE('',(#336),#359,.T.);
#382=ADVANCED_FACE('',(#337),#360,.F.);
#383=ADVANCED_FACE('',(#338),#361,.F.);
#384=ADVANCED_FACE('',(#339),#362,.F.);
#385=ADVANCED_FACE('',(#340),#363,.F.);
#386=ADVANCED_FACE('',(#341),#364,.F.);
#387=ADVANCED_FACE('',(#342),#365,.F.);
#388=ADVANCED_FACE('',(#343,#344),#366,.T.);
#389=ADVANCED_FACE('',(#345,#346),#14,.F.);
#390=ADVANCED_FACE('',(#347),#367,.T.);
#391=CLOSED_SHELL('',(#368,#369,#370,#371,#372,#373,#374,#375,#376,#377,
#378,#379,#380,#381,#382,#383,#384,#385,#386,#387,#388,#389,#390));
#392=STYLED_ITEM('',(#393),#400);
#393=PRESENTATION_STYLE_ASSIGNMENT((#394));
#394=SURFACE_STYLE_USAGE(.BOTH.,#395);
#395=SURFACE_SIDE_STYLE('',(#396));
#396=SURFACE_STYLE_FILL_AREA(#397);
#397=FILL_AREA_STYLE('',(#398));
#398=FILL_AREA_STYLE_COLOUR('',#399);
#399=COLOUR_RGB('',0.498039215686275,0.498039215686275,0.498039215686275);
#400=MANIFOLD_SOLID_BREP('Noge_gripper',#391);
#401=SHAPE_DEFINITION_REPRESENTATION(#646,#402);
#402=SHAPE_REPRESENTATION('Noge_gripper',(#403),#641);
#403=AXIS2_PLACEMENT_3D('',#534,#432,#433);
#404=AXIS2_PLACEMENT_3D('',#535,#434,#435);
#405=AXIS2_PLACEMENT_3D('',#544,#440,#441);
#406=AXIS2_PLACEMENT_3D('',#546,#442,#443);
#407=AXIS2_PLACEMENT_3D('',#552,#447,#448);
#408=AXIS2_PLACEMENT_3D('',#562,#454,#455);
#409=AXIS2_PLACEMENT_3D('',#570,#460,#461);
#410=AXIS2_PLACEMENT_3D('',#576,#465,#466);
#411=AXIS2_PLACEMENT_3D('',#577,#467,#468);
#412=AXIS2_PLACEMENT_3D('',#579,#469,#470);
#413=AXIS2_PLACEMENT_3D('',#581,#471,#472);
#414=AXIS2_PLACEMENT_3D('',#586,#476,#477);
#415=AXIS2_PLACEMENT_3D('',#587,#478,#479);
#416=AXIS2_PLACEMENT_3D('',#602,#488,#489);
#417=AXIS2_PLACEMENT_3D('',#603,#490,#491);
#418=AXIS2_PLACEMENT_3D('',#605,#493,#494);
#419=AXIS2_PLACEMENT_3D('',#606,#495,#496);
#420=AXIS2_PLACEMENT_3D('',#608,#498,#499);
#421=AXIS2_PLACEMENT_3D('',#609,#500,#501);
#422=AXIS2_PLACEMENT_3D('',#615,#505,#506);
#423=AXIS2_PLACEMENT_3D('',#619,#509,#510);
#424=AXIS2_PLACEMENT_3D('',#623,#513,#514);
#425=AXIS2_PLACEMENT_3D('',#627,#517,#518);
#426=AXIS2_PLACEMENT_3D('',#631,#521,#522);
#427=AXIS2_PLACEMENT_3D('',#633,#524,#525);
#428=AXIS2_PLACEMENT_3D('',#634,#526,#527);
#429=AXIS2_PLACEMENT_3D('',#636,#528,#529);
#430=AXIS2_PLACEMENT_3D('',#637,#530,#531);
#431=AXIS2_PLACEMENT_3D('',#639,#532,#533);
#432=DIRECTION('',(0.,0.,1.));
#433=DIRECTION('',(1.,0.,0.));
#434=DIRECTION('',(0.,0.,1.));
#435=DIRECTION('',(1.,0.,0.));
#436=DIRECTION('',(7.70988211545248E-16,1.,0.));
#437=DIRECTION('',(-1.,0.,0.));
#438=DIRECTION('',(7.70988211545248E-16,1.,0.));
#439=DIRECTION('',(1.,0.,0.));
#440=DIRECTION('',(0.,0.,1.));
#441=DIRECTION('',(1.,0.,0.));
#442=DIRECTION('',(0.,1.,0.));
#443=DIRECTION('',(0.,0.,1.));
#444=DIRECTION('',(0.,0.,-1.));
#445=DIRECTION('',(1.,0.,0.));
#446=DIRECTION('',(0.,0.,-1.));
#447=DIRECTION('',(0.,1.,0.));
#448=DIRECTION('',(0.,0.,1.));
#449=DIRECTION('',(1.,0.,0.));
#450=DIRECTION('',(0.,0.,-1.));
#451=DIRECTION('',(1.,0.,0.));
#452=DIRECTION('',(1.,-7.70988211545248E-16,0.));
#453=DIRECTION('',(0.,0.,-1.));
#454=DIRECTION('',(1.,0.,0.));
#455=DIRECTION('',(0.,0.,-1.));
#456=DIRECTION('',(0.,0.,-1.));
#457=DIRECTION('',(0.,-1.,0.));
#458=DIRECTION('',(3.44796410173233E-16,0.447213595499958,-0.894427190999916));
#459=DIRECTION('',(0.,-1.,0.));
#460=DIRECTION('',(0.,1.,0.));
#461=DIRECTION('',(0.,0.,1.));
#462=DIRECTION('',(1.,0.,0.));
#463=DIRECTION('',(0.,0.,-1.));
#464=DIRECTION('',(1.,0.,0.));
#465=DIRECTION('',(0.,0.,-1.));
#466=DIRECTION('',(-1.,0.,0.));
#467=DIRECTION('',(0.,0.,1.));
#468=DIRECTION('',(1.,0.,0.));
#469=DIRECTION('',(0.,0.,1.));
#470=DIRECTION('',(1.,0.,0.));
#471=DIRECTION('',(-1.,7.70988211545248E-16,0.));
#472=DIRECTION('',(-7.70988211545248E-16,-1.,0.));
#473=DIRECTION('',(3.44796410173233E-16,0.447213595499958,-0.894427190999916));
#474=DIRECTION('',(7.70988211545248E-16,1.,0.));
#475=DIRECTION('',(7.70988211545248E-16,1.,0.));
#476=DIRECTION('',(0.,0.,1.));
#477=DIRECTION('',(1.,0.,0.));
#478=DIRECTION('',(0.,0.,1.));
#479=DIRECTION('',(1.,0.,0.));
#480=DIRECTION('',(-0.5,-0.866025403784439,0.));
#481=DIRECTION('',(-1.,0.,0.));
#482=DIRECTION('',(-0.5,0.866025403784439,0.));
#483=DIRECTION('',(0.5,0.866025403784439,0.));
#484=DIRECTION('',(1.,0.,0.));
#485=DIRECTION('',(0.5,-0.866025403784439,0.));
#486=DIRECTION('',(1.,0.,0.));
#487=DIRECTION('',(1.,-7.70988211545248E-16,0.));
#488=DIRECTION('',(0.,0.,1.));
#489=DIRECTION('',(1.,0.,0.));
#490=DIRECTION('',(-6.89592820346465E-16,-0.894427190999916,-0.447213595499958));
#491=DIRECTION('',(0.,0.447213595499958,-0.894427190999916));
#492=DIRECTION('',(3.44796410173233E-16,0.447213595499958,-0.894427190999916));
#493=DIRECTION('',(1.,-7.70988211545248E-16,0.));
#494=DIRECTION('',(7.70988211545248E-16,1.,0.));
#495=DIRECTION('',(-6.89592820346465E-16,-0.894427190999916,-0.447213595499958));
#496=DIRECTION('',(0.,0.447213595499958,-0.894427190999916));
#497=DIRECTION('',(3.44796410173233E-16,0.447213595499958,-0.894427190999916));
#498=DIRECTION('',(1.,-7.70988211545248E-16,0.));
#499=DIRECTION('',(7.70988211545248E-16,1.,0.));
#500=DIRECTION('',(-0.866025403784439,0.5,0.));
#501=DIRECTION('',(-0.5,-0.866025403784439,0.));
#502=DIRECTION('',(0.,0.,1.));
#503=DIRECTION('',(-0.5,-0.866025403784439,0.));
#504=DIRECTION('',(0.,0.,1.));
#505=DIRECTION('',(-0.866025403784439,-0.5,0.));
#506=DIRECTION('',(0.5,-0.866025403784439,0.));
#507=DIRECTION('',(0.,0.,1.));
#508=DIRECTION('',(0.5,-0.866025403784439,0.));
#509=DIRECTION('',(0.,-1.,0.));
#510=DIRECTION('',(0.,0.,-1.));
#511=DIRECTION('',(0.,0.,1.));
#512=DIRECTION('',(1.,0.,0.));
#513=DIRECTION('',(0.866025403784439,-0.5,0.));
#514=DIRECTION('',(0.5,0.866025403784439,0.));
#515=DIRECTION('',(0.,0.,1.));
#516=DIRECTION('',(0.5,0.866025403784439,0.));
#517=DIRECTION('',(0.866025403784439,0.5,0.));
#518=DIRECTION('',(-0.5,0.866025403784439,0.));
#519=DIRECTION('',(0.,0.,1.));
#520=DIRECTION('',(-0.5,0.866025403784439,0.));
#521=DIRECTION('',(0.,1.,0.));
#522=DIRECTION('',(0.,0.,1.));
#523=DIRECTION('',(-1.,0.,0.));
#524=DIRECTION('',(0.,0.,1.));
#525=DIRECTION('',(1.,0.,0.));
#526=DIRECTION('',(0.,0.,1.));
#527=DIRECTION('',(1.,0.,0.));
#528=DIRECTION('',(0.,0.,1.));
#529=DIRECTION('',(1.,0.,0.));
#530=DIRECTION('',(0.,0.,1.));
#531=DIRECTION('',(1.,0.,0.));
#532=DIRECTION('',(0.,0.,1.));
#533=DIRECTION('',(1.,0.,0.));
#534=CARTESIAN_POINT('',(0.,0.,0.));
#535=CARTESIAN_POINT('',(1.38777878078145E-17,0.,0.086));
#536=CARTESIAN_POINT('',(-0.0065,0.0406459173544611,0.086));
#537=CARTESIAN_POINT('',(-0.0065,0.0451459173544611,0.086));
#538=CARTESIAN_POINT('',(-0.0065,0.0561459173544611,0.086));
#539=CARTESIAN_POINT('',(1.38777878078145E-17,0.0451459173544611,0.086));
#540=CARTESIAN_POINT('',(0.0065,0.0451459173544611,0.086));
#541=CARTESIAN_POINT('',(0.0065,0.040645917354461,0.086));
#542=CARTESIAN_POINT('',(0.0065,0.0561459173544611,0.086));
#543=CARTESIAN_POINT('',(-2.60208521396521E-18,0.0561459173544611,0.086));
#544=CARTESIAN_POINT('',(0.,0.05,0.086));
#545=CARTESIAN_POINT('',(0.00415,0.05,0.086));
#546=CARTESIAN_POINT('',(-6.93889390390723E-18,0.0451459173544611,0.108));
#547=CARTESIAN_POINT('',(-0.0065,0.0451459173544611,0.108));
#548=CARTESIAN_POINT('',(-0.0065,0.0451459173544611,0.108));
#549=CARTESIAN_POINT('',(-6.93889390390723E-18,0.0451459173544611,0.108));
#550=CARTESIAN_POINT('',(0.0065,0.0451459173544611,0.108));
#551=CARTESIAN_POINT('',(0.0065,0.0451459173544611,0.108));
#552=CARTESIAN_POINT('',(-2.60208521396521E-18,0.0561459173544611,0.086));
#553=CARTESIAN_POINT('',(-2.60208521396521E-18,0.0561459173544611,0.083));
#554=CARTESIAN_POINT('',(-0.0075,0.0561459173544611,0.083));
#555=CARTESIAN_POINT('',(0.0075,0.0561459173544611,0.083));
#556=CARTESIAN_POINT('',(-0.0075,0.0561459173544611,0.086));
#557=CARTESIAN_POINT('',(-0.0075,0.0561459173544611,0.086));
#558=CARTESIAN_POINT('',(-2.60208521396521E-18,0.0561459173544611,0.086));
#559=CARTESIAN_POINT('',(0.0065,0.0561459173544611,0.086));
#560=CARTESIAN_POINT('',(0.0075,0.0561459173544611,0.086));
#561=CARTESIAN_POINT('',(0.0075,0.0561459173544611,0.086));
#562=CARTESIAN_POINT('',(-0.0075,0.040645917354461,0.086));
#563=CARTESIAN_POINT('',(-0.0075,0.036145917354461,0.086));
#564=CARTESIAN_POINT('',(-0.0075,0.036145917354461,0.108));
#565=CARTESIAN_POINT('',(-0.0075,0.036145917354461,0.083));
#566=CARTESIAN_POINT('',(-0.0075,0.040645917354461,0.108));
#567=CARTESIAN_POINT('',(-0.0075,0.0451459173544611,0.108));
#568=CARTESIAN_POINT('',(-0.0075,0.0506459173544611,0.097));
#569=CARTESIAN_POINT('',(-0.0075,0.040645917354461,0.083));
#570=CARTESIAN_POINT('',(-1.21430643318376E-17,0.036145917354461,0.086));
#571=CARTESIAN_POINT('',(-1.21430643318376E-17,0.036145917354461,0.083));
#572=CARTESIAN_POINT('',(0.0075,0.036145917354461,0.083));
#573=CARTESIAN_POINT('',(0.0075,0.036145917354461,0.086));
#574=CARTESIAN_POINT('',(0.0075,0.036145917354461,0.108));
#575=CARTESIAN_POINT('',(-1.21430643318376E-17,0.036145917354461,0.108));
#576=CARTESIAN_POINT('',(0.,0.05,0.086));
#577=CARTESIAN_POINT('',(0.,0.05,0.0841));
#578=CARTESIAN_POINT('',(0.00225,0.05,0.0841));
#579=CARTESIAN_POINT('',(0.,0.05,0.083));
#580=CARTESIAN_POINT('',(0.00225,0.05,0.083));
#581=CARTESIAN_POINT('',(0.0075,0.040645917354461,0.086));
#582=CARTESIAN_POINT('',(0.0075,0.0506459173544611,0.097));
#583=CARTESIAN_POINT('',(0.0075,0.0451459173544611,0.108));
#584=CARTESIAN_POINT('',(0.0075,0.040645917354461,0.108));
#585=CARTESIAN_POINT('',(0.0075,0.040645917354461,0.083));
#586=CARTESIAN_POINT('',(1.38777878078145E-17,0.,0.083));
#587=CARTESIAN_POINT('',(1.38777878078145E-17,0.,0.108));
#588=CARTESIAN_POINT('',(-0.00302479672781159,0.0424354560818516,0.108));
#589=CARTESIAN_POINT('',(-0.002,0.0442104560818516,0.108));
#590=CARTESIAN_POINT('',(-0.00404959345562317,0.0406604560818516,0.108));
#591=CARTESIAN_POINT('',(4.95934556231704E-5,0.0442104560818516,0.108));
#592=CARTESIAN_POINT('',(0.00209918691124634,0.0442104560818516,0.108));
#593=CARTESIAN_POINT('',(0.00312398363905792,0.0424354560818516,0.108));
#594=CARTESIAN_POINT('',(0.00414878036686951,0.0406604560818516,0.108));
#595=CARTESIAN_POINT('',(0.00312398363905792,0.0388854560818516,0.108));
#596=CARTESIAN_POINT('',(0.00209918691124634,0.0371104560818516,0.108));
#597=CARTESIAN_POINT('',(4.95934556231713E-5,0.0371104560818516,0.108));
#598=CARTESIAN_POINT('',(-0.002,0.0371104560818516,0.108));
#599=CARTESIAN_POINT('',(-0.00302479672781159,0.0388854560818516,0.108));
#600=CARTESIAN_POINT('',(-6.93889390390723E-18,0.0451459173544611,0.108));
#601=CARTESIAN_POINT('',(0.0065,0.0451459173544611,0.108));
#602=CARTESIAN_POINT('',(0.,0.05,0.0841));
#603=CARTESIAN_POINT('',(0.0065,0.0506459173544611,0.097));
#604=CARTESIAN_POINT('',(0.0065,0.0506459173544611,0.097));
#605=CARTESIAN_POINT('',(0.0065,0.0461459173544611,0.0955));
#606=CARTESIAN_POINT('',(-0.0075,0.0506459173544611,0.097));
#607=CARTESIAN_POINT('',(-0.0065,0.0506459173544611,0.097));
#608=CARTESIAN_POINT('',(-0.0065,0.0461459173544611,0.0955));
#609=CARTESIAN_POINT('',(-0.00302479672781159,0.0424354560818516,0.104));
#610=CARTESIAN_POINT('',(-0.00404959345562317,0.0406604560818516,0.104));
#611=CARTESIAN_POINT('',(-0.00404959345562317,0.0406604560818516,0.104));
#612=CARTESIAN_POINT('',(-0.00302479672781159,0.0424354560818516,0.104));
#613=CARTESIAN_POINT('',(-0.002,0.0442104560818516,0.104));
#614=CARTESIAN_POINT('',(-0.002,0.0442104560818516,0.104));
#615=CARTESIAN_POINT('',(-0.00302479672781159,0.0388854560818516,0.104));
#616=CARTESIAN_POINT('',(-0.002,0.0371104560818516,0.104));
#617=CARTESIAN_POINT('',(-0.002,0.0371104560818516,0.104));
#618=CARTESIAN_POINT('',(-0.00302479672781159,0.0388854560818516,0.104));
#619=CARTESIAN_POINT('',(4.95934556231713E-5,0.0371104560818516,0.104));
#620=CARTESIAN_POINT('',(0.00209918691124634,0.0371104560818516,0.104));
#621=CARTESIAN_POINT('',(0.00209918691124634,0.0371104560818516,0.104));
#622=CARTESIAN_POINT('',(4.95934556231713E-5,0.0371104560818516,0.104));
#623=CARTESIAN_POINT('',(0.00312398363905792,0.0388854560818516,0.104));
#624=CARTESIAN_POINT('',(0.00414878036686951,0.0406604560818516,0.104));
#625=CARTESIAN_POINT('',(0.00414878036686951,0.0406604560818516,0.104));
#626=CARTESIAN_POINT('',(0.00312398363905792,0.0388854560818516,0.104));
#627=CARTESIAN_POINT('',(0.00312398363905792,0.0424354560818516,0.104));
#628=CARTESIAN_POINT('',(0.00209918691124634,0.0442104560818516,0.104));
#629=CARTESIAN_POINT('',(0.00209918691124634,0.0442104560818516,0.104));
#630=CARTESIAN_POINT('',(0.00312398363905792,0.0424354560818516,0.104));
#631=CARTESIAN_POINT('',(4.95934556231704E-5,0.0442104560818516,0.104));
#632=CARTESIAN_POINT('',(4.95934556231704E-5,0.0442104560818516,0.104));
#633=CARTESIAN_POINT('',(-1.51614831800373E-14,0.00942564172107473,0.104));
#634=CARTESIAN_POINT('',(4.9593455623169E-5,0.0406604560818516,0.104));
#635=CARTESIAN_POINT('',(0.00229959345562317,0.0406604560818516,0.104));
#636=CARTESIAN_POINT('',(4.9593455623169E-5,0.0406604560818516,0.098));
#637=CARTESIAN_POINT('',(4.9593455623169E-5,0.0406604560818516,0.098));
#638=CARTESIAN_POINT('',(0.00229959345562317,0.0406604560818516,0.098));
#639=CARTESIAN_POINT('',(-1.51614831800373E-14,0.00942564172107473,0.098));
#640=MECHANICAL_DESIGN_GEOMETRIC_PRESENTATION_REPRESENTATION('',(#392),
#641);
#641=(
GEOMETRIC_REPRESENTATION_CONTEXT(3)
GLOBAL_UNCERTAINTY_ASSIGNED_CONTEXT((#642))
GLOBAL_UNIT_ASSIGNED_CONTEXT((#645,#644,#643))
REPRESENTATION_CONTEXT('Noge_gripper','TOP_LEVEL_ASSEMBLY_PART')
);
#642=UNCERTAINTY_MEASURE_WITH_UNIT(LENGTH_MEASURE(1.E-8),#645,
'DISTANCE_ACCURACY_VALUE','Maximum Tolerance applied to model');
#643=(
NAMED_UNIT(*)
SI_UNIT($,.STERADIAN.)
SOLID_ANGLE_UNIT()
);
#644=(
NAMED_UNIT(*)
PLANE_ANGLE_UNIT()
SI_UNIT($,.RADIAN.)
);
#645=(
LENGTH_UNIT()
NAMED_UNIT(*)
SI_UNIT($,.METRE.)
);
#646=PRODUCT_DEFINITION_SHAPE('','',#647);
#647=PRODUCT_DEFINITION('','',#649,#648);
#648=PRODUCT_DEFINITION_CONTEXT('',#655,'design');
#649=PRODUCT_DEFINITION_FORMATION_WITH_SPECIFIED_SOURCE('','',#651,
 .NOT_KNOWN.);
#650=PRODUCT_RELATED_PRODUCT_CATEGORY('','',(#651));
#651=PRODUCT('Noge_gripper','Noge_gripper','Noge_gripper',(#653));
#652=PRODUCT_CATEGORY('','');
#653=PRODUCT_CONTEXT('',#655,'mechanical');
#654=APPLICATION_PROTOCOL_DEFINITION('international standard',
'ap242_managed_model_based_3d_engineering',2020,#655);
#655=APPLICATION_CONTEXT('managed model based 3d engineering');
ENDSEC;
END-ISO-10303-21;
