ISO-10303-21;
HEADER;
/* Generated by software containing ST-Developer
 * from STEP Tools, Inc. (www.steptools.com) 
 */
/* OPTION: using custom renumber hook */

FILE_DESCRIPTION(
/* description */ ('STEP AP242 Edition 2',
'CAx-IF Rec.Pracs.---Representation and Presentation of Product Manufa
cturing Information (PMI)---4.0---2014-10-13',
'CAx-IF Rec.Pracs.---3D Tessellated Geometry---0.4---2014-09-14','2;1',
'CAx-IF Rec.Pracs.---User Defined Attributes---1.5---2016-08-15'),
/* implementation_level */ '2;1');

FILE_NAME(
/* name */ 'Plata_100x40_DXF - Podlozka_robot',
/* time_stamp */ '2026-08-26T12:12:35Z',
/* author */ (''),
/* organization */ (''),
/* preprocessor_version */ 'ST-DEVELOPER v20',
/* originating_system */ 'ONSHAPE BY PTC INC, 1.219',
/* authorisation */ '  ');

FILE_SCHEMA (('AP242_MANAGED_MODEL_BASED_3D_ENGINEERING_MIM_LF { 1 0 10303 442 3 1 4 }'));
ENDSEC;

DATA;
#10=SHAPE_REPRESENTATION_RELATIONSHIP('','',#253,#11);
#11=ADVANCED_BREP_SHAPE_REPRESENTATION('',(#251),#433);
#12=PLANE('',#270);
#13=PLANE('',#274);
#14=PLANE('',#286);
#15=PLANE('',#289);
#16=PLANE('',#292);
#17=ORIENTED_EDGE('',*,*,#61,.T.);
#18=ORIENTED_EDGE('',*,*,#62,.F.);
#19=ORIENTED_EDGE('',*,*,#63,.T.);
#20=ORIENTED_EDGE('',*,*,#64,.F.);
#21=ORIENTED_EDGE('',*,*,#65,.T.);
#22=ORIENTED_EDGE('',*,*,#66,.F.);
#23=ORIENTED_EDGE('',*,*,#67,.T.);
#24=ORIENTED_EDGE('',*,*,#68,.F.);
#25=ORIENTED_EDGE('',*,*,#69,.F.);
#26=ORIENTED_EDGE('',*,*,#70,.T.);
#27=ORIENTED_EDGE('',*,*,#71,.T.);
#28=ORIENTED_EDGE('',*,*,#72,.T.);
#29=ORIENTED_EDGE('',*,*,#73,.T.);
#30=ORIENTED_EDGE('',*,*,#67,.F.);
#31=ORIENTED_EDGE('',*,*,#65,.F.);
#32=ORIENTED_EDGE('',*,*,#63,.F.);
#33=ORIENTED_EDGE('',*,*,#61,.F.);
#34=ORIENTED_EDGE('',*,*,#69,.T.);
#35=ORIENTED_EDGE('',*,*,#74,.T.);
#36=ORIENTED_EDGE('',*,*,#75,.T.);
#37=ORIENTED_EDGE('',*,*,#76,.T.);
#38=ORIENTED_EDGE('',*,*,#68,.T.);
#39=ORIENTED_EDGE('',*,*,#66,.T.);
#40=ORIENTED_EDGE('',*,*,#64,.T.);
#41=ORIENTED_EDGE('',*,*,#62,.T.);
#42=ORIENTED_EDGE('',*,*,#70,.F.);
#43=ORIENTED_EDGE('',*,*,#77,.F.);
#44=ORIENTED_EDGE('',*,*,#73,.F.);
#45=ORIENTED_EDGE('',*,*,#78,.F.);
#46=ORIENTED_EDGE('',*,*,#72,.F.);
#47=ORIENTED_EDGE('',*,*,#79,.F.);
#48=ORIENTED_EDGE('',*,*,#71,.F.);
#49=ORIENTED_EDGE('',*,*,#80,.T.);
#50=ORIENTED_EDGE('',*,*,#74,.F.);
#51=ORIENTED_EDGE('',*,*,#79,.T.);
#52=ORIENTED_EDGE('',*,*,#80,.F.);
#53=ORIENTED_EDGE('',*,*,#81,.T.);
#54=ORIENTED_EDGE('',*,*,#76,.F.);
#55=ORIENTED_EDGE('',*,*,#78,.T.);
#56=ORIENTED_EDGE('',*,*,#81,.F.);
#57=ORIENTED_EDGE('',*,*,#82,.T.);
#58=ORIENTED_EDGE('',*,*,#75,.F.);
#59=ORIENTED_EDGE('',*,*,#77,.T.);
#60=ORIENTED_EDGE('',*,*,#82,.F.);
#61=EDGE_CURVE('',#83,#83,#105,.T.);
#62=EDGE_CURVE('',#84,#84,#106,.T.);
#63=EDGE_CURVE('',#85,#85,#107,.T.);
#64=EDGE_CURVE('',#86,#86,#108,.T.);
#65=EDGE_CURVE('',#87,#87,#109,.T.);
#66=EDGE_CURVE('',#88,#88,#110,.T.);
#67=EDGE_CURVE('',#89,#89,#111,.T.);
#68=EDGE_CURVE('',#90,#90,#112,.T.);
#69=EDGE_CURVE('',#91,#91,#113,.T.);
#70=EDGE_CURVE('',#92,#92,#114,.T.);
#71=EDGE_CURVE('',#93,#93,#115,.F.);
#72=EDGE_CURVE('',#94,#94,#116,.F.);
#73=EDGE_CURVE('',#95,#95,#117,.F.);
#74=EDGE_CURVE('',#96,#96,#118,.T.);
#75=EDGE_CURVE('',#97,#97,#119,.T.);
#76=EDGE_CURVE('',#98,#98,#120,.T.);
#77=EDGE_CURVE('',#99,#99,#121,.T.);
#78=EDGE_CURVE('',#100,#100,#122,.T.);
#79=EDGE_CURVE('',#101,#101,#123,.T.);
#80=EDGE_CURVE('',#102,#102,#124,.T.);
#81=EDGE_CURVE('',#103,#103,#125,.T.);
#82=EDGE_CURVE('',#104,#104,#126,.T.);
#83=VERTEX_POINT('',#374);
#84=VERTEX_POINT('',#376);
#85=VERTEX_POINT('',#379);
#86=VERTEX_POINT('',#381);
#87=VERTEX_POINT('',#384);
#88=VERTEX_POINT('',#386);
#89=VERTEX_POINT('',#389);
#90=VERTEX_POINT('',#391);
#91=VERTEX_POINT('',#394);
#92=VERTEX_POINT('',#396);
#93=VERTEX_POINT('',#399);
#94=VERTEX_POINT('',#401);
#95=VERTEX_POINT('',#403);
#96=VERTEX_POINT('',#406);
#97=VERTEX_POINT('',#408);
#98=VERTEX_POINT('',#410);
#99=VERTEX_POINT('',#413);
#100=VERTEX_POINT('',#416);
#101=VERTEX_POINT('',#419);
#102=VERTEX_POINT('',#422);
#103=VERTEX_POINT('',#426);
#104=VERTEX_POINT('',#430);
#105=CIRCLE('',#256,0.0045);
#106=CIRCLE('',#257,0.0045);
#107=CIRCLE('',#259,0.0045);
#108=CIRCLE('',#260,0.0045);
#109=CIRCLE('',#262,0.0045);
#110=CIRCLE('',#263,0.0045);
#111=CIRCLE('',#265,0.0045);
#112=CIRCLE('',#266,0.0045);
#113=CIRCLE('',#268,0.0745);
#114=CIRCLE('',#269,0.0745);
#115=CIRCLE('',#271,0.0035);
#116=CIRCLE('',#272,0.0035);
#117=CIRCLE('',#273,0.0035);
#118=CIRCLE('',#275,0.00525);
#119=CIRCLE('',#276,0.00525);
#120=CIRCLE('',#277,0.00525);
#121=CIRCLE('',#279,0.0035);
#122=CIRCLE('',#281,0.0035);
#123=CIRCLE('',#283,0.0035);
#124=CIRCLE('',#285,0.00525);
#125=CIRCLE('',#288,0.00525);
#126=CIRCLE('',#291,0.00525);
#127=EDGE_LOOP('',(#17));
#128=EDGE_LOOP('',(#18));
#129=EDGE_LOOP('',(#19));
#130=EDGE_LOOP('',(#20));
#131=EDGE_LOOP('',(#21));
#132=EDGE_LOOP('',(#22));
#133=EDGE_LOOP('',(#23));
#134=EDGE_LOOP('',(#24));
#135=EDGE_LOOP('',(#25));
#136=EDGE_LOOP('',(#26));
#137=EDGE_LOOP('',(#27));
#138=EDGE_LOOP('',(#28));
#139=EDGE_LOOP('',(#29));
#140=EDGE_LOOP('',(#30));
#141=EDGE_LOOP('',(#31));
#142=EDGE_LOOP('',(#32));
#143=EDGE_LOOP('',(#33));
#144=EDGE_LOOP('',(#34));
#145=EDGE_LOOP('',(#35));
#146=EDGE_LOOP('',(#36));
#147=EDGE_LOOP('',(#37));
#148=EDGE_LOOP('',(#38));
#149=EDGE_LOOP('',(#39));
#150=EDGE_LOOP('',(#40));
#151=EDGE_LOOP('',(#41));
#152=EDGE_LOOP('',(#42));
#153=EDGE_LOOP('',(#43));
#154=EDGE_LOOP('',(#44));
#155=EDGE_LOOP('',(#45));
#156=EDGE_LOOP('',(#46));
#157=EDGE_LOOP('',(#47));
#158=EDGE_LOOP('',(#48));
#159=EDGE_LOOP('',(#49));
#160=EDGE_LOOP('',(#50));
#161=EDGE_LOOP('',(#51));
#162=EDGE_LOOP('',(#52));
#163=EDGE_LOOP('',(#53));
#164=EDGE_LOOP('',(#54));
#165=EDGE_LOOP('',(#55));
#166=EDGE_LOOP('',(#56));
#167=EDGE_LOOP('',(#57));
#168=EDGE_LOOP('',(#58));
#169=EDGE_LOOP('',(#59));
#170=EDGE_LOOP('',(#60));
#171=FACE_BOUND('',#127,.T.);
#172=FACE_BOUND('',#128,.T.);
#173=FACE_BOUND('',#129,.T.);
#174=FACE_BOUND('',#130,.T.);
#175=FACE_BOUND('',#131,.T.);
#176=FACE_BOUND('',#132,.T.);
#177=FACE_BOUND('',#133,.T.);
#178=FACE_BOUND('',#134,.T.);
#179=FACE_BOUND('',#135,.T.);
#180=FACE_BOUND('',#136,.T.);
#181=FACE_BOUND('',#137,.T.);
#182=FACE_BOUND('',#138,.T.);
#183=FACE_BOUND('',#139,.T.);
#184=FACE_BOUND('',#140,.T.);
#185=FACE_BOUND('',#141,.T.);
#186=FACE_BOUND('',#142,.T.);
#187=FACE_BOUND('',#143,.T.);
#188=FACE_BOUND('',#144,.T.);
#189=FACE_BOUND('',#145,.T.);
#190=FACE_BOUND('',#146,.T.);
#191=FACE_BOUND('',#147,.T.);
#192=FACE_BOUND('',#148,.T.);
#193=FACE_BOUND('',#149,.T.);
#194=FACE_BOUND('',#150,.T.);
#195=FACE_BOUND('',#151,.T.);
#196=FACE_BOUND('',#152,.T.);
#197=FACE_BOUND('',#153,.T.);
#198=FACE_BOUND('',#154,.T.);
#199=FACE_BOUND('',#155,.T.);
#200=FACE_BOUND('',#156,.T.);
#201=FACE_BOUND('',#157,.T.);
#202=FACE_BOUND('',#158,.T.);
#203=FACE_BOUND('',#159,.T.);
#204=FACE_BOUND('',#160,.T.);
#205=FACE_BOUND('',#161,.T.);
#206=FACE_BOUND('',#162,.T.);
#207=FACE_BOUND('',#163,.T.);
#208=FACE_BOUND('',#164,.T.);
#209=FACE_BOUND('',#165,.T.);
#210=FACE_BOUND('',#166,.T.);
#211=FACE_BOUND('',#167,.T.);
#212=FACE_BOUND('',#168,.T.);
#213=FACE_BOUND('',#169,.T.);
#214=FACE_BOUND('',#170,.T.);
#215=CYLINDRICAL_SURFACE('',#255,0.0045);
#216=CYLINDRICAL_SURFACE('',#258,0.0045);
#217=CYLINDRICAL_SURFACE('',#261,0.0045);
#218=CYLINDRICAL_SURFACE('',#264,0.0045);
#219=CYLINDRICAL_SURFACE('',#267,0.0745);
#220=CYLINDRICAL_SURFACE('',#278,0.0035);
#221=CYLINDRICAL_SURFACE('',#280,0.0035);
#222=CYLINDRICAL_SURFACE('',#282,0.0035);
#223=CYLINDRICAL_SURFACE('',#284,0.00525);
#224=CYLINDRICAL_SURFACE('',#287,0.00525);
#225=CYLINDRICAL_SURFACE('',#290,0.00525);
#226=ADVANCED_FACE('',(#171,#172),#215,.F.);
#227=ADVANCED_FACE('',(#173,#174),#216,.F.);
#228=ADVANCED_FACE('',(#175,#176),#217,.F.);
#229=ADVANCED_FACE('',(#177,#178),#218,.F.);
#230=ADVANCED_FACE('',(#179,#180),#219,.T.);
#231=ADVANCED_FACE('',(#181,#182,#183,#184,#185,#186,#187,#188),#12,.T.);
#232=ADVANCED_FACE('',(#189,#190,#191,#192,#193,#194,#195,#196),#13,.F.);
#233=ADVANCED_FACE('',(#197,#198),#220,.F.);
#234=ADVANCED_FACE('',(#199,#200),#221,.F.);
#235=ADVANCED_FACE('',(#201,#202),#222,.F.);
#236=ADVANCED_FACE('',(#203,#204),#223,.F.);
#237=ADVANCED_FACE('',(#205,#206),#14,.F.);
#238=ADVANCED_FACE('',(#207,#208),#224,.F.);
#239=ADVANCED_FACE('',(#209,#210),#15,.F.);
#240=ADVANCED_FACE('',(#211,#212),#225,.F.);
#241=ADVANCED_FACE('',(#213,#214),#16,.F.);
#242=CLOSED_SHELL('',(#226,#227,#228,#229,#230,#231,#232,#233,#234,#235,
#236,#237,#238,#239,#240,#241));
#243=STYLED_ITEM('',(#244),#251);
#244=PRESENTATION_STYLE_ASSIGNMENT((#245));
#245=SURFACE_STYLE_USAGE(.BOTH.,#246);
#246=SURFACE_SIDE_STYLE('',(#247));
#247=SURFACE_STYLE_FILL_AREA(#248);
#248=FILL_AREA_STYLE('',(#249));
#249=FILL_AREA_STYLE_COLOUR('',#250);
#250=COLOUR_RGB('',0.647058823529412,0.647058823529412,0.647058823529412);
#251=MANIFOLD_SOLID_BREP('Podlozka_robot',#242);
#252=SHAPE_DEFINITION_REPRESENTATION(#438,#253);
#253=SHAPE_REPRESENTATION('Podlozka_robot',(#254),#433);
#254=AXIS2_PLACEMENT_3D('',#371,#293,#294);
#255=AXIS2_PLACEMENT_3D('',#372,#295,#296);
#256=AXIS2_PLACEMENT_3D('',#373,#297,#298);
#257=AXIS2_PLACEMENT_3D('',#375,#299,#300);
#258=AXIS2_PLACEMENT_3D('',#377,#301,#302);
#259=AXIS2_PLACEMENT_3D('',#378,#303,#304);
#260=AXIS2_PLACEMENT_3D('',#380,#305,#306);
#261=AXIS2_PLACEMENT_3D('',#382,#307,#308);
#262=AXIS2_PLACEMENT_3D('',#383,#309,#310);
#263=AXIS2_PLACEMENT_3D('',#385,#311,#312);
#264=AXIS2_PLACEMENT_3D('',#387,#313,#314);
#265=AXIS2_PLACEMENT_3D('',#388,#315,#316);
#266=AXIS2_PLACEMENT_3D('',#390,#317,#318);
#267=AXIS2_PLACEMENT_3D('',#392,#319,#320);
#268=AXIS2_PLACEMENT_3D('',#393,#321,#322);
#269=AXIS2_PLACEMENT_3D('',#395,#323,#324);
#270=AXIS2_PLACEMENT_3D('',#397,#325,#326);
#271=AXIS2_PLACEMENT_3D('',#398,#327,#328);
#272=AXIS2_PLACEMENT_3D('',#400,#329,#330);
#273=AXIS2_PLACEMENT_3D('',#402,#331,#332);
#274=AXIS2_PLACEMENT_3D('',#404,#333,#334);
#275=AXIS2_PLACEMENT_3D('',#405,#335,#336);
#276=AXIS2_PLACEMENT_3D('',#407,#337,#338);
#277=AXIS2_PLACEMENT_3D('',#409,#339,#340);
#278=AXIS2_PLACEMENT_3D('',#411,#341,#342);
#279=AXIS2_PLACEMENT_3D('',#412,#343,#344);
#280=AXIS2_PLACEMENT_3D('',#414,#345,#346);
#281=AXIS2_PLACEMENT_3D('',#415,#347,#348);
#282=AXIS2_PLACEMENT_3D('',#417,#349,#350);
#283=AXIS2_PLACEMENT_3D('',#418,#351,#352);
#284=AXIS2_PLACEMENT_3D('',#420,#353,#354);
#285=AXIS2_PLACEMENT_3D('',#421,#355,#356);
#286=AXIS2_PLACEMENT_3D('',#423,#357,#358);
#287=AXIS2_PLACEMENT_3D('',#424,#359,#360);
#288=AXIS2_PLACEMENT_3D('',#425,#361,#362);
#289=AXIS2_PLACEMENT_3D('',#427,#363,#364);
#290=AXIS2_PLACEMENT_3D('',#428,#365,#366);
#291=AXIS2_PLACEMENT_3D('',#429,#367,#368);
#292=AXIS2_PLACEMENT_3D('',#431,#369,#370);
#293=DIRECTION('',(0.,0.,1.));
#294=DIRECTION('',(1.,0.,0.));
#295=DIRECTION('',(0.,0.,-1.));
#296=DIRECTION('',(-1.,0.,0.));
#297=DIRECTION('',(0.,0.,1.));
#298=DIRECTION('',(1.,0.,0.));
#299=DIRECTION('',(0.,0.,1.));
#300=DIRECTION('',(1.,0.,0.));
#301=DIRECTION('',(0.,0.,-1.));
#302=DIRECTION('',(-1.,0.,0.));
#303=DIRECTION('',(0.,0.,1.));
#304=DIRECTION('',(1.,0.,0.));
#305=DIRECTION('',(0.,0.,1.));
#306=DIRECTION('',(1.,0.,0.));
#307=DIRECTION('',(0.,0.,-1.));
#308=DIRECTION('',(-1.,0.,0.));
#309=DIRECTION('',(0.,0.,1.));
#310=DIRECTION('',(1.,0.,0.));
#311=DIRECTION('',(0.,0.,1.));
#312=DIRECTION('',(1.,0.,0.));
#313=DIRECTION('',(0.,0.,-1.));
#314=DIRECTION('',(-1.,0.,0.));
#315=DIRECTION('',(0.,0.,1.));
#316=DIRECTION('',(1.,0.,0.));
#317=DIRECTION('',(0.,0.,1.));
#318=DIRECTION('',(1.,0.,0.));
#319=DIRECTION('',(0.,0.,-1.));
#320=DIRECTION('',(-1.,0.,0.));
#321=DIRECTION('',(0.,0.,1.));
#322=DIRECTION('',(1.,0.,0.));
#323=DIRECTION('',(0.,0.,1.));
#324=DIRECTION('',(1.,0.,0.));
#325=DIRECTION('',(0.,0.,1.));
#326=DIRECTION('',(1.,0.,0.));
#327=DIRECTION('',(0.,0.,1.));
#328=DIRECTION('',(1.,0.,0.));
#329=DIRECTION('',(0.,0.,1.));
#330=DIRECTION('',(1.,0.,0.));
#331=DIRECTION('',(0.,0.,1.));
#332=DIRECTION('',(1.,0.,0.));
#333=DIRECTION('',(0.,0.,1.));
#334=DIRECTION('',(1.,0.,0.));
#335=DIRECTION('',(0.,0.,1.));
#336=DIRECTION('',(1.,0.,0.));
#337=DIRECTION('',(0.,0.,1.));
#338=DIRECTION('',(1.,0.,0.));
#339=DIRECTION('',(0.,0.,1.));
#340=DIRECTION('',(1.,0.,0.));
#341=DIRECTION('',(0.,0.,-1.));
#342=DIRECTION('',(-1.,0.,0.));
#343=DIRECTION('',(0.,0.,1.));
#344=DIRECTION('',(1.,0.,0.));
#345=DIRECTION('',(0.,0.,-1.));
#346=DIRECTION('',(-1.,0.,0.));
#347=DIRECTION('',(0.,0.,1.));
#348=DIRECTION('',(1.,0.,0.));
#349=DIRECTION('',(0.,0.,-1.));
#350=DIRECTION('',(-1.,0.,0.));
#351=DIRECTION('',(0.,0.,1.));
#352=DIRECTION('',(1.,0.,0.));
#353=DIRECTION('',(0.,0.,-1.));
#354=DIRECTION('',(-1.,0.,0.));
#355=DIRECTION('',(0.,0.,1.));
#356=DIRECTION('',(1.,0.,0.));
#357=DIRECTION('',(0.,0.,1.));
#358=DIRECTION('',(1.,0.,0.));
#359=DIRECTION('',(0.,0.,-1.));
#360=DIRECTION('',(-1.,0.,0.));
#361=DIRECTION('',(0.,0.,1.));
#362=DIRECTION('',(1.,0.,0.));
#363=DIRECTION('',(0.,0.,1.));
#364=DIRECTION('',(1.,0.,0.));
#365=DIRECTION('',(0.,0.,-1.));
#366=DIRECTION('',(-1.,0.,0.));
#367=DIRECTION('',(0.,0.,1.));
#368=DIRECTION('',(1.,0.,0.));
#369=DIRECTION('',(0.,0.,1.));
#370=DIRECTION('',(1.,0.,0.));
#371=CARTESIAN_POINT('',(0.,0.,0.));
#372=CARTESIAN_POINT('',(0.307815260887146,0.379672835287253,0.022));
#373=CARTESIAN_POINT('',(0.307815260887146,0.379672835287253,0.022));
#374=CARTESIAN_POINT('',(0.312315260887146,0.379672835287253,0.022));
#375=CARTESIAN_POINT('',(0.307815260887146,0.379672835287253,0.));
#376=CARTESIAN_POINT('',(0.312315260887146,0.379672835287253,0.));
#377=CARTESIAN_POINT('',(0.373815260887146,0.313672835287253,0.022));
#378=CARTESIAN_POINT('',(0.373815260887146,0.313672835287253,0.022));
#379=CARTESIAN_POINT('',(0.378315260887146,0.313672835287253,0.022));
#380=CARTESIAN_POINT('',(0.373815260887146,0.313672835287253,0.));
#381=CARTESIAN_POINT('',(0.378315260887146,0.313672835287253,0.));
#382=CARTESIAN_POINT('',(0.241815260887146,0.313672835287253,0.022));
#383=CARTESIAN_POINT('',(0.241815260887146,0.313672835287253,0.022));
#384=CARTESIAN_POINT('',(0.246315260887146,0.313672835287253,0.022));
#385=CARTESIAN_POINT('',(0.241815260887146,0.313672835287253,0.));
#386=CARTESIAN_POINT('',(0.246315260887146,0.313672835287253,0.));
#387=CARTESIAN_POINT('',(0.307815260887146,0.247672835287254,0.022));
#388=CARTESIAN_POINT('',(0.307815260887146,0.247672835287254,0.022));
#389=CARTESIAN_POINT('',(0.312315260887146,0.247672835287254,0.022));
#390=CARTESIAN_POINT('',(0.307815260887146,0.247672835287254,0.));
#391=CARTESIAN_POINT('',(0.312315260887146,0.247672835287254,0.));
#392=CARTESIAN_POINT('',(0.307815260887146,0.313672835287253,0.022));
#393=CARTESIAN_POINT('',(0.307815260887146,0.313672835287253,0.022));
#394=CARTESIAN_POINT('',(0.382315260887146,0.313672835287253,0.022));
#395=CARTESIAN_POINT('',(0.307815260887146,0.313672835287253,0.));
#396=CARTESIAN_POINT('',(0.382315260887146,0.313672835287253,0.));
#397=CARTESIAN_POINT('',(0.307815260887146,0.313672835287253,0.022));
#398=CARTESIAN_POINT('',(0.307815260887146,0.341511634493949,0.022));
#399=CARTESIAN_POINT('',(0.311315260887146,0.341511634493949,0.022));
#400=CARTESIAN_POINT('',(0.340815260887146,0.280672835287254,0.022));
#401=CARTESIAN_POINT('',(0.344315260887146,0.280672835287254,0.022));
#402=CARTESIAN_POINT('',(0.274815260887146,0.280672835287254,0.022));
#403=CARTESIAN_POINT('',(0.278315260887146,0.280672835287254,0.022));
#404=CARTESIAN_POINT('',(0.307815260887146,0.313672835287253,0.));
#405=CARTESIAN_POINT('',(0.307815260887146,0.341511634493949,0.));
#406=CARTESIAN_POINT('',(0.313065260887146,0.341511634493949,0.));
#407=CARTESIAN_POINT('',(0.274815260887146,0.280672835287254,0.));
#408=CARTESIAN_POINT('',(0.280065260887146,0.280672835287254,0.));
#409=CARTESIAN_POINT('',(0.340815260887146,0.280672835287254,0.));
#410=CARTESIAN_POINT('',(0.346065260887146,0.280672835287254,0.));
#411=CARTESIAN_POINT('',(0.274815260887146,0.280672835287254,0.1242));
#412=CARTESIAN_POINT('',(0.274815260887146,0.280672835287254,0.007));
#413=CARTESIAN_POINT('',(0.278315260887146,0.280672835287254,0.007));
#414=CARTESIAN_POINT('',(0.340815260887146,0.280672835287254,0.1242));
#415=CARTESIAN_POINT('',(0.340815260887146,0.280672835287254,0.007));
#416=CARTESIAN_POINT('',(0.344315260887146,0.280672835287254,0.007));
#417=CARTESIAN_POINT('',(0.307815260887146,0.341511634493949,0.1242));
#418=CARTESIAN_POINT('',(0.307815260887146,0.341511634493949,0.007));
#419=CARTESIAN_POINT('',(0.311315260887146,0.341511634493949,0.007));
#420=CARTESIAN_POINT('',(0.307815260887146,0.341511634493949,0.007));
#421=CARTESIAN_POINT('',(0.307815260887146,0.341511634493949,0.007));
#422=CARTESIAN_POINT('',(0.313065260887146,0.341511634493949,0.007));
#423=CARTESIAN_POINT('',(0.307815260887146,0.313672835287253,0.007));
#424=CARTESIAN_POINT('',(0.340815260887146,0.280672835287254,0.007));
#425=CARTESIAN_POINT('',(0.340815260887146,0.280672835287254,0.007));
#426=CARTESIAN_POINT('',(0.346065260887146,0.280672835287254,0.007));
#427=CARTESIAN_POINT('',(0.307815260887146,0.313672835287253,0.007));
#428=CARTESIAN_POINT('',(0.274815260887146,0.280672835287254,0.007));
#429=CARTESIAN_POINT('',(0.274815260887146,0.280672835287254,0.007));
#430=CARTESIAN_POINT('',(0.280065260887146,0.280672835287254,0.007));
#431=CARTESIAN_POINT('',(0.307815260887146,0.313672835287253,0.007));
#432=MECHANICAL_DESIGN_GEOMETRIC_PRESENTATION_REPRESENTATION('',(#243),
#433);
#433=(
GEOMETRIC_REPRESENTATION_CONTEXT(3)
GLOBAL_UNCERTAINTY_ASSIGNED_CONTEXT((#434))
GLOBAL_UNIT_ASSIGNED_CONTEXT((#437,#436,#435))
REPRESENTATION_CONTEXT('Podlozka_robot','TOP_LEVEL_ASSEMBLY_PART')
);
#434=UNCERTAINTY_MEASURE_WITH_UNIT(LENGTH_MEASURE(1.E-8),#437,
'DISTANCE_ACCURACY_VALUE','Maximum Tolerance applied to model');
#435=(
NAMED_UNIT(*)
SI_UNIT($,.STERADIAN.)
SOLID_ANGLE_UNIT()
);
#436=(
NAMED_UNIT(*)
PLANE_ANGLE_UNIT()
SI_UNIT($,.RADIAN.)
);
#437=(
LENGTH_UNIT()
NAMED_UNIT(*)
SI_UNIT($,.METRE.)
);
#438=PRODUCT_DEFINITION_SHAPE('','',#439);
#439=PRODUCT_DEFINITION('','',#441,#440);
#440=PRODUCT_DEFINITION_CONTEXT('',#447,'design');
#441=PRODUCT_DEFINITION_FORMATION_WITH_SPECIFIED_SOURCE('','',#443,
 .NOT_KNOWN.);
#442=PRODUCT_RELATED_PRODUCT_CATEGORY('','',(#443));
#443=PRODUCT('Podlozka_robot','Podlozka_robot','Podlozka_robot',(#445));
#444=PRODUCT_CATEGORY('','');
#445=PRODUCT_CONTEXT('',#447,'mechanical');
#446=APPLICATION_PROTOCOL_DEFINITION('international standard',
'ap242_managed_model_based_3d_engineering',2020,#447);
#447=APPLICATION_CONTEXT('managed model based 3d engineering');
ENDSEC;
END-ISO-10303-21;
