ISO-10303-21;
HEADER;
/* Generated by software containing ST-Developer
 * from STEP Tools, Inc. (www.steptools.com) 
 */
/* OPTION: using custom renumber hook */

FILE_DESCRIPTION(
/* description */ ('STEP AP242 Edition 2',
'CAx-IF Rec.Pracs.---Representation and Presentation of Product Manufa
cturing Information (PMI)---4.0---2014-10-13',
'CAx-IF Rec.Pracs.---3D Tessellated Geometry---0.4---2014-09-14','2;1',
'CAx-IF Rec.Pracs.---User Defined Attributes---1.5---2016-08-15'),
/* implementation_level */ '2;1');

FILE_NAME(
/* name */ 'Plata_100x40_DXF - Plate_1x0.4m',
/* time_stamp */ '2026-08-26T12:13:05Z',
/* author */ (''),
/* organization */ (''),
/* preprocessor_version */ 'ST-DEVELOPER v20',
/* originating_system */ 'ONSHAPE BY PTC INC, 1.219',
/* authorisation */ '  ');

FILE_SCHEMA (('AP242_MANAGED_MODEL_BASED_3D_ENGINEERING_MIM_LF { 1 0 10303 442 3 1 4 }'));
ENDSEC;

DATA;
#10=SHAPE_REPRESENTATION_RELATIONSHIP('','',#859,#11);
#11=ADVANCED_BREP_SHAPE_REPRESENTATION('',(#857),#1473);
#12=LINE('',#1353,#24);
#13=LINE('',#1356,#25);
#14=LINE('',#1358,#26);
#15=LINE('',#1360,#27);
#16=LINE('',#1372,#28);
#17=LINE('',#1375,#29);
#18=LINE('',#1376,#30);
#19=LINE('',#1378,#31);
#20=LINE('',#1380,#32);
#21=LINE('',#1382,#33);
#22=LINE('',#1384,#34);
#23=LINE('',#1386,#35);
#24=VECTOR('',#1101,1.);
#25=VECTOR('',#1102,1.);
#26=VECTOR('',#1103,1.);
#27=VECTOR('',#1104,1.);
#28=VECTOR('',#1117,1.);
#29=VECTOR('',#1118,1.);
#30=VECTOR('',#1119,1.);
#31=VECTOR('',#1122,1.);
#32=VECTOR('',#1123,1.);
#33=VECTOR('',#1126,1.);
#34=VECTOR('',#1127,1.);
#35=VECTOR('',#1130,1.);
#36=PLANE('',#897);
#37=PLANE('',#922);
#38=PLANE('',#923);
#39=PLANE('',#924);
#40=PLANE('',#925);
#41=PLANE('',#950);
#42=PLANE('',#953);
#43=PLANE('',#956);
#44=PLANE('',#959);
#45=PLANE('',#962);
#46=PLANE('',#965);
#47=PLANE('',#968);
#48=PLANE('',#971);
#49=PLANE('',#974);
#50=PLANE('',#977);
#51=PLANE('',#980);
#52=PLANE('',#983);
#53=PLANE('',#986);
#54=ORIENTED_EDGE('',*,*,#222,.T.);
#55=ORIENTED_EDGE('',*,*,#223,.F.);
#56=ORIENTED_EDGE('',*,*,#224,.T.);
#57=ORIENTED_EDGE('',*,*,#225,.F.);
#58=ORIENTED_EDGE('',*,*,#226,.T.);
#59=ORIENTED_EDGE('',*,*,#227,.F.);
#60=ORIENTED_EDGE('',*,*,#228,.T.);
#61=ORIENTED_EDGE('',*,*,#229,.F.);
#62=ORIENTED_EDGE('',*,*,#230,.T.);
#63=ORIENTED_EDGE('',*,*,#231,.F.);
#64=ORIENTED_EDGE('',*,*,#232,.F.);
#65=ORIENTED_EDGE('',*,*,#233,.T.);
#66=ORIENTED_EDGE('',*,*,#234,.F.);
#67=ORIENTED_EDGE('',*,*,#235,.T.);
#68=ORIENTED_EDGE('',*,*,#236,.F.);
#69=ORIENTED_EDGE('',*,*,#237,.T.);
#70=ORIENTED_EDGE('',*,*,#238,.F.);
#71=ORIENTED_EDGE('',*,*,#239,.T.);
#72=ORIENTED_EDGE('',*,*,#240,.F.);
#73=ORIENTED_EDGE('',*,*,#241,.T.);
#74=ORIENTED_EDGE('',*,*,#242,.F.);
#75=ORIENTED_EDGE('',*,*,#243,.T.);
#76=ORIENTED_EDGE('',*,*,#244,.T.);
#77=ORIENTED_EDGE('',*,*,#245,.F.);
#78=ORIENTED_EDGE('',*,*,#246,.F.);
#79=ORIENTED_EDGE('',*,*,#247,.F.);
#80=ORIENTED_EDGE('',*,*,#248,.F.);
#81=ORIENTED_EDGE('',*,*,#249,.T.);
#82=ORIENTED_EDGE('',*,*,#250,.T.);
#83=ORIENTED_EDGE('',*,*,#251,.T.);
#84=ORIENTED_EDGE('',*,*,#252,.T.);
#85=ORIENTED_EDGE('',*,*,#253,.F.);
#86=ORIENTED_EDGE('',*,*,#254,.F.);
#87=ORIENTED_EDGE('',*,*,#255,.F.);
#88=ORIENTED_EDGE('',*,*,#256,.F.);
#89=ORIENTED_EDGE('',*,*,#257,.F.);
#90=ORIENTED_EDGE('',*,*,#258,.F.);
#91=ORIENTED_EDGE('',*,*,#259,.F.);
#92=ORIENTED_EDGE('',*,*,#260,.F.);
#93=ORIENTED_EDGE('',*,*,#261,.F.);
#94=ORIENTED_EDGE('',*,*,#262,.F.);
#95=ORIENTED_EDGE('',*,*,#263,.F.);
#96=ORIENTED_EDGE('',*,*,#264,.F.);
#97=ORIENTED_EDGE('',*,*,#265,.T.);
#98=ORIENTED_EDGE('',*,*,#266,.T.);
#99=ORIENTED_EDGE('',*,*,#267,.F.);
#100=ORIENTED_EDGE('',*,*,#268,.F.);
#101=ORIENTED_EDGE('',*,*,#269,.F.);
#102=ORIENTED_EDGE('',*,*,#270,.T.);
#103=ORIENTED_EDGE('',*,*,#271,.T.);
#104=ORIENTED_EDGE('',*,*,#272,.F.);
#105=ORIENTED_EDGE('',*,*,#273,.F.);
#106=ORIENTED_EDGE('',*,*,#274,.T.);
#107=ORIENTED_EDGE('',*,*,#275,.F.);
#108=ORIENTED_EDGE('',*,*,#265,.F.);
#109=ORIENTED_EDGE('',*,*,#276,.T.);
#110=ORIENTED_EDGE('',*,*,#277,.T.);
#111=ORIENTED_EDGE('',*,*,#278,.F.);
#112=ORIENTED_EDGE('',*,*,#266,.F.);
#113=ORIENTED_EDGE('',*,*,#275,.T.);
#114=ORIENTED_EDGE('',*,*,#279,.F.);
#115=ORIENTED_EDGE('',*,*,#280,.F.);
#116=ORIENTED_EDGE('',*,*,#267,.T.);
#117=ORIENTED_EDGE('',*,*,#278,.T.);
#118=ORIENTED_EDGE('',*,*,#281,.F.);
#119=ORIENTED_EDGE('',*,*,#276,.F.);
#120=ORIENTED_EDGE('',*,*,#268,.T.);
#121=ORIENTED_EDGE('',*,*,#280,.T.);
#122=ORIENTED_EDGE('',*,*,#264,.T.);
#123=ORIENTED_EDGE('',*,*,#282,.F.);
#124=ORIENTED_EDGE('',*,*,#263,.T.);
#125=ORIENTED_EDGE('',*,*,#283,.F.);
#126=ORIENTED_EDGE('',*,*,#262,.T.);
#127=ORIENTED_EDGE('',*,*,#284,.F.);
#128=ORIENTED_EDGE('',*,*,#261,.T.);
#129=ORIENTED_EDGE('',*,*,#285,.F.);
#130=ORIENTED_EDGE('',*,*,#260,.T.);
#131=ORIENTED_EDGE('',*,*,#286,.F.);
#132=ORIENTED_EDGE('',*,*,#259,.T.);
#133=ORIENTED_EDGE('',*,*,#287,.F.);
#134=ORIENTED_EDGE('',*,*,#258,.T.);
#135=ORIENTED_EDGE('',*,*,#288,.F.);
#136=ORIENTED_EDGE('',*,*,#257,.T.);
#137=ORIENTED_EDGE('',*,*,#289,.F.);
#138=ORIENTED_EDGE('',*,*,#256,.T.);
#139=ORIENTED_EDGE('',*,*,#290,.F.);
#140=ORIENTED_EDGE('',*,*,#255,.T.);
#141=ORIENTED_EDGE('',*,*,#291,.F.);
#142=ORIENTED_EDGE('',*,*,#254,.T.);
#143=ORIENTED_EDGE('',*,*,#292,.F.);
#144=ORIENTED_EDGE('',*,*,#253,.T.);
#145=ORIENTED_EDGE('',*,*,#293,.F.);
#146=ORIENTED_EDGE('',*,*,#242,.T.);
#147=ORIENTED_EDGE('',*,*,#293,.T.);
#148=ORIENTED_EDGE('',*,*,#292,.T.);
#149=ORIENTED_EDGE('',*,*,#291,.T.);
#150=ORIENTED_EDGE('',*,*,#290,.T.);
#151=ORIENTED_EDGE('',*,*,#289,.T.);
#152=ORIENTED_EDGE('',*,*,#288,.T.);
#153=ORIENTED_EDGE('',*,*,#287,.T.);
#154=ORIENTED_EDGE('',*,*,#286,.T.);
#155=ORIENTED_EDGE('',*,*,#285,.T.);
#156=ORIENTED_EDGE('',*,*,#284,.T.);
#157=ORIENTED_EDGE('',*,*,#283,.T.);
#158=ORIENTED_EDGE('',*,*,#282,.T.);
#159=ORIENTED_EDGE('',*,*,#274,.F.);
#160=ORIENTED_EDGE('',*,*,#281,.T.);
#161=ORIENTED_EDGE('',*,*,#279,.T.);
#162=ORIENTED_EDGE('',*,*,#277,.F.);
#163=ORIENTED_EDGE('',*,*,#240,.T.);
#164=ORIENTED_EDGE('',*,*,#238,.T.);
#165=ORIENTED_EDGE('',*,*,#236,.T.);
#166=ORIENTED_EDGE('',*,*,#234,.T.);
#167=ORIENTED_EDGE('',*,*,#232,.T.);
#168=ORIENTED_EDGE('',*,*,#230,.F.);
#169=ORIENTED_EDGE('',*,*,#228,.F.);
#170=ORIENTED_EDGE('',*,*,#226,.F.);
#171=ORIENTED_EDGE('',*,*,#224,.F.);
#172=ORIENTED_EDGE('',*,*,#222,.F.);
#173=ORIENTED_EDGE('',*,*,#244,.F.);
#174=ORIENTED_EDGE('',*,*,#294,.T.);
#175=ORIENTED_EDGE('',*,*,#252,.F.);
#176=ORIENTED_EDGE('',*,*,#294,.F.);
#177=ORIENTED_EDGE('',*,*,#227,.T.);
#178=ORIENTED_EDGE('',*,*,#295,.T.);
#179=ORIENTED_EDGE('',*,*,#251,.F.);
#180=ORIENTED_EDGE('',*,*,#295,.F.);
#181=ORIENTED_EDGE('',*,*,#229,.T.);
#182=ORIENTED_EDGE('',*,*,#296,.T.);
#183=ORIENTED_EDGE('',*,*,#250,.F.);
#184=ORIENTED_EDGE('',*,*,#296,.F.);
#185=ORIENTED_EDGE('',*,*,#231,.T.);
#186=ORIENTED_EDGE('',*,*,#297,.T.);
#187=ORIENTED_EDGE('',*,*,#249,.F.);
#188=ORIENTED_EDGE('',*,*,#297,.F.);
#189=ORIENTED_EDGE('',*,*,#245,.T.);
#190=ORIENTED_EDGE('',*,*,#298,.F.);
#191=ORIENTED_EDGE('',*,*,#248,.T.);
#192=ORIENTED_EDGE('',*,*,#241,.F.);
#193=ORIENTED_EDGE('',*,*,#298,.T.);
#194=ORIENTED_EDGE('',*,*,#299,.F.);
#195=ORIENTED_EDGE('',*,*,#269,.T.);
#196=ORIENTED_EDGE('',*,*,#239,.F.);
#197=ORIENTED_EDGE('',*,*,#299,.T.);
#198=ORIENTED_EDGE('',*,*,#300,.F.);
#199=ORIENTED_EDGE('',*,*,#247,.T.);
#200=ORIENTED_EDGE('',*,*,#233,.F.);
#201=ORIENTED_EDGE('',*,*,#300,.T.);
#202=ORIENTED_EDGE('',*,*,#301,.T.);
#203=ORIENTED_EDGE('',*,*,#270,.F.);
#204=ORIENTED_EDGE('',*,*,#301,.F.);
#205=ORIENTED_EDGE('',*,*,#223,.T.);
#206=ORIENTED_EDGE('',*,*,#302,.T.);
#207=ORIENTED_EDGE('',*,*,#271,.F.);
#208=ORIENTED_EDGE('',*,*,#302,.F.);
#209=ORIENTED_EDGE('',*,*,#225,.T.);
#210=ORIENTED_EDGE('',*,*,#303,.F.);
#211=ORIENTED_EDGE('',*,*,#272,.T.);
#212=ORIENTED_EDGE('',*,*,#243,.F.);
#213=ORIENTED_EDGE('',*,*,#303,.T.);
#214=ORIENTED_EDGE('',*,*,#304,.F.);
#215=ORIENTED_EDGE('',*,*,#246,.T.);
#216=ORIENTED_EDGE('',*,*,#235,.F.);
#217=ORIENTED_EDGE('',*,*,#304,.T.);
#218=ORIENTED_EDGE('',*,*,#305,.F.);
#219=ORIENTED_EDGE('',*,*,#273,.T.);
#220=ORIENTED_EDGE('',*,*,#237,.F.);
#221=ORIENTED_EDGE('',*,*,#305,.T.);
#222=EDGE_CURVE('',#306,#306,#386,.T.);
#223=EDGE_CURVE('',#307,#307,#387,.T.);
#224=EDGE_CURVE('',#308,#308,#388,.T.);
#225=EDGE_CURVE('',#309,#309,#389,.T.);
#226=EDGE_CURVE('',#310,#310,#390,.T.);
#227=EDGE_CURVE('',#311,#311,#391,.T.);
#228=EDGE_CURVE('',#312,#312,#392,.T.);
#229=EDGE_CURVE('',#313,#313,#393,.T.);
#230=EDGE_CURVE('',#314,#314,#394,.T.);
#231=EDGE_CURVE('',#315,#315,#395,.T.);
#232=EDGE_CURVE('',#316,#316,#396,.T.);
#233=EDGE_CURVE('',#317,#317,#397,.T.);
#234=EDGE_CURVE('',#318,#318,#398,.T.);
#235=EDGE_CURVE('',#319,#319,#399,.T.);
#236=EDGE_CURVE('',#320,#320,#400,.T.);
#237=EDGE_CURVE('',#321,#321,#401,.T.);
#238=EDGE_CURVE('',#322,#322,#402,.T.);
#239=EDGE_CURVE('',#323,#323,#403,.T.);
#240=EDGE_CURVE('',#324,#324,#404,.T.);
#241=EDGE_CURVE('',#325,#325,#405,.T.);
#242=EDGE_CURVE('',#326,#326,#406,.T.);
#243=EDGE_CURVE('',#327,#327,#407,.T.);
#244=EDGE_CURVE('',#328,#328,#408,.T.);
#245=EDGE_CURVE('',#329,#329,#409,.T.);
#246=EDGE_CURVE('',#330,#330,#410,.T.);
#247=EDGE_CURVE('',#331,#331,#411,.T.);
#248=EDGE_CURVE('',#332,#332,#412,.T.);
#249=EDGE_CURVE('',#333,#333,#413,.T.);
#250=EDGE_CURVE('',#334,#334,#414,.T.);
#251=EDGE_CURVE('',#335,#335,#415,.T.);
#252=EDGE_CURVE('',#336,#336,#416,.T.);
#253=EDGE_CURVE('',#337,#337,#417,.T.);
#254=EDGE_CURVE('',#338,#338,#418,.T.);
#255=EDGE_CURVE('',#339,#339,#419,.T.);
#256=EDGE_CURVE('',#340,#340,#420,.T.);
#257=EDGE_CURVE('',#341,#341,#421,.T.);
#258=EDGE_CURVE('',#342,#342,#422,.T.);
#259=EDGE_CURVE('',#343,#343,#423,.T.);
#260=EDGE_CURVE('',#344,#344,#424,.T.);
#261=EDGE_CURVE('',#345,#345,#425,.T.);
#262=EDGE_CURVE('',#346,#346,#426,.T.);
#263=EDGE_CURVE('',#347,#347,#427,.T.);
#264=EDGE_CURVE('',#348,#348,#428,.T.);
#265=EDGE_CURVE('',#349,#350,#12,.T.);
#266=EDGE_CURVE('',#350,#351,#13,.T.);
#267=EDGE_CURVE('',#352,#351,#14,.T.);
#268=EDGE_CURVE('',#349,#352,#15,.T.);
#269=EDGE_CURVE('',#353,#353,#429,.T.);
#270=EDGE_CURVE('',#354,#354,#430,.T.);
#271=EDGE_CURVE('',#355,#355,#431,.T.);
#272=EDGE_CURVE('',#356,#356,#432,.T.);
#273=EDGE_CURVE('',#357,#357,#433,.T.);
#274=EDGE_CURVE('',#358,#359,#16,.T.);
#275=EDGE_CURVE('',#350,#359,#17,.T.);
#276=EDGE_CURVE('',#349,#358,#18,.T.);
#277=EDGE_CURVE('',#359,#360,#19,.T.);
#278=EDGE_CURVE('',#351,#360,#20,.T.);
#279=EDGE_CURVE('',#361,#360,#21,.T.);
#280=EDGE_CURVE('',#352,#361,#22,.T.);
#281=EDGE_CURVE('',#358,#361,#23,.T.);
#282=EDGE_CURVE('',#362,#362,#434,.T.);
#283=EDGE_CURVE('',#363,#363,#435,.T.);
#284=EDGE_CURVE('',#364,#364,#436,.T.);
#285=EDGE_CURVE('',#365,#365,#437,.T.);
#286=EDGE_CURVE('',#366,#366,#438,.T.);
#287=EDGE_CURVE('',#367,#367,#439,.T.);
#288=EDGE_CURVE('',#368,#368,#440,.T.);
#289=EDGE_CURVE('',#369,#369,#441,.T.);
#290=EDGE_CURVE('',#370,#370,#442,.T.);
#291=EDGE_CURVE('',#371,#371,#443,.T.);
#292=EDGE_CURVE('',#372,#372,#444,.T.);
#293=EDGE_CURVE('',#373,#373,#445,.T.);
#294=EDGE_CURVE('',#374,#374,#446,.T.);
#295=EDGE_CURVE('',#375,#375,#447,.T.);
#296=EDGE_CURVE('',#376,#376,#448,.T.);
#297=EDGE_CURVE('',#377,#377,#449,.T.);
#298=EDGE_CURVE('',#378,#378,#450,.T.);
#299=EDGE_CURVE('',#379,#379,#451,.T.);
#300=EDGE_CURVE('',#380,#380,#452,.T.);
#301=EDGE_CURVE('',#381,#381,#453,.T.);
#302=EDGE_CURVE('',#382,#382,#454,.T.);
#303=EDGE_CURVE('',#383,#383,#455,.T.);
#304=EDGE_CURVE('',#384,#384,#456,.T.);
#305=EDGE_CURVE('',#385,#385,#457,.T.);
#306=VERTEX_POINT('',#1256);
#307=VERTEX_POINT('',#1258);
#308=VERTEX_POINT('',#1261);
#309=VERTEX_POINT('',#1263);
#310=VERTEX_POINT('',#1266);
#311=VERTEX_POINT('',#1268);
#312=VERTEX_POINT('',#1271);
#313=VERTEX_POINT('',#1273);
#314=VERTEX_POINT('',#1276);
#315=VERTEX_POINT('',#1278);
#316=VERTEX_POINT('',#1281);
#317=VERTEX_POINT('',#1283);
#318=VERTEX_POINT('',#1286);
#319=VERTEX_POINT('',#1288);
#320=VERTEX_POINT('',#1291);
#321=VERTEX_POINT('',#1293);
#322=VERTEX_POINT('',#1296);
#323=VERTEX_POINT('',#1298);
#324=VERTEX_POINT('',#1301);
#325=VERTEX_POINT('',#1303);
#326=VERTEX_POINT('',#1306);
#327=VERTEX_POINT('',#1308);
#328=VERTEX_POINT('',#1311);
#329=VERTEX_POINT('',#1313);
#330=VERTEX_POINT('',#1316);
#331=VERTEX_POINT('',#1318);
#332=VERTEX_POINT('',#1320);
#333=VERTEX_POINT('',#1322);
#334=VERTEX_POINT('',#1324);
#335=VERTEX_POINT('',#1326);
#336=VERTEX_POINT('',#1328);
#337=VERTEX_POINT('',#1330);
#338=VERTEX_POINT('',#1332);
#339=VERTEX_POINT('',#1334);
#340=VERTEX_POINT('',#1336);
#341=VERTEX_POINT('',#1338);
#342=VERTEX_POINT('',#1340);
#343=VERTEX_POINT('',#1342);
#344=VERTEX_POINT('',#1344);
#345=VERTEX_POINT('',#1346);
#346=VERTEX_POINT('',#1348);
#347=VERTEX_POINT('',#1350);
#348=VERTEX_POINT('',#1352);
#349=VERTEX_POINT('',#1354);
#350=VERTEX_POINT('',#1355);
#351=VERTEX_POINT('',#1357);
#352=VERTEX_POINT('',#1359);
#353=VERTEX_POINT('',#1362);
#354=VERTEX_POINT('',#1364);
#355=VERTEX_POINT('',#1366);
#356=VERTEX_POINT('',#1368);
#357=VERTEX_POINT('',#1370);
#358=VERTEX_POINT('',#1373);
#359=VERTEX_POINT('',#1374);
#360=VERTEX_POINT('',#1379);
#361=VERTEX_POINT('',#1383);
#362=VERTEX_POINT('',#1389);
#363=VERTEX_POINT('',#1392);
#364=VERTEX_POINT('',#1395);
#365=VERTEX_POINT('',#1398);
#366=VERTEX_POINT('',#1401);
#367=VERTEX_POINT('',#1404);
#368=VERTEX_POINT('',#1407);
#369=VERTEX_POINT('',#1410);
#370=VERTEX_POINT('',#1413);
#371=VERTEX_POINT('',#1416);
#372=VERTEX_POINT('',#1419);
#373=VERTEX_POINT('',#1422);
#374=VERTEX_POINT('',#1426);
#375=VERTEX_POINT('',#1430);
#376=VERTEX_POINT('',#1434);
#377=VERTEX_POINT('',#1438);
#378=VERTEX_POINT('',#1442);
#379=VERTEX_POINT('',#1446);
#380=VERTEX_POINT('',#1450);
#381=VERTEX_POINT('',#1454);
#382=VERTEX_POINT('',#1458);
#383=VERTEX_POINT('',#1462);
#384=VERTEX_POINT('',#1466);
#385=VERTEX_POINT('',#1470);
#386=CIRCLE('',#862,0.0035);
#387=CIRCLE('',#863,0.0035);
#388=CIRCLE('',#865,0.0035);
#389=CIRCLE('',#866,0.0035);
#390=CIRCLE('',#868,0.0035);
#391=CIRCLE('',#869,0.0035);
#392=CIRCLE('',#871,0.0035);
#393=CIRCLE('',#872,0.0035);
#394=CIRCLE('',#874,0.0035);
#395=CIRCLE('',#875,0.0035);
#396=CIRCLE('',#877,0.0035);
#397=CIRCLE('',#878,0.0035);
#398=CIRCLE('',#880,0.0035);
#399=CIRCLE('',#881,0.0035);
#400=CIRCLE('',#883,0.0035);
#401=CIRCLE('',#884,0.0035);
#402=CIRCLE('',#886,0.0035);
#403=CIRCLE('',#887,0.0035);
#404=CIRCLE('',#889,0.0035);
#405=CIRCLE('',#890,0.0035);
#406=CIRCLE('',#892,0.0035);
#407=CIRCLE('',#893,0.0035);
#408=CIRCLE('',#895,0.0035);
#409=CIRCLE('',#896,0.0035);
#410=CIRCLE('',#898,0.0075);
#411=CIRCLE('',#899,0.0075);
#412=CIRCLE('',#900,0.0075);
#413=CIRCLE('',#901,0.0075);
#414=CIRCLE('',#902,0.0075);
#415=CIRCLE('',#903,0.0075);
#416=CIRCLE('',#904,0.0075);
#417=CIRCLE('',#905,0.0025);
#418=CIRCLE('',#906,0.0025);
#419=CIRCLE('',#907,0.0025);
#420=CIRCLE('',#908,0.0025);
#421=CIRCLE('',#909,0.0025);
#422=CIRCLE('',#910,0.0025);
#423=CIRCLE('',#911,0.0025);
#424=CIRCLE('',#912,0.0025);
#425=CIRCLE('',#913,0.0045);
#426=CIRCLE('',#914,0.0045);
#427=CIRCLE('',#915,0.0045);
#428=CIRCLE('',#916,0.0045);
#429=CIRCLE('',#917,0.0075);
#430=CIRCLE('',#918,0.0075);
#431=CIRCLE('',#919,0.0075);
#432=CIRCLE('',#920,0.0075);
#433=CIRCLE('',#921,0.0075);
#434=CIRCLE('',#927,0.0045);
#435=CIRCLE('',#929,0.0045);
#436=CIRCLE('',#931,0.0045);
#437=CIRCLE('',#933,0.0045);
#438=CIRCLE('',#935,0.0025);
#439=CIRCLE('',#937,0.0025);
#440=CIRCLE('',#939,0.0025);
#441=CIRCLE('',#941,0.0025);
#442=CIRCLE('',#943,0.0025);
#443=CIRCLE('',#945,0.0025);
#444=CIRCLE('',#947,0.0025);
#445=CIRCLE('',#949,0.0025);
#446=CIRCLE('',#952,0.0075);
#447=CIRCLE('',#955,0.0075);
#448=CIRCLE('',#958,0.0075);
#449=CIRCLE('',#961,0.0075);
#450=CIRCLE('',#964,0.0075);
#451=CIRCLE('',#967,0.0075);
#452=CIRCLE('',#970,0.0075);
#453=CIRCLE('',#973,0.0075);
#454=CIRCLE('',#976,0.0075);
#455=CIRCLE('',#979,0.0075);
#456=CIRCLE('',#982,0.0075);
#457=CIRCLE('',#985,0.0075);
#458=EDGE_LOOP('',(#54));
#459=EDGE_LOOP('',(#55));
#460=EDGE_LOOP('',(#56));
#461=EDGE_LOOP('',(#57));
#462=EDGE_LOOP('',(#58));
#463=EDGE_LOOP('',(#59));
#464=EDGE_LOOP('',(#60));
#465=EDGE_LOOP('',(#61));
#466=EDGE_LOOP('',(#62));
#467=EDGE_LOOP('',(#63));
#468=EDGE_LOOP('',(#64));
#469=EDGE_LOOP('',(#65));
#470=EDGE_LOOP('',(#66));
#471=EDGE_LOOP('',(#67));
#472=EDGE_LOOP('',(#68));
#473=EDGE_LOOP('',(#69));
#474=EDGE_LOOP('',(#70));
#475=EDGE_LOOP('',(#71));
#476=EDGE_LOOP('',(#72));
#477=EDGE_LOOP('',(#73));
#478=EDGE_LOOP('',(#74));
#479=EDGE_LOOP('',(#75));
#480=EDGE_LOOP('',(#76));
#481=EDGE_LOOP('',(#77));
#482=EDGE_LOOP('',(#78));
#483=EDGE_LOOP('',(#79));
#484=EDGE_LOOP('',(#80));
#485=EDGE_LOOP('',(#81));
#486=EDGE_LOOP('',(#82));
#487=EDGE_LOOP('',(#83));
#488=EDGE_LOOP('',(#84));
#489=EDGE_LOOP('',(#85));
#490=EDGE_LOOP('',(#86));
#491=EDGE_LOOP('',(#87));
#492=EDGE_LOOP('',(#88));
#493=EDGE_LOOP('',(#89));
#494=EDGE_LOOP('',(#90));
#495=EDGE_LOOP('',(#91));
#496=EDGE_LOOP('',(#92));
#497=EDGE_LOOP('',(#93));
#498=EDGE_LOOP('',(#94));
#499=EDGE_LOOP('',(#95));
#500=EDGE_LOOP('',(#96));
#501=EDGE_LOOP('',(#97,#98,#99,#100));
#502=EDGE_LOOP('',(#101));
#503=EDGE_LOOP('',(#102));
#504=EDGE_LOOP('',(#103));
#505=EDGE_LOOP('',(#104));
#506=EDGE_LOOP('',(#105));
#507=EDGE_LOOP('',(#106,#107,#108,#109));
#508=EDGE_LOOP('',(#110,#111,#112,#113));
#509=EDGE_LOOP('',(#114,#115,#116,#117));
#510=EDGE_LOOP('',(#118,#119,#120,#121));
#511=EDGE_LOOP('',(#122));
#512=EDGE_LOOP('',(#123));
#513=EDGE_LOOP('',(#124));
#514=EDGE_LOOP('',(#125));
#515=EDGE_LOOP('',(#126));
#516=EDGE_LOOP('',(#127));
#517=EDGE_LOOP('',(#128));
#518=EDGE_LOOP('',(#129));
#519=EDGE_LOOP('',(#130));
#520=EDGE_LOOP('',(#131));
#521=EDGE_LOOP('',(#132));
#522=EDGE_LOOP('',(#133));
#523=EDGE_LOOP('',(#134));
#524=EDGE_LOOP('',(#135));
#525=EDGE_LOOP('',(#136));
#526=EDGE_LOOP('',(#137));
#527=EDGE_LOOP('',(#138));
#528=EDGE_LOOP('',(#139));
#529=EDGE_LOOP('',(#140));
#530=EDGE_LOOP('',(#141));
#531=EDGE_LOOP('',(#142));
#532=EDGE_LOOP('',(#143));
#533=EDGE_LOOP('',(#144));
#534=EDGE_LOOP('',(#145));
#535=EDGE_LOOP('',(#146));
#536=EDGE_LOOP('',(#147));
#537=EDGE_LOOP('',(#148));
#538=EDGE_LOOP('',(#149));
#539=EDGE_LOOP('',(#150));
#540=EDGE_LOOP('',(#151));
#541=EDGE_LOOP('',(#152));
#542=EDGE_LOOP('',(#153));
#543=EDGE_LOOP('',(#154));
#544=EDGE_LOOP('',(#155));
#545=EDGE_LOOP('',(#156));
#546=EDGE_LOOP('',(#157));
#547=EDGE_LOOP('',(#158));
#548=EDGE_LOOP('',(#159,#160,#161,#162));
#549=EDGE_LOOP('',(#163));
#550=EDGE_LOOP('',(#164));
#551=EDGE_LOOP('',(#165));
#552=EDGE_LOOP('',(#166));
#553=EDGE_LOOP('',(#167));
#554=EDGE_LOOP('',(#168));
#555=EDGE_LOOP('',(#169));
#556=EDGE_LOOP('',(#170));
#557=EDGE_LOOP('',(#171));
#558=EDGE_LOOP('',(#172));
#559=EDGE_LOOP('',(#173));
#560=EDGE_LOOP('',(#174));
#561=EDGE_LOOP('',(#175));
#562=EDGE_LOOP('',(#176));
#563=EDGE_LOOP('',(#177));
#564=EDGE_LOOP('',(#178));
#565=EDGE_LOOP('',(#179));
#566=EDGE_LOOP('',(#180));
#567=EDGE_LOOP('',(#181));
#568=EDGE_LOOP('',(#182));
#569=EDGE_LOOP('',(#183));
#570=EDGE_LOOP('',(#184));
#571=EDGE_LOOP('',(#185));
#572=EDGE_LOOP('',(#186));
#573=EDGE_LOOP('',(#187));
#574=EDGE_LOOP('',(#188));
#575=EDGE_LOOP('',(#189));
#576=EDGE_LOOP('',(#190));
#577=EDGE_LOOP('',(#191));
#578=EDGE_LOOP('',(#192));
#579=EDGE_LOOP('',(#193));
#580=EDGE_LOOP('',(#194));
#581=EDGE_LOOP('',(#195));
#582=EDGE_LOOP('',(#196));
#583=EDGE_LOOP('',(#197));
#584=EDGE_LOOP('',(#198));
#585=EDGE_LOOP('',(#199));
#586=EDGE_LOOP('',(#200));
#587=EDGE_LOOP('',(#201));
#588=EDGE_LOOP('',(#202));
#589=EDGE_LOOP('',(#203));
#590=EDGE_LOOP('',(#204));
#591=EDGE_LOOP('',(#205));
#592=EDGE_LOOP('',(#206));
#593=EDGE_LOOP('',(#207));
#594=EDGE_LOOP('',(#208));
#595=EDGE_LOOP('',(#209));
#596=EDGE_LOOP('',(#210));
#597=EDGE_LOOP('',(#211));
#598=EDGE_LOOP('',(#212));
#599=EDGE_LOOP('',(#213));
#600=EDGE_LOOP('',(#214));
#601=EDGE_LOOP('',(#215));
#602=EDGE_LOOP('',(#216));
#603=EDGE_LOOP('',(#217));
#604=EDGE_LOOP('',(#218));
#605=EDGE_LOOP('',(#219));
#606=EDGE_LOOP('',(#220));
#607=EDGE_LOOP('',(#221));
#608=FACE_BOUND('',#458,.T.);
#609=FACE_BOUND('',#459,.T.);
#610=FACE_BOUND('',#460,.T.);
#611=FACE_BOUND('',#461,.T.);
#612=FACE_BOUND('',#462,.T.);
#613=FACE_BOUND('',#463,.T.);
#614=FACE_BOUND('',#464,.T.);
#615=FACE_BOUND('',#465,.T.);
#616=FACE_BOUND('',#466,.T.);
#617=FACE_BOUND('',#467,.T.);
#618=FACE_BOUND('',#468,.T.);
#619=FACE_BOUND('',#469,.T.);
#620=FACE_BOUND('',#470,.T.);
#621=FACE_BOUND('',#471,.T.);
#622=FACE_BOUND('',#472,.T.);
#623=FACE_BOUND('',#473,.T.);
#624=FACE_BOUND('',#474,.T.);
#625=FACE_BOUND('',#475,.T.);
#626=FACE_BOUND('',#476,.T.);
#627=FACE_BOUND('',#477,.T.);
#628=FACE_BOUND('',#478,.T.);
#629=FACE_BOUND('',#479,.T.);
#630=FACE_BOUND('',#480,.T.);
#631=FACE_BOUND('',#481,.T.);
#632=FACE_BOUND('',#482,.T.);
#633=FACE_BOUND('',#483,.T.);
#634=FACE_BOUND('',#484,.T.);
#635=FACE_BOUND('',#485,.T.);
#636=FACE_BOUND('',#486,.T.);
#637=FACE_BOUND('',#487,.T.);
#638=FACE_BOUND('',#488,.T.);
#639=FACE_BOUND('',#489,.T.);
#640=FACE_BOUND('',#490,.T.);
#641=FACE_BOUND('',#491,.T.);
#642=FACE_BOUND('',#492,.T.);
#643=FACE_BOUND('',#493,.T.);
#644=FACE_BOUND('',#494,.T.);
#645=FACE_BOUND('',#495,.T.);
#646=FACE_BOUND('',#496,.T.);
#647=FACE_BOUND('',#497,.T.);
#648=FACE_BOUND('',#498,.T.);
#649=FACE_BOUND('',#499,.T.);
#650=FACE_BOUND('',#500,.T.);
#651=FACE_BOUND('',#501,.T.);
#652=FACE_BOUND('',#502,.T.);
#653=FACE_BOUND('',#503,.T.);
#654=FACE_BOUND('',#504,.T.);
#655=FACE_BOUND('',#505,.T.);
#656=FACE_BOUND('',#506,.T.);
#657=FACE_BOUND('',#507,.T.);
#658=FACE_BOUND('',#508,.T.);
#659=FACE_BOUND('',#509,.T.);
#660=FACE_BOUND('',#510,.T.);
#661=FACE_BOUND('',#511,.T.);
#662=FACE_BOUND('',#512,.T.);
#663=FACE_BOUND('',#513,.T.);
#664=FACE_BOUND('',#514,.T.);
#665=FACE_BOUND('',#515,.T.);
#666=FACE_BOUND('',#516,.T.);
#667=FACE_BOUND('',#517,.T.);
#668=FACE_BOUND('',#518,.T.);
#669=FACE_BOUND('',#519,.T.);
#670=FACE_BOUND('',#520,.T.);
#671=FACE_BOUND('',#521,.T.);
#672=FACE_BOUND('',#522,.T.);
#673=FACE_BOUND('',#523,.T.);
#674=FACE_BOUND('',#524,.T.);
#675=FACE_BOUND('',#525,.T.);
#676=FACE_BOUND('',#526,.T.);
#677=FACE_BOUND('',#527,.T.);
#678=FACE_BOUND('',#528,.T.);
#679=FACE_BOUND('',#529,.T.);
#680=FACE_BOUND('',#530,.T.);
#681=FACE_BOUND('',#531,.T.);
#682=FACE_BOUND('',#532,.T.);
#683=FACE_BOUND('',#533,.T.);
#684=FACE_BOUND('',#534,.T.);
#685=FACE_BOUND('',#535,.T.);
#686=FACE_BOUND('',#536,.T.);
#687=FACE_BOUND('',#537,.T.);
#688=FACE_BOUND('',#538,.T.);
#689=FACE_BOUND('',#539,.T.);
#690=FACE_BOUND('',#540,.T.);
#691=FACE_BOUND('',#541,.T.);
#692=FACE_BOUND('',#542,.T.);
#693=FACE_BOUND('',#543,.T.);
#694=FACE_BOUND('',#544,.T.);
#695=FACE_BOUND('',#545,.T.);
#696=FACE_BOUND('',#546,.T.);
#697=FACE_BOUND('',#547,.T.);
#698=FACE_BOUND('',#548,.T.);
#699=FACE_BOUND('',#549,.T.);
#700=FACE_BOUND('',#550,.T.);
#701=FACE_BOUND('',#551,.T.);
#702=FACE_BOUND('',#552,.T.);
#703=FACE_BOUND('',#553,.T.);
#704=FACE_BOUND('',#554,.T.);
#705=FACE_BOUND('',#555,.T.);
#706=FACE_BOUND('',#556,.T.);
#707=FACE_BOUND('',#557,.T.);
#708=FACE_BOUND('',#558,.T.);
#709=FACE_BOUND('',#559,.T.);
#710=FACE_BOUND('',#560,.T.);
#711=FACE_BOUND('',#561,.T.);
#712=FACE_BOUND('',#562,.T.);
#713=FACE_BOUND('',#563,.T.);
#714=FACE_BOUND('',#564,.T.);
#715=FACE_BOUND('',#565,.T.);
#716=FACE_BOUND('',#566,.T.);
#717=FACE_BOUND('',#567,.T.);
#718=FACE_BOUND('',#568,.T.);
#719=FACE_BOUND('',#569,.T.);
#720=FACE_BOUND('',#570,.T.);
#721=FACE_BOUND('',#571,.T.);
#722=FACE_BOUND('',#572,.T.);
#723=FACE_BOUND('',#573,.T.);
#724=FACE_BOUND('',#574,.T.);
#725=FACE_BOUND('',#575,.T.);
#726=FACE_BOUND('',#576,.T.);
#727=FACE_BOUND('',#577,.T.);
#728=FACE_BOUND('',#578,.T.);
#729=FACE_BOUND('',#579,.T.);
#730=FACE_BOUND('',#580,.T.);
#731=FACE_BOUND('',#581,.T.);
#732=FACE_BOUND('',#582,.T.);
#733=FACE_BOUND('',#583,.T.);
#734=FACE_BOUND('',#584,.T.);
#735=FACE_BOUND('',#585,.T.);
#736=FACE_BOUND('',#586,.T.);
#737=FACE_BOUND('',#587,.T.);
#738=FACE_BOUND('',#588,.T.);
#739=FACE_BOUND('',#589,.T.);
#740=FACE_BOUND('',#590,.T.);
#741=FACE_BOUND('',#591,.T.);
#742=FACE_BOUND('',#592,.T.);
#743=FACE_BOUND('',#593,.T.);
#744=FACE_BOUND('',#594,.T.);
#745=FACE_BOUND('',#595,.T.);
#746=FACE_BOUND('',#596,.T.);
#747=FACE_BOUND('',#597,.T.);
#748=FACE_BOUND('',#598,.T.);
#749=FACE_BOUND('',#599,.T.);
#750=FACE_BOUND('',#600,.T.);
#751=FACE_BOUND('',#601,.T.);
#752=FACE_BOUND('',#602,.T.);
#753=FACE_BOUND('',#603,.T.);
#754=FACE_BOUND('',#604,.T.);
#755=FACE_BOUND('',#605,.T.);
#756=FACE_BOUND('',#606,.T.);
#757=FACE_BOUND('',#607,.T.);
#758=CYLINDRICAL_SURFACE('',#861,0.0035);
#759=CYLINDRICAL_SURFACE('',#864,0.0035);
#760=CYLINDRICAL_SURFACE('',#867,0.0035);
#761=CYLINDRICAL_SURFACE('',#870,0.0035);
#762=CYLINDRICAL_SURFACE('',#873,0.0035);
#763=CYLINDRICAL_SURFACE('',#876,0.0035);
#764=CYLINDRICAL_SURFACE('',#879,0.0035);
#765=CYLINDRICAL_SURFACE('',#882,0.0035);
#766=CYLINDRICAL_SURFACE('',#885,0.0035);
#767=CYLINDRICAL_SURFACE('',#888,0.0035);
#768=CYLINDRICAL_SURFACE('',#891,0.0035);
#769=CYLINDRICAL_SURFACE('',#894,0.0035);
#770=CYLINDRICAL_SURFACE('',#926,0.0045);
#771=CYLINDRICAL_SURFACE('',#928,0.0045);
#772=CYLINDRICAL_SURFACE('',#930,0.0045);
#773=CYLINDRICAL_SURFACE('',#932,0.0045);
#774=CYLINDRICAL_SURFACE('',#934,0.0025);
#775=CYLINDRICAL_SURFACE('',#936,0.0025);
#776=CYLINDRICAL_SURFACE('',#938,0.0025);
#777=CYLINDRICAL_SURFACE('',#940,0.0025);
#778=CYLINDRICAL_SURFACE('',#942,0.0025);
#779=CYLINDRICAL_SURFACE('',#944,0.0025);
#780=CYLINDRICAL_SURFACE('',#946,0.0025);
#781=CYLINDRICAL_SURFACE('',#948,0.0025);
#782=CYLINDRICAL_SURFACE('',#951,0.0075);
#783=CYLINDRICAL_SURFACE('',#954,0.0075);
#784=CYLINDRICAL_SURFACE('',#957,0.0075);
#785=CYLINDRICAL_SURFACE('',#960,0.0075);
#786=CYLINDRICAL_SURFACE('',#963,0.0075);
#787=CYLINDRICAL_SURFACE('',#966,0.0075);
#788=CYLINDRICAL_SURFACE('',#969,0.0075);
#789=CYLINDRICAL_SURFACE('',#972,0.0075);
#790=CYLINDRICAL_SURFACE('',#975,0.0075);
#791=CYLINDRICAL_SURFACE('',#978,0.0075);
#792=CYLINDRICAL_SURFACE('',#981,0.0075);
#793=CYLINDRICAL_SURFACE('',#984,0.0075);
#794=ADVANCED_FACE('',(#608,#609),#758,.F.);
#795=ADVANCED_FACE('',(#610,#611),#759,.F.);
#796=ADVANCED_FACE('',(#612,#613),#760,.F.);
#797=ADVANCED_FACE('',(#614,#615),#761,.F.);
#798=ADVANCED_FACE('',(#616,#617),#762,.F.);
#799=ADVANCED_FACE('',(#618,#619),#763,.F.);
#800=ADVANCED_FACE('',(#620,#621),#764,.F.);
#801=ADVANCED_FACE('',(#622,#623),#765,.F.);
#802=ADVANCED_FACE('',(#624,#625),#766,.F.);
#803=ADVANCED_FACE('',(#626,#627),#767,.F.);
#804=ADVANCED_FACE('',(#628,#629),#768,.F.);
#805=ADVANCED_FACE('',(#630,#631),#769,.F.);
#806=ADVANCED_FACE('',(#632,#633,#634,#635,#636,#637,#638,#639,#640,#641,
#642,#643,#644,#645,#646,#647,#648,#649,#650,#651,#652,#653,#654,#655,#656),
#36,.T.);
#807=ADVANCED_FACE('',(#657),#37,.F.);
#808=ADVANCED_FACE('',(#658),#38,.F.);
#809=ADVANCED_FACE('',(#659),#39,.T.);
#810=ADVANCED_FACE('',(#660),#40,.T.);
#811=ADVANCED_FACE('',(#661,#662),#770,.F.);
#812=ADVANCED_FACE('',(#663,#664),#771,.F.);
#813=ADVANCED_FACE('',(#665,#666),#772,.F.);
#814=ADVANCED_FACE('',(#667,#668),#773,.F.);
#815=ADVANCED_FACE('',(#669,#670),#774,.F.);
#816=ADVANCED_FACE('',(#671,#672),#775,.F.);
#817=ADVANCED_FACE('',(#673,#674),#776,.F.);
#818=ADVANCED_FACE('',(#675,#676),#777,.F.);
#819=ADVANCED_FACE('',(#677,#678),#778,.F.);
#820=ADVANCED_FACE('',(#679,#680),#779,.F.);
#821=ADVANCED_FACE('',(#681,#682),#780,.F.);
#822=ADVANCED_FACE('',(#683,#684),#781,.F.);
#823=ADVANCED_FACE('',(#685,#686,#687,#688,#689,#690,#691,#692,#693,#694,
#695,#696,#697,#698,#699,#700,#701,#702,#703,#704,#705,#706,#707,#708,#709),
#41,.F.);
#824=ADVANCED_FACE('',(#710,#711),#782,.F.);
#825=ADVANCED_FACE('',(#712,#713),#42,.T.);
#826=ADVANCED_FACE('',(#714,#715),#783,.F.);
#827=ADVANCED_FACE('',(#716,#717),#43,.T.);
#828=ADVANCED_FACE('',(#718,#719),#784,.F.);
#829=ADVANCED_FACE('',(#720,#721),#44,.T.);
#830=ADVANCED_FACE('',(#722,#723),#785,.F.);
#831=ADVANCED_FACE('',(#724,#725),#45,.T.);
#832=ADVANCED_FACE('',(#726,#727),#786,.F.);
#833=ADVANCED_FACE('',(#728,#729),#46,.T.);
#834=ADVANCED_FACE('',(#730,#731),#787,.F.);
#835=ADVANCED_FACE('',(#732,#733),#47,.T.);
#836=ADVANCED_FACE('',(#734,#735),#788,.F.);
#837=ADVANCED_FACE('',(#736,#737),#48,.T.);
#838=ADVANCED_FACE('',(#738,#739),#789,.F.);
#839=ADVANCED_FACE('',(#740,#741),#49,.T.);
#840=ADVANCED_FACE('',(#742,#743),#790,.F.);
#841=ADVANCED_FACE('',(#744,#745),#50,.T.);
#842=ADVANCED_FACE('',(#746,#747),#791,.F.);
#843=ADVANCED_FACE('',(#748,#749),#51,.T.);
#844=ADVANCED_FACE('',(#750,#751),#792,.F.);
#845=ADVANCED_FACE('',(#752,#753),#52,.T.);
#846=ADVANCED_FACE('',(#754,#755),#793,.F.);
#847=ADVANCED_FACE('',(#756,#757),#53,.T.);
#848=CLOSED_SHELL('',(#794,#795,#796,#797,#798,#799,#800,#801,#802,#803,
#804,#805,#806,#807,#808,#809,#810,#811,#812,#813,#814,#815,#816,#817,#818,
#819,#820,#821,#822,#823,#824,#825,#826,#827,#828,#829,#830,#831,#832,#833,
#834,#835,#836,#837,#838,#839,#840,#841,#842,#843,#844,#845,#846,#847));
#849=STYLED_ITEM('',(#850),#857);
#850=PRESENTATION_STYLE_ASSIGNMENT((#851));
#851=SURFACE_STYLE_USAGE(.BOTH.,#852);
#852=SURFACE_SIDE_STYLE('',(#853));
#853=SURFACE_STYLE_FILL_AREA(#854);
#854=FILL_AREA_STYLE('',(#855));
#855=FILL_AREA_STYLE_COLOUR('',#856);
#856=COLOUR_RGB('',0.615686274509804,0.811764705882353,0.929411764705882);
#857=MANIFOLD_SOLID_BREP('Plate_1x0.4m',#848);
#858=SHAPE_DEFINITION_REPRESENTATION(#1478,#859);
#859=SHAPE_REPRESENTATION('Plate_1x0.4m',(#860),#1473);
#860=AXIS2_PLACEMENT_3D('',#1253,#987,#988);
#861=AXIS2_PLACEMENT_3D('',#1254,#989,#990);
#862=AXIS2_PLACEMENT_3D('',#1255,#991,#992);
#863=AXIS2_PLACEMENT_3D('',#1257,#993,#994);
#864=AXIS2_PLACEMENT_3D('',#1259,#995,#996);
#865=AXIS2_PLACEMENT_3D('',#1260,#997,#998);
#866=AXIS2_PLACEMENT_3D('',#1262,#999,#1000);
#867=AXIS2_PLACEMENT_3D('',#1264,#1001,#1002);
#868=AXIS2_PLACEMENT_3D('',#1265,#1003,#1004);
#869=AXIS2_PLACEMENT_3D('',#1267,#1005,#1006);
#870=AXIS2_PLACEMENT_3D('',#1269,#1007,#1008);
#871=AXIS2_PLACEMENT_3D('',#1270,#1009,#1010);
#872=AXIS2_PLACEMENT_3D('',#1272,#1011,#1012);
#873=AXIS2_PLACEMENT_3D('',#1274,#1013,#1014);
#874=AXIS2_PLACEMENT_3D('',#1275,#1015,#1016);
#875=AXIS2_PLACEMENT_3D('',#1277,#1017,#1018);
#876=AXIS2_PLACEMENT_3D('',#1279,#1019,#1020);
#877=AXIS2_PLACEMENT_3D('',#1280,#1021,#1022);
#878=AXIS2_PLACEMENT_3D('',#1282,#1023,#1024);
#879=AXIS2_PLACEMENT_3D('',#1284,#1025,#1026);
#880=AXIS2_PLACEMENT_3D('',#1285,#1027,#1028);
#881=AXIS2_PLACEMENT_3D('',#1287,#1029,#1030);
#882=AXIS2_PLACEMENT_3D('',#1289,#1031,#1032);
#883=AXIS2_PLACEMENT_3D('',#1290,#1033,#1034);
#884=AXIS2_PLACEMENT_3D('',#1292,#1035,#1036);
#885=AXIS2_PLACEMENT_3D('',#1294,#1037,#1038);
#886=AXIS2_PLACEMENT_3D('',#1295,#1039,#1040);
#887=AXIS2_PLACEMENT_3D('',#1297,#1041,#1042);
#888=AXIS2_PLACEMENT_3D('',#1299,#1043,#1044);
#889=AXIS2_PLACEMENT_3D('',#1300,#1045,#1046);
#890=AXIS2_PLACEMENT_3D('',#1302,#1047,#1048);
#891=AXIS2_PLACEMENT_3D('',#1304,#1049,#1050);
#892=AXIS2_PLACEMENT_3D('',#1305,#1051,#1052);
#893=AXIS2_PLACEMENT_3D('',#1307,#1053,#1054);
#894=AXIS2_PLACEMENT_3D('',#1309,#1055,#1056);
#895=AXIS2_PLACEMENT_3D('',#1310,#1057,#1058);
#896=AXIS2_PLACEMENT_3D('',#1312,#1059,#1060);
#897=AXIS2_PLACEMENT_3D('',#1314,#1061,#1062);
#898=AXIS2_PLACEMENT_3D('',#1315,#1063,#1064);
#899=AXIS2_PLACEMENT_3D('',#1317,#1065,#1066);
#900=AXIS2_PLACEMENT_3D('',#1319,#1067,#1068);
#901=AXIS2_PLACEMENT_3D('',#1321,#1069,#1070);
#902=AXIS2_PLACEMENT_3D('',#1323,#1071,#1072);
#903=AXIS2_PLACEMENT_3D('',#1325,#1073,#1074);
#904=AXIS2_PLACEMENT_3D('',#1327,#1075,#1076);
#905=AXIS2_PLACEMENT_3D('',#1329,#1077,#1078);
#906=AXIS2_PLACEMENT_3D('',#1331,#1079,#1080);
#907=AXIS2_PLACEMENT_3D('',#1333,#1081,#1082);
#908=AXIS2_PLACEMENT_3D('',#1335,#1083,#1084);
#909=AXIS2_PLACEMENT_3D('',#1337,#1085,#1086);
#910=AXIS2_PLACEMENT_3D('',#1339,#1087,#1088);
#911=AXIS2_PLACEMENT_3D('',#1341,#1089,#1090);
#912=AXIS2_PLACEMENT_3D('',#1343,#1091,#1092);
#913=AXIS2_PLACEMENT_3D('',#1345,#1093,#1094);
#914=AXIS2_PLACEMENT_3D('',#1347,#1095,#1096);
#915=AXIS2_PLACEMENT_3D('',#1349,#1097,#1098);
#916=AXIS2_PLACEMENT_3D('',#1351,#1099,#1100);
#917=AXIS2_PLACEMENT_3D('',#1361,#1105,#1106);
#918=AXIS2_PLACEMENT_3D('',#1363,#1107,#1108);
#919=AXIS2_PLACEMENT_3D('',#1365,#1109,#1110);
#920=AXIS2_PLACEMENT_3D('',#1367,#1111,#1112);
#921=AXIS2_PLACEMENT_3D('',#1369,#1113,#1114);
#922=AXIS2_PLACEMENT_3D('',#1371,#1115,#1116);
#923=AXIS2_PLACEMENT_3D('',#1377,#1120,#1121);
#924=AXIS2_PLACEMENT_3D('',#1381,#1124,#1125);
#925=AXIS2_PLACEMENT_3D('',#1385,#1128,#1129);
#926=AXIS2_PLACEMENT_3D('',#1387,#1131,#1132);
#927=AXIS2_PLACEMENT_3D('',#1388,#1133,#1134);
#928=AXIS2_PLACEMENT_3D('',#1390,#1135,#1136);
#929=AXIS2_PLACEMENT_3D('',#1391,#1137,#1138);
#930=AXIS2_PLACEMENT_3D('',#1393,#1139,#1140);
#931=AXIS2_PLACEMENT_3D('',#1394,#1141,#1142);
#932=AXIS2_PLACEMENT_3D('',#1396,#1143,#1144);
#933=AXIS2_PLACEMENT_3D('',#1397,#1145,#1146);
#934=AXIS2_PLACEMENT_3D('',#1399,#1147,#1148);
#935=AXIS2_PLACEMENT_3D('',#1400,#1149,#1150);
#936=AXIS2_PLACEMENT_3D('',#1402,#1151,#1152);
#937=AXIS2_PLACEMENT_3D('',#1403,#1153,#1154);
#938=AXIS2_PLACEMENT_3D('',#1405,#1155,#1156);
#939=AXIS2_PLACEMENT_3D('',#1406,#1157,#1158);
#940=AXIS2_PLACEMENT_3D('',#1408,#1159,#1160);
#941=AXIS2_PLACEMENT_3D('',#1409,#1161,#1162);
#942=AXIS2_PLACEMENT_3D('',#1411,#1163,#1164);
#943=AXIS2_PLACEMENT_3D('',#1412,#1165,#1166);
#944=AXIS2_PLACEMENT_3D('',#1414,#1167,#1168);
#945=AXIS2_PLACEMENT_3D('',#1415,#1169,#1170);
#946=AXIS2_PLACEMENT_3D('',#1417,#1171,#1172);
#947=AXIS2_PLACEMENT_3D('',#1418,#1173,#1174);
#948=AXIS2_PLACEMENT_3D('',#1420,#1175,#1176);
#949=AXIS2_PLACEMENT_3D('',#1421,#1177,#1178);
#950=AXIS2_PLACEMENT_3D('',#1423,#1179,#1180);
#951=AXIS2_PLACEMENT_3D('',#1424,#1181,#1182);
#952=AXIS2_PLACEMENT_3D('',#1425,#1183,#1184);
#953=AXIS2_PLACEMENT_3D('',#1427,#1185,#1186);
#954=AXIS2_PLACEMENT_3D('',#1428,#1187,#1188);
#955=AXIS2_PLACEMENT_3D('',#1429,#1189,#1190);
#956=AXIS2_PLACEMENT_3D('',#1431,#1191,#1192);
#957=AXIS2_PLACEMENT_3D('',#1432,#1193,#1194);
#958=AXIS2_PLACEMENT_3D('',#1433,#1195,#1196);
#959=AXIS2_PLACEMENT_3D('',#1435,#1197,#1198);
#960=AXIS2_PLACEMENT_3D('',#1436,#1199,#1200);
#961=AXIS2_PLACEMENT_3D('',#1437,#1201,#1202);
#962=AXIS2_PLACEMENT_3D('',#1439,#1203,#1204);
#963=AXIS2_PLACEMENT_3D('',#1440,#1205,#1206);
#964=AXIS2_PLACEMENT_3D('',#1441,#1207,#1208);
#965=AXIS2_PLACEMENT_3D('',#1443,#1209,#1210);
#966=AXIS2_PLACEMENT_3D('',#1444,#1211,#1212);
#967=AXIS2_PLACEMENT_3D('',#1445,#1213,#1214);
#968=AXIS2_PLACEMENT_3D('',#1447,#1215,#1216);
#969=AXIS2_PLACEMENT_3D('',#1448,#1217,#1218);
#970=AXIS2_PLACEMENT_3D('',#1449,#1219,#1220);
#971=AXIS2_PLACEMENT_3D('',#1451,#1221,#1222);
#972=AXIS2_PLACEMENT_3D('',#1452,#1223,#1224);
#973=AXIS2_PLACEMENT_3D('',#1453,#1225,#1226);
#974=AXIS2_PLACEMENT_3D('',#1455,#1227,#1228);
#975=AXIS2_PLACEMENT_3D('',#1456,#1229,#1230);
#976=AXIS2_PLACEMENT_3D('',#1457,#1231,#1232);
#977=AXIS2_PLACEMENT_3D('',#1459,#1233,#1234);
#978=AXIS2_PLACEMENT_3D('',#1460,#1235,#1236);
#979=AXIS2_PLACEMENT_3D('',#1461,#1237,#1238);
#980=AXIS2_PLACEMENT_3D('',#1463,#1239,#1240);
#981=AXIS2_PLACEMENT_3D('',#1464,#1241,#1242);
#982=AXIS2_PLACEMENT_3D('',#1465,#1243,#1244);
#983=AXIS2_PLACEMENT_3D('',#1467,#1245,#1246);
#984=AXIS2_PLACEMENT_3D('',#1468,#1247,#1248);
#985=AXIS2_PLACEMENT_3D('',#1469,#1249,#1250);
#986=AXIS2_PLACEMENT_3D('',#1471,#1251,#1252);
#987=DIRECTION('',(0.,0.,1.));
#988=DIRECTION('',(1.,0.,0.));
#989=DIRECTION('',(0.,0.,-1.));
#990=DIRECTION('',(-1.,0.,0.));
#991=DIRECTION('',(0.,0.,-1.));
#992=DIRECTION('',(1.,0.,0.));
#993=DIRECTION('',(0.,0.,-1.));
#994=DIRECTION('',(1.,0.,0.));
#995=DIRECTION('',(0.,0.,-1.));
#996=DIRECTION('',(-1.,0.,0.));
#997=DIRECTION('',(0.,0.,-1.));
#998=DIRECTION('',(1.,0.,0.));
#999=DIRECTION('',(0.,0.,-1.));
#1000=DIRECTION('',(1.,0.,0.));
#1001=DIRECTION('',(0.,0.,-1.));
#1002=DIRECTION('',(-1.,0.,0.));
#1003=DIRECTION('',(0.,0.,-1.));
#1004=DIRECTION('',(1.,0.,0.));
#1005=DIRECTION('',(0.,0.,-1.));
#1006=DIRECTION('',(1.,0.,0.));
#1007=DIRECTION('',(0.,0.,-1.));
#1008=DIRECTION('',(-1.,0.,0.));
#1009=DIRECTION('',(0.,0.,-1.));
#1010=DIRECTION('',(1.,0.,0.));
#1011=DIRECTION('',(0.,0.,-1.));
#1012=DIRECTION('',(1.,0.,0.));
#1013=DIRECTION('',(0.,0.,-1.));
#1014=DIRECTION('',(-1.,0.,0.));
#1015=DIRECTION('',(0.,0.,-1.));
#1016=DIRECTION('',(1.,0.,0.));
#1017=DIRECTION('',(0.,0.,-1.));
#1018=DIRECTION('',(1.,0.,0.));
#1019=DIRECTION('',(0.,0.,-1.));
#1020=DIRECTION('',(-1.,0.,0.));
#1021=DIRECTION('',(0.,0.,1.));
#1022=DIRECTION('',(1.,0.,0.));
#1023=DIRECTION('',(0.,0.,1.));
#1024=DIRECTION('',(1.,0.,0.));
#1025=DIRECTION('',(0.,0.,-1.));
#1026=DIRECTION('',(-1.,0.,0.));
#1027=DIRECTION('',(0.,0.,1.));
#1028=DIRECTION('',(1.,0.,0.));
#1029=DIRECTION('',(0.,0.,1.));
#1030=DIRECTION('',(1.,0.,0.));
#1031=DIRECTION('',(0.,0.,-1.));
#1032=DIRECTION('',(-1.,0.,0.));
#1033=DIRECTION('',(0.,0.,1.));
#1034=DIRECTION('',(1.,0.,0.));
#1035=DIRECTION('',(0.,0.,1.));
#1036=DIRECTION('',(1.,0.,0.));
#1037=DIRECTION('',(0.,0.,-1.));
#1038=DIRECTION('',(-1.,0.,0.));
#1039=DIRECTION('',(0.,0.,1.));
#1040=DIRECTION('',(1.,0.,0.));
#1041=DIRECTION('',(0.,0.,1.));
#1042=DIRECTION('',(1.,0.,0.));
#1043=DIRECTION('',(0.,0.,-1.));
#1044=DIRECTION('',(-1.,0.,0.));
#1045=DIRECTION('',(0.,0.,1.));
#1046=DIRECTION('',(1.,0.,0.));
#1047=DIRECTION('',(0.,0.,1.));
#1048=DIRECTION('',(1.,0.,0.));
#1049=DIRECTION('',(0.,0.,-1.));
#1050=DIRECTION('',(-1.,0.,0.));
#1051=DIRECTION('',(0.,0.,1.));
#1052=DIRECTION('',(1.,0.,0.));
#1053=DIRECTION('',(0.,0.,1.));
#1054=DIRECTION('',(1.,0.,0.));
#1055=DIRECTION('',(0.,0.,-1.));
#1056=DIRECTION('',(-1.,0.,0.));
#1057=DIRECTION('',(0.,0.,-1.));
#1058=DIRECTION('',(1.,0.,0.));
#1059=DIRECTION('',(0.,0.,-1.));
#1060=DIRECTION('',(1.,0.,0.));
#1061=DIRECTION('',(0.,0.,1.));
#1062=DIRECTION('',(1.,0.,0.));
#1063=DIRECTION('',(0.,0.,1.));
#1064=DIRECTION('',(1.,0.,0.));
#1065=DIRECTION('',(0.,0.,1.));
#1066=DIRECTION('',(1.,0.,0.));
#1067=DIRECTION('',(0.,0.,1.));
#1068=DIRECTION('',(1.,0.,0.));
#1069=DIRECTION('',(0.,0.,-1.));
#1070=DIRECTION('',(1.,0.,0.));
#1071=DIRECTION('',(0.,0.,-1.));
#1072=DIRECTION('',(1.,0.,0.));
#1073=DIRECTION('',(0.,0.,-1.));
#1074=DIRECTION('',(1.,0.,0.));
#1075=DIRECTION('',(0.,0.,-1.));
#1076=DIRECTION('',(1.,0.,0.));
#1077=DIRECTION('',(0.,0.,1.));
#1078=DIRECTION('',(1.,0.,0.));
#1079=DIRECTION('',(0.,0.,1.));
#1080=DIRECTION('',(1.,0.,0.));
#1081=DIRECTION('',(0.,0.,1.));
#1082=DIRECTION('',(1.,0.,0.));
#1083=DIRECTION('',(0.,0.,1.));
#1084=DIRECTION('',(1.,0.,0.));
#1085=DIRECTION('',(0.,0.,1.));
#1086=DIRECTION('',(1.,0.,0.));
#1087=DIRECTION('',(0.,0.,1.));
#1088=DIRECTION('',(1.,0.,0.));
#1089=DIRECTION('',(0.,0.,1.));
#1090=DIRECTION('',(1.,0.,0.));
#1091=DIRECTION('',(0.,0.,1.));
#1092=DIRECTION('',(1.,0.,0.));
#1093=DIRECTION('',(0.,0.,1.));
#1094=DIRECTION('',(1.,0.,0.));
#1095=DIRECTION('',(0.,0.,1.));
#1096=DIRECTION('',(1.,0.,0.));
#1097=DIRECTION('',(0.,0.,1.));
#1098=DIRECTION('',(1.,0.,0.));
#1099=DIRECTION('',(0.,0.,1.));
#1100=DIRECTION('',(1.,0.,0.));
#1101=DIRECTION('',(0.,-1.,0.));
#1102=DIRECTION('',(1.,0.,0.));
#1103=DIRECTION('',(0.,-1.,0.));
#1104=DIRECTION('',(1.,0.,0.));
#1105=DIRECTION('',(0.,0.,1.));
#1106=DIRECTION('',(1.,0.,0.));
#1107=DIRECTION('',(0.,0.,-1.));
#1108=DIRECTION('',(1.,0.,0.));
#1109=DIRECTION('',(0.,0.,-1.));
#1110=DIRECTION('',(1.,0.,0.));
#1111=DIRECTION('',(0.,0.,1.));
#1112=DIRECTION('',(1.,0.,0.));
#1113=DIRECTION('',(0.,0.,1.));
#1114=DIRECTION('',(1.,0.,0.));
#1115=DIRECTION('',(1.,0.,0.));
#1116=DIRECTION('',(0.,0.,-1.));
#1117=DIRECTION('',(0.,-1.,0.));
#1118=DIRECTION('',(0.,0.,-1.));
#1119=DIRECTION('',(0.,0.,-1.));
#1120=DIRECTION('',(0.,1.,0.));
#1121=DIRECTION('',(0.,0.,1.));
#1122=DIRECTION('',(1.,0.,0.));
#1123=DIRECTION('',(0.,0.,-1.));
#1124=DIRECTION('',(1.,0.,0.));
#1125=DIRECTION('',(0.,0.,-1.));
#1126=DIRECTION('',(0.,-1.,0.));
#1127=DIRECTION('',(0.,0.,-1.));
#1128=DIRECTION('',(0.,1.,0.));
#1129=DIRECTION('',(0.,0.,1.));
#1130=DIRECTION('',(1.,0.,0.));
#1131=DIRECTION('',(0.,0.,-1.));
#1132=DIRECTION('',(-1.,0.,0.));
#1133=DIRECTION('',(0.,0.,1.));
#1134=DIRECTION('',(1.,0.,0.));
#1135=DIRECTION('',(0.,0.,-1.));
#1136=DIRECTION('',(-1.,0.,0.));
#1137=DIRECTION('',(0.,0.,1.));
#1138=DIRECTION('',(1.,0.,0.));
#1139=DIRECTION('',(0.,0.,-1.));
#1140=DIRECTION('',(-1.,0.,0.));
#1141=DIRECTION('',(0.,0.,1.));
#1142=DIRECTION('',(1.,0.,0.));
#1143=DIRECTION('',(0.,0.,-1.));
#1144=DIRECTION('',(-1.,0.,0.));
#1145=DIRECTION('',(0.,0.,1.));
#1146=DIRECTION('',(1.,0.,0.));
#1147=DIRECTION('',(0.,0.,-1.));
#1148=DIRECTION('',(-1.,0.,0.));
#1149=DIRECTION('',(0.,0.,1.));
#1150=DIRECTION('',(1.,0.,0.));
#1151=DIRECTION('',(0.,0.,-1.));
#1152=DIRECTION('',(-1.,0.,0.));
#1153=DIRECTION('',(0.,0.,1.));
#1154=DIRECTION('',(1.,0.,0.));
#1155=DIRECTION('',(0.,0.,-1.));
#1156=DIRECTION('',(-1.,0.,0.));
#1157=DIRECTION('',(0.,0.,1.));
#1158=DIRECTION('',(1.,0.,0.));
#1159=DIRECTION('',(0.,0.,-1.));
#1160=DIRECTION('',(-1.,0.,0.));
#1161=DIRECTION('',(0.,0.,1.));
#1162=DIRECTION('',(1.,0.,0.));
#1163=DIRECTION('',(0.,0.,-1.));
#1164=DIRECTION('',(-1.,0.,0.));
#1165=DIRECTION('',(0.,0.,1.));
#1166=DIRECTION('',(1.,0.,0.));
#1167=DIRECTION('',(0.,0.,-1.));
#1168=DIRECTION('',(-1.,0.,0.));
#1169=DIRECTION('',(0.,0.,1.));
#1170=DIRECTION('',(1.,0.,0.));
#1171=DIRECTION('',(0.,0.,-1.));
#1172=DIRECTION('',(-1.,0.,0.));
#1173=DIRECTION('',(0.,0.,1.));
#1174=DIRECTION('',(1.,0.,0.));
#1175=DIRECTION('',(0.,0.,-1.));
#1176=DIRECTION('',(-1.,0.,0.));
#1177=DIRECTION('',(0.,0.,1.));
#1178=DIRECTION('',(1.,0.,0.));
#1179=DIRECTION('',(0.,0.,1.));
#1180=DIRECTION('',(1.,0.,0.));
#1181=DIRECTION('',(0.,0.,1.));
#1182=DIRECTION('',(1.,0.,0.));
#1183=DIRECTION('',(0.,0.,-1.));
#1184=DIRECTION('',(1.,0.,0.));
#1185=DIRECTION('',(0.,0.,1.));
#1186=DIRECTION('',(1.,0.,0.));
#1187=DIRECTION('',(0.,0.,1.));
#1188=DIRECTION('',(1.,0.,0.));
#1189=DIRECTION('',(0.,0.,-1.));
#1190=DIRECTION('',(1.,0.,0.));
#1191=DIRECTION('',(0.,0.,1.));
#1192=DIRECTION('',(1.,0.,0.));
#1193=DIRECTION('',(0.,0.,1.));
#1194=DIRECTION('',(1.,0.,0.));
#1195=DIRECTION('',(0.,0.,-1.));
#1196=DIRECTION('',(1.,0.,0.));
#1197=DIRECTION('',(0.,0.,1.));
#1198=DIRECTION('',(1.,0.,0.));
#1199=DIRECTION('',(0.,0.,1.));
#1200=DIRECTION('',(1.,0.,0.));
#1201=DIRECTION('',(0.,0.,-1.));
#1202=DIRECTION('',(1.,0.,0.));
#1203=DIRECTION('',(0.,0.,1.));
#1204=DIRECTION('',(1.,0.,0.));
#1205=DIRECTION('',(0.,0.,1.));
#1206=DIRECTION('',(1.,0.,0.));
#1207=DIRECTION('',(0.,0.,1.));
#1208=DIRECTION('',(1.,0.,0.));
#1209=DIRECTION('',(0.,0.,1.));
#1210=DIRECTION('',(1.,0.,0.));
#1211=DIRECTION('',(0.,0.,1.));
#1212=DIRECTION('',(1.,0.,0.));
#1213=DIRECTION('',(0.,0.,1.));
#1214=DIRECTION('',(1.,0.,0.));
#1215=DIRECTION('',(0.,0.,1.));
#1216=DIRECTION('',(1.,0.,0.));
#1217=DIRECTION('',(0.,0.,1.));
#1218=DIRECTION('',(1.,0.,0.));
#1219=DIRECTION('',(0.,0.,1.));
#1220=DIRECTION('',(1.,0.,0.));
#1221=DIRECTION('',(0.,0.,1.));
#1222=DIRECTION('',(1.,0.,0.));
#1223=DIRECTION('',(0.,0.,1.));
#1224=DIRECTION('',(1.,0.,0.));
#1225=DIRECTION('',(0.,0.,-1.));
#1226=DIRECTION('',(1.,0.,0.));
#1227=DIRECTION('',(0.,0.,1.));
#1228=DIRECTION('',(1.,0.,0.));
#1229=DIRECTION('',(0.,0.,1.));
#1230=DIRECTION('',(1.,0.,0.));
#1231=DIRECTION('',(0.,0.,-1.));
#1232=DIRECTION('',(1.,0.,0.));
#1233=DIRECTION('',(0.,0.,1.));
#1234=DIRECTION('',(1.,0.,0.));
#1235=DIRECTION('',(0.,0.,1.));
#1236=DIRECTION('',(1.,0.,0.));
#1237=DIRECTION('',(0.,0.,1.));
#1238=DIRECTION('',(1.,0.,0.));
#1239=DIRECTION('',(0.,0.,1.));
#1240=DIRECTION('',(1.,0.,0.));
#1241=DIRECTION('',(0.,0.,1.));
#1242=DIRECTION('',(1.,0.,0.));
#1243=DIRECTION('',(0.,0.,1.));
#1244=DIRECTION('',(1.,0.,0.));
#1245=DIRECTION('',(0.,0.,1.));
#1246=DIRECTION('',(1.,0.,0.));
#1247=DIRECTION('',(0.,0.,1.));
#1248=DIRECTION('',(1.,0.,0.));
#1249=DIRECTION('',(0.,0.,1.));
#1250=DIRECTION('',(1.,0.,0.));
#1251=DIRECTION('',(0.,0.,1.));
#1252=DIRECTION('',(1.,0.,0.));
#1253=CARTESIAN_POINT('',(0.,0.,0.));
#1254=CARTESIAN_POINT('',(0.17,0.1,0.01));
#1255=CARTESIAN_POINT('',(0.17,0.1,0.));
#1256=CARTESIAN_POINT('',(0.1735,0.1,0.));
#1257=CARTESIAN_POINT('',(0.17,0.1,0.005));
#1258=CARTESIAN_POINT('',(0.1735,0.1,0.005));
#1259=CARTESIAN_POINT('',(0.17,2.14313189850787E-19,0.01));
#1260=CARTESIAN_POINT('',(0.17,2.14313189850787E-19,0.));
#1261=CARTESIAN_POINT('',(0.1735,2.14313189850787E-19,0.));
#1262=CARTESIAN_POINT('',(0.17,2.14313189850787E-19,0.005));
#1263=CARTESIAN_POINT('',(0.1735,2.14313189850787E-19,0.005));
#1264=CARTESIAN_POINT('',(0.275,2.14313189850787E-19,0.01));
#1265=CARTESIAN_POINT('',(0.275,2.14313189850787E-19,0.));
#1266=CARTESIAN_POINT('',(0.2785,2.14313189850787E-19,0.));
#1267=CARTESIAN_POINT('',(0.275,2.14313189850787E-19,0.005));
#1268=CARTESIAN_POINT('',(0.2785,2.14313189850787E-19,0.005));
#1269=CARTESIAN_POINT('',(0.35,2.14313189850787E-19,0.01));
#1270=CARTESIAN_POINT('',(0.35,2.14313189850787E-19,0.));
#1271=CARTESIAN_POINT('',(0.3535,2.14313189850787E-19,0.));
#1272=CARTESIAN_POINT('',(0.35,2.14313189850787E-19,0.005));
#1273=CARTESIAN_POINT('',(0.3535,2.14313189850787E-19,0.005));
#1274=CARTESIAN_POINT('',(0.425,2.14313189850787E-19,0.01));
#1275=CARTESIAN_POINT('',(0.425,2.14313189850787E-19,0.));
#1276=CARTESIAN_POINT('',(0.4285,2.14313189850787E-19,0.));
#1277=CARTESIAN_POINT('',(0.425,2.14313189850787E-19,0.005));
#1278=CARTESIAN_POINT('',(0.4285,2.14313189850787E-19,0.005));
#1279=CARTESIAN_POINT('',(-0.275,2.14313189850787E-19,0.01));
#1280=CARTESIAN_POINT('',(-0.275,2.14313189850787E-19,0.));
#1281=CARTESIAN_POINT('',(-0.2715,2.14313189850787E-19,0.));
#1282=CARTESIAN_POINT('',(-0.275,2.14313189850787E-19,0.005));
#1283=CARTESIAN_POINT('',(-0.2715,2.14313189850787E-19,0.005));
#1284=CARTESIAN_POINT('',(-0.35,2.14313189850787E-19,0.01));
#1285=CARTESIAN_POINT('',(-0.35,2.14313189850787E-19,0.));
#1286=CARTESIAN_POINT('',(-0.3465,2.14313189850787E-19,0.));
#1287=CARTESIAN_POINT('',(-0.35,2.14313189850787E-19,0.005));
#1288=CARTESIAN_POINT('',(-0.3465,2.14313189850787E-19,0.005));
#1289=CARTESIAN_POINT('',(-0.425,2.14313189850787E-19,0.01));
#1290=CARTESIAN_POINT('',(-0.425,2.14313189850787E-19,0.));
#1291=CARTESIAN_POINT('',(-0.4215,2.14313189850787E-19,0.));
#1292=CARTESIAN_POINT('',(-0.425,2.14313189850787E-19,0.005));
#1293=CARTESIAN_POINT('',(-0.4215,2.14313189850787E-19,0.005));
#1294=CARTESIAN_POINT('',(-0.2,2.14313189850787E-19,0.01));
#1295=CARTESIAN_POINT('',(-0.2,2.14313189850787E-19,0.));
#1296=CARTESIAN_POINT('',(-0.1965,2.14313189850787E-19,0.));
#1297=CARTESIAN_POINT('',(-0.2,2.14313189850787E-19,0.005));
#1298=CARTESIAN_POINT('',(-0.1965,2.14313189850787E-19,0.005));
#1299=CARTESIAN_POINT('',(-0.2,0.1,0.01));
#1300=CARTESIAN_POINT('',(-0.2,0.1,0.));
#1301=CARTESIAN_POINT('',(-0.1965,0.1,0.));
#1302=CARTESIAN_POINT('',(-0.2,0.1,0.005));
#1303=CARTESIAN_POINT('',(-0.1965,0.1,0.005));
#1304=CARTESIAN_POINT('',(0.17,-0.1,0.01));
#1305=CARTESIAN_POINT('',(0.17,-0.1,0.));
#1306=CARTESIAN_POINT('',(0.1735,-0.1,0.));
#1307=CARTESIAN_POINT('',(0.17,-0.1,0.005));
#1308=CARTESIAN_POINT('',(0.1735,-0.1,0.005));
#1309=CARTESIAN_POINT('',(-0.2,-0.1,0.01));
#1310=CARTESIAN_POINT('',(-0.2,-0.1,0.));
#1311=CARTESIAN_POINT('',(-0.1965,-0.1,0.));
#1312=CARTESIAN_POINT('',(-0.2,-0.1,0.005));
#1313=CARTESIAN_POINT('',(-0.1965,-0.1,0.005));
#1314=CARTESIAN_POINT('',(-1.11022302462516E-16,0.0169665530323982,0.01));
#1315=CARTESIAN_POINT('',(-0.35,4.59242549680257E-19,0.01));
#1316=CARTESIAN_POINT('',(-0.3425,4.59242549680257E-19,0.01));
#1317=CARTESIAN_POINT('',(-0.275,4.59242549680257E-19,0.01));
#1318=CARTESIAN_POINT('',(-0.2675,4.59242549680257E-19,0.01));
#1319=CARTESIAN_POINT('',(-0.2,0.1,0.01));
#1320=CARTESIAN_POINT('',(-0.1925,0.1,0.01));
#1321=CARTESIAN_POINT('',(-0.2,-0.1,0.01));
#1322=CARTESIAN_POINT('',(-0.1925,-0.1,0.01));
#1323=CARTESIAN_POINT('',(0.425,4.59242549680257E-19,0.01));
#1324=CARTESIAN_POINT('',(0.4325,4.59242549680257E-19,0.01));
#1325=CARTESIAN_POINT('',(0.35,4.59242549680257E-19,0.01));
#1326=CARTESIAN_POINT('',(0.3575,4.59242549680257E-19,0.01));
#1327=CARTESIAN_POINT('',(0.275,4.59242549680257E-19,0.01));
#1328=CARTESIAN_POINT('',(0.2825,4.59242549680257E-19,0.01));
#1329=CARTESIAN_POINT('',(0.174438929403215,-0.0834918749475481,0.01));
#1330=CARTESIAN_POINT('',(0.176938929403215,-0.0834918749475481,0.01));
#1331=CARTESIAN_POINT('',(0.483688929403214,-0.142015,0.01));
#1332=CARTESIAN_POINT('',(0.486188929403214,-0.142015,0.01));
#1333=CARTESIAN_POINT('',(0.483688929403214,0.142015,0.01));
#1334=CARTESIAN_POINT('',(0.486188929403214,0.142015,0.01));
#1335=CARTESIAN_POINT('',(0.174438929403215,0.0834918749475481,0.01));
#1336=CARTESIAN_POINT('',(0.176938929403215,0.0834918749475481,0.01));
#1337=CARTESIAN_POINT('',(-0.48387143909762,-0.142015,0.01));
#1338=CARTESIAN_POINT('',(-0.48137143909762,-0.142015,0.01));
#1339=CARTESIAN_POINT('',(-0.48387143909762,0.142015,0.01));
#1340=CARTESIAN_POINT('',(-0.48137143909762,0.142015,0.01));
#1341=CARTESIAN_POINT('',(-0.17462143909762,-0.0834918749475481,0.01));
#1342=CARTESIAN_POINT('',(-0.17212143909762,-0.0834918749475481,0.01));
#1343=CARTESIAN_POINT('',(-0.17462143909762,0.0834918749475481,0.01));
#1344=CARTESIAN_POINT('',(-0.17212143909762,0.0834918749475481,0.01));
#1345=CARTESIAN_POINT('',(0.,-0.0335,0.01));
#1346=CARTESIAN_POINT('',(0.0045,-0.0335,0.01));
#1347=CARTESIAN_POINT('',(-0.066,0.0325,0.01));
#1348=CARTESIAN_POINT('',(-0.0615,0.0325,0.01));
#1349=CARTESIAN_POINT('',(0.066,0.0325,0.01));
#1350=CARTESIAN_POINT('',(0.0705,0.0325,0.01));
#1351=CARTESIAN_POINT('',(0.,0.0985,0.01));
#1352=CARTESIAN_POINT('',(0.0045,0.0985,0.01));
#1353=CARTESIAN_POINT('',(-0.5,0.,0.01));
#1354=CARTESIAN_POINT('',(-0.5,0.2,0.01));
#1355=CARTESIAN_POINT('',(-0.5,-0.2,0.01));
#1356=CARTESIAN_POINT('',(-0.3575,-0.2,0.01));
#1357=CARTESIAN_POINT('',(0.5,-0.2,0.01));
#1358=CARTESIAN_POINT('',(0.5,2.77555756156289E-17,0.01));
#1359=CARTESIAN_POINT('',(0.5,0.2,0.01));
#1360=CARTESIAN_POINT('',(0.3575,0.2,0.01));
#1361=CARTESIAN_POINT('',(-0.2,4.59242549680257E-19,0.01));
#1362=CARTESIAN_POINT('',(-0.1925,4.59242549680257E-19,0.01));
#1363=CARTESIAN_POINT('',(0.17,0.1,0.01));
#1364=CARTESIAN_POINT('',(0.1775,0.1,0.01));
#1365=CARTESIAN_POINT('',(0.17,4.59242549680257E-19,0.01));
#1366=CARTESIAN_POINT('',(0.1775,4.59242549680257E-19,0.01));
#1367=CARTESIAN_POINT('',(0.17,-0.1,0.01));
#1368=CARTESIAN_POINT('',(0.1775,-0.1,0.01));
#1369=CARTESIAN_POINT('',(-0.425,4.59242549680257E-19,0.01));
#1370=CARTESIAN_POINT('',(-0.4175,4.59242549680257E-19,0.01));
#1371=CARTESIAN_POINT('',(-0.5,0.,0.01));
#1372=CARTESIAN_POINT('',(-0.5,0.,0.));
#1373=CARTESIAN_POINT('',(-0.5,0.2,0.));
#1374=CARTESIAN_POINT('',(-0.5,-0.2,0.));
#1375=CARTESIAN_POINT('',(-0.5,-0.2,0.01));
#1376=CARTESIAN_POINT('',(-0.5,0.2,0.01));
#1377=CARTESIAN_POINT('',(-0.3575,-0.2,0.01));
#1378=CARTESIAN_POINT('',(-0.3575,-0.2,0.));
#1379=CARTESIAN_POINT('',(0.5,-0.2,0.));
#1380=CARTESIAN_POINT('',(0.5,-0.2,0.01));
#1381=CARTESIAN_POINT('',(0.5,2.77555756156289E-17,0.01));
#1382=CARTESIAN_POINT('',(0.5,2.77555756156289E-17,0.));
#1383=CARTESIAN_POINT('',(0.5,0.2,0.));
#1384=CARTESIAN_POINT('',(0.5,0.2,0.01));
#1385=CARTESIAN_POINT('',(0.3575,0.2,0.01));
#1386=CARTESIAN_POINT('',(0.3575,0.2,0.));
#1387=CARTESIAN_POINT('',(0.,0.0985,0.01));
#1388=CARTESIAN_POINT('',(0.,0.0985,0.));
#1389=CARTESIAN_POINT('',(0.0045,0.0985,0.));
#1390=CARTESIAN_POINT('',(0.066,0.0325,0.01));
#1391=CARTESIAN_POINT('',(0.066,0.0325,0.));
#1392=CARTESIAN_POINT('',(0.0705,0.0325,0.));
#1393=CARTESIAN_POINT('',(-0.066,0.0325,0.01));
#1394=CARTESIAN_POINT('',(-0.066,0.0325,0.));
#1395=CARTESIAN_POINT('',(-0.0615,0.0325,0.));
#1396=CARTESIAN_POINT('',(0.,-0.0335,0.01));
#1397=CARTESIAN_POINT('',(0.,-0.0335,0.));
#1398=CARTESIAN_POINT('',(0.0045,-0.0335,0.));
#1399=CARTESIAN_POINT('',(-0.17462143909762,0.0834918749475481,0.01));
#1400=CARTESIAN_POINT('',(-0.17462143909762,0.0834918749475481,0.));
#1401=CARTESIAN_POINT('',(-0.17212143909762,0.0834918749475481,0.));
#1402=CARTESIAN_POINT('',(-0.17462143909762,-0.0834918749475481,0.01));
#1403=CARTESIAN_POINT('',(-0.17462143909762,-0.0834918749475481,0.));
#1404=CARTESIAN_POINT('',(-0.17212143909762,-0.0834918749475481,0.));
#1405=CARTESIAN_POINT('',(-0.48387143909762,0.142015,0.01));
#1406=CARTESIAN_POINT('',(-0.48387143909762,0.142015,0.));
#1407=CARTESIAN_POINT('',(-0.48137143909762,0.142015,0.));
#1408=CARTESIAN_POINT('',(-0.48387143909762,-0.142015,0.01));
#1409=CARTESIAN_POINT('',(-0.48387143909762,-0.142015,0.));
#1410=CARTESIAN_POINT('',(-0.48137143909762,-0.142015,0.));
#1411=CARTESIAN_POINT('',(0.174438929403215,0.0834918749475481,0.01));
#1412=CARTESIAN_POINT('',(0.174438929403215,0.0834918749475481,0.));
#1413=CARTESIAN_POINT('',(0.176938929403215,0.0834918749475481,0.));
#1414=CARTESIAN_POINT('',(0.483688929403214,0.142015,0.01));
#1415=CARTESIAN_POINT('',(0.483688929403214,0.142015,0.));
#1416=CARTESIAN_POINT('',(0.486188929403214,0.142015,0.));
#1417=CARTESIAN_POINT('',(0.483688929403214,-0.142015,0.01));
#1418=CARTESIAN_POINT('',(0.483688929403214,-0.142015,0.));
#1419=CARTESIAN_POINT('',(0.486188929403214,-0.142015,0.));
#1420=CARTESIAN_POINT('',(0.174438929403215,-0.0834918749475481,0.01));
#1421=CARTESIAN_POINT('',(0.174438929403215,-0.0834918749475481,0.));
#1422=CARTESIAN_POINT('',(0.176938929403215,-0.0834918749475481,0.));
#1423=CARTESIAN_POINT('',(-1.11022302462516E-16,0.0169665530323982,0.));
#1424=CARTESIAN_POINT('',(0.275,4.59242549680257E-19,0.005));
#1425=CARTESIAN_POINT('',(0.275,4.59242549680257E-19,0.005));
#1426=CARTESIAN_POINT('',(0.2825,4.59242549680257E-19,0.005));
#1427=CARTESIAN_POINT('',(-1.11022302462516E-16,0.0169665530323982,0.005));
#1428=CARTESIAN_POINT('',(0.35,4.59242549680257E-19,0.005));
#1429=CARTESIAN_POINT('',(0.35,4.59242549680257E-19,0.005));
#1430=CARTESIAN_POINT('',(0.3575,4.59242549680257E-19,0.005));
#1431=CARTESIAN_POINT('',(-1.11022302462516E-16,0.0169665530323982,0.005));
#1432=CARTESIAN_POINT('',(0.425,4.59242549680257E-19,0.005));
#1433=CARTESIAN_POINT('',(0.425,4.59242549680257E-19,0.005));
#1434=CARTESIAN_POINT('',(0.4325,4.59242549680257E-19,0.005));
#1435=CARTESIAN_POINT('',(-1.11022302462516E-16,0.0169665530323982,0.005));
#1436=CARTESIAN_POINT('',(-0.2,-0.1,0.005));
#1437=CARTESIAN_POINT('',(-0.2,-0.1,0.005));
#1438=CARTESIAN_POINT('',(-0.1925,-0.1,0.005));
#1439=CARTESIAN_POINT('',(-1.11022302462516E-16,0.0169665530323982,0.005));
#1440=CARTESIAN_POINT('',(-0.2,0.1,0.005));
#1441=CARTESIAN_POINT('',(-0.2,0.1,0.005));
#1442=CARTESIAN_POINT('',(-0.1925,0.1,0.005));
#1443=CARTESIAN_POINT('',(-1.11022302462516E-16,0.0169665530323982,0.005));
#1444=CARTESIAN_POINT('',(-0.2,4.59242549680257E-19,0.005));
#1445=CARTESIAN_POINT('',(-0.2,4.59242549680257E-19,0.005));
#1446=CARTESIAN_POINT('',(-0.1925,4.59242549680257E-19,0.005));
#1447=CARTESIAN_POINT('',(-1.11022302462516E-16,0.0169665530323982,0.005));
#1448=CARTESIAN_POINT('',(-0.275,4.59242549680257E-19,0.005));
#1449=CARTESIAN_POINT('',(-0.275,4.59242549680257E-19,0.005));
#1450=CARTESIAN_POINT('',(-0.2675,4.59242549680257E-19,0.005));
#1451=CARTESIAN_POINT('',(-1.11022302462516E-16,0.0169665530323982,0.005));
#1452=CARTESIAN_POINT('',(0.17,0.1,0.005));
#1453=CARTESIAN_POINT('',(0.17,0.1,0.005));
#1454=CARTESIAN_POINT('',(0.1775,0.1,0.005));
#1455=CARTESIAN_POINT('',(-1.11022302462516E-16,0.0169665530323982,0.005));
#1456=CARTESIAN_POINT('',(0.17,4.59242549680257E-19,0.005));
#1457=CARTESIAN_POINT('',(0.17,4.59242549680257E-19,0.005));
#1458=CARTESIAN_POINT('',(0.1775,4.59242549680257E-19,0.005));
#1459=CARTESIAN_POINT('',(-1.11022302462516E-16,0.0169665530323982,0.005));
#1460=CARTESIAN_POINT('',(0.17,-0.1,0.005));
#1461=CARTESIAN_POINT('',(0.17,-0.1,0.005));
#1462=CARTESIAN_POINT('',(0.1775,-0.1,0.005));
#1463=CARTESIAN_POINT('',(-1.11022302462516E-16,0.0169665530323982,0.005));
#1464=CARTESIAN_POINT('',(-0.35,4.59242549680257E-19,0.005));
#1465=CARTESIAN_POINT('',(-0.35,4.59242549680257E-19,0.005));
#1466=CARTESIAN_POINT('',(-0.3425,4.59242549680257E-19,0.005));
#1467=CARTESIAN_POINT('',(-1.11022302462516E-16,0.0169665530323982,0.005));
#1468=CARTESIAN_POINT('',(-0.425,4.59242549680257E-19,0.005));
#1469=CARTESIAN_POINT('',(-0.425,4.59242549680257E-19,0.005));
#1470=CARTESIAN_POINT('',(-0.4175,4.59242549680257E-19,0.005));
#1471=CARTESIAN_POINT('',(-1.11022302462516E-16,0.0169665530323982,0.005));
#1472=MECHANICAL_DESIGN_GEOMETRIC_PRESENTATION_REPRESENTATION('',(#849),
#1473);
#1473=(
GEOMETRIC_REPRESENTATION_CONTEXT(3)
GLOBAL_UNCERTAINTY_ASSIGNED_CONTEXT((#1474))
GLOBAL_UNIT_ASSIGNED_CONTEXT((#1477,#1476,#1475))
REPRESENTATION_CONTEXT('Plate_1x0.4m','TOP_LEVEL_ASSEMBLY_PART')
);
#1474=UNCERTAINTY_MEASURE_WITH_UNIT(LENGTH_MEASURE(1.E-8),#1477,
'DISTANCE_ACCURACY_VALUE','Maximum Tolerance applied to model');
#1475=(
NAMED_UNIT(*)
SI_UNIT($,.STERADIAN.)
SOLID_ANGLE_UNIT()
);
#1476=(
NAMED_UNIT(*)
PLANE_ANGLE_UNIT()
SI_UNIT($,.RADIAN.)
);
#1477=(
LENGTH_UNIT()
NAMED_UNIT(*)
SI_UNIT($,.METRE.)
);
#1478=PRODUCT_DEFINITION_SHAPE('','',#1479);
#1479=PRODUCT_DEFINITION('','',#1481,#1480);
#1480=PRODUCT_DEFINITION_CONTEXT('',#1487,'design');
#1481=PRODUCT_DEFINITION_FORMATION_WITH_SPECIFIED_SOURCE('','',#1483,
 .NOT_KNOWN.);
#1482=PRODUCT_RELATED_PRODUCT_CATEGORY('','',(#1483));
#1483=PRODUCT('Plate_1x0.4m','Plate_1x0.4m','Plate_1x0.4m',(#1485));
#1484=PRODUCT_CATEGORY('','');
#1485=PRODUCT_CONTEXT('',#1487,'mechanical');
#1486=APPLICATION_PROTOCOL_DEFINITION('international standard',
'ap242_managed_model_based_3d_engineering',2020,#1487);
#1487=APPLICATION_CONTEXT('managed model based 3d engineering');
ENDSEC;
END-ISO-10303-21;
